<?xml version="1.0" encoding="UTF-8" standalone="no"?><svg xmlns="http://www.w3.org/2000/svg" xmlns:xlink="http://www.w3.org/1999/xlink" contentScriptType="application/ecmascript" contentStyleType="text/css" height="313.875px" preserveAspectRatio="none" style="width:1147px;height:313px;" version="1.1" viewBox="0 0 1147 313" width="1147.5px" zoomAndPan="magnify"><defs><filter height="300%" id="fzh4n5w6f86az" width="300%" x="-1" y="-1"><feGaussianBlur result="blurOut" stdDeviation="2.25"/><feColorMatrix in="blurOut" result="blurOut2" type="matrix" values="0 0 0 0 0 0 0 0 0 0 0 0 0 0 0 0 0 0 .4 0"/><feOffset dx="4.5" dy="4.5" in="blurOut2" result="blurOut3"/><feBlend in="SourceGraphic" in2="blurOut3" mode="normal"/></filter></defs><g><text fill="#000000" font-family="sans-serif" font-size="20.25" lengthAdjust="spacingAndGlyphs" textLength="363.375" x="405" y="21.0212">Add New Employee - Use Case Diagram</text><!--MD5=[dbd2530c023889e0c918a92450a75035]
cluster SERVER--><rect fill="#FFFFFF" filter="url(#fzh4n5w6f86az)" height="249.75" style="stroke: #000000; stroke-width: 1.6875;" width="1027.125" x="108" y="52.4707"/><text fill="#000000" font-family="sans-serif" font-size="15.75" font-weight="bold" lengthAdjust="spacingAndGlyphs" textLength="63" x="590.0625" y="71.0706">SERVER</text><ellipse cx="200.6001" cy="179.7782" fill="#FEFECE" filter="url(#fzh4n5w6f86az)" rx="74.6001" ry="17.62" style="stroke: #A80036; stroke-width: 1.6875;"/><text fill="#000000" font-family="sans-serif" font-size="15.75" lengthAdjust="spacingAndGlyphs" textLength="102.375" x="149.4126" y="185.746">Add Employee</text><ellipse cx="493.8926" cy="263.7492" fill="#FEFECE" filter="url(#fzh4n5w6f86az)" rx="86.6426" ry="20.0285" style="stroke: #A80036; stroke-width: 1.6875;"/><text fill="#000000" font-family="sans-serif" font-size="15.75" lengthAdjust="spacingAndGlyphs" textLength="133.875" x="426.9551" y="269.717">Check Fiscal Code</text><ellipse cx="493.8755" cy="186.4583" fill="#FEFECE" filter="url(#fzh4n5w6f86az)" rx="77.063" ry="18.1126" style="stroke: #A80036; stroke-width: 1.6875;"/><text fill="#000000" font-family="sans-serif" font-size="15.75" lengthAdjust="spacingAndGlyphs" textLength="109.125" x="439.313" y="192.4261">Check Mansion</text><ellipse cx="494.1548" cy="110.9164" fill="#FEFECE" filter="url(#fzh4n5w6f86az)" rx="31.2173" ry="17.3832" style="stroke: #A80036; stroke-width: 1.6875;"/><text fill="#000000" font-family="sans-serif" font-size="15.75" lengthAdjust="spacingAndGlyphs" textLength="39.375" x="474.4673" y="116.8841">Login</text><ellipse cx="746.5808" cy="179.5414" fill="#FEFECE" filter="url(#fzh4n5w6f86az)" rx="28.8308" ry="17.3832" style="stroke: #A80036; stroke-width: 1.6875;"/><text fill="#000000" font-family="sans-serif" font-size="15.75" lengthAdjust="spacingAndGlyphs" textLength="36" x="728.5808" y="185.5091">Error</text><ellipse cx="1011.8679" cy="179.6943" fill="#FEFECE" filter="url(#fzh4n5w6f86az)" rx="105.1179" ry="23.7236" style="stroke: #A80036; stroke-width: 1.6875;"/><text fill="#000000" font-family="sans-serif" font-size="15.75" lengthAdjust="spacingAndGlyphs" textLength="177.75" x="922.9929" y="185.6621">Send Warning Response</text><!--MD5=[a9b4861afe04d13ad31015f524545770]
entity Official--><ellipse cx="30.9375" cy="143.0332" fill="#FEFECE" filter="url(#fzh4n5w6f86az)" rx="9" ry="9" style="stroke: #A80036; stroke-width: 2.25;"/><path d="M30.9375,152.0332 L30.9375,182.4082 M16.3125,161.0332 L45.5625,161.0332 M30.9375,182.4082 L16.3125,199.2832 M30.9375,182.4082 L45.5625,199.2832 " fill="none" filter="url(#fzh4n5w6f86az)" style="stroke: #A80036; stroke-width: 2.25;"/><text fill="#000000" font-family="sans-serif" font-size="15.75" lengthAdjust="spacingAndGlyphs" textLength="48.375" x="6.75" y="223.5081">Official</text><!--MD5=[a1d4d328e46a121d170e16ae0bfedfee]
link Official to Add Employee--><path d="M55.37,179.5957 C73.7216,179.5957 100.36,179.5957 125.7683,179.5957 " fill="none" id="Official-Add Employee" style="stroke: #A80036; stroke-width: 1.125;"/><!--MD5=[7feaf0355e07641735c48755d8ab3866]
link Add Employee to Check Fiscal Code--><path d="M245.7405,193.737 C265.1828,199.9155 288.3724,207.1503 309.375,213.3457 C349.5161,225.1878 394.8503,237.7106 430.3991,247.3387 " fill="none" id="Add Employee-&gt;Check Fiscal Code" style="stroke: #A80036; stroke-width: 1.125; stroke-dasharray: 7.0,7.0;"/><polygon fill="#A80036" points="436.0185,248.8586,427.42,241.8707,430.5887,247.3897,425.0697,250.5584,436.0185,248.8586" style="stroke: #A80036; stroke-width: 1.125;"/><text fill="#000000" font-family="sans-serif" font-size="14.625" lengthAdjust="spacingAndGlyphs" textLength="61.875" x="310.5" y="209.4027">«include»</text><!--MD5=[8c7931685c3b8f547d7f5ea4e6f1afc6]
link Add Employee to Check Mansion--><path d="M275.0411,182.0201 C286.5308,182.3643 298.2746,182.694 309.375,182.9707 C342.6379,183.7987 379.2994,184.5142 411.0424,185.0688 " fill="none" id="Add Employee-&gt;Check Mansion" style="stroke: #A80036; stroke-width: 1.125; stroke-dasharray: 7.0,7.0;"/><polygon fill="#A80036" points="416.9104,185.1712,406.8653,180.4954,411.2862,185.0732,406.7085,189.4941,416.9104,185.1712" style="stroke: #A80036; stroke-width: 1.125;"/><text fill="#000000" font-family="sans-serif" font-size="14.625" lengthAdjust="spacingAndGlyphs" textLength="61.875" x="310.5" y="179.0277">«include»</text><!--MD5=[fbefb29cfe9c50f076d47e9625d7fd2b]
link Add Employee to Login--><path d="M254.2646,167.2477 C313.785,153.2021 409.2007,130.6863 459.3982,118.8412 " fill="none" id="Add Employee-&gt;Login" style="stroke: #A80036; stroke-width: 1.125; stroke-dasharray: 7.0,7.0;"/><polygon fill="#A80036" points="464.9963,117.5205,454.1082,115.4669,459.5217,118.8127,456.1759,124.2262,464.9963,117.5205" style="stroke: #A80036; stroke-width: 1.125;"/><text fill="#000000" font-family="sans-serif" font-size="14.625" lengthAdjust="spacingAndGlyphs" textLength="61.875" x="310.5" y="135.1527">«include»</text><!--MD5=[25dc9539979bdd08129cb50901184045]
reverse link Login to Error--><path d="M528.9559,118.4835 C566.9809,127.1223 630.3195,142.1895 684,158.2207 C696.5291,161.9625 710.2935,166.7021 721.5998,170.7667 " fill="none" id="Login&lt;-Error" style="stroke: #A80036; stroke-width: 1.125; stroke-dasharray: 7.0,7.0;"/><polygon fill="#A80036" points="523.0755,117.1526,531.9568,123.7774,528.5616,118.3948,533.9443,114.9996,523.0755,117.1526" style="stroke: #A80036; stroke-width: 1.125;"/><text fill="#000000" font-family="sans-serif" font-size="14.625" lengthAdjust="spacingAndGlyphs" textLength="67.5" x="615.375" y="135.1527">«extends»</text><!--MD5=[04e7aa5fa5407d2a7638a62171a5a340]
reverse link Check Mansion to Error--><path d="M576.6109,185.5503 C609.921,185.0531 648.8123,184.2532 684,182.9707 C695.0801,182.5668 707.2763,181.9346 717.8535,181.3248 " fill="none" id="Check Mansion&lt;-Error" style="stroke: #A80036; stroke-width: 1.125; stroke-dasharray: 7.0,7.0;"/><polygon fill="#A80036" points="570.888,185.6336,581.0775,189.9856,576.5124,185.5516,580.9464,180.9865,570.888,185.6336" style="stroke: #A80036; stroke-width: 1.125;"/><text fill="#000000" font-family="sans-serif" font-size="14.625" lengthAdjust="spacingAndGlyphs" textLength="67.5" x="615.375" y="179.0277">«extends»</text><!--MD5=[d51aaf262fc66dd00ff50b0bd8f32bd8]
reverse link Check Fiscal Code to Error--><path d="M565.4081,249.3865 C601.5398,240.839 645.8591,228.6885 684,213.3457 C698.4293,207.5418 713.7574,199.1043 725.4776,192.117 " fill="none" id="Check Fiscal Code&lt;-Error" style="stroke: #A80036; stroke-width: 1.125; stroke-dasharray: 7.0,7.0;"/><polygon fill="#A80036" points="559.6819,250.7274,570.5662,252.8004,565.1587,249.4449,568.5142,244.0374,559.6819,250.7274" style="stroke: #A80036; stroke-width: 1.125;"/><text fill="#000000" font-family="sans-serif" font-size="14.625" lengthAdjust="spacingAndGlyphs" textLength="67.5" x="615.375" y="209.4027">«extends»</text><!--MD5=[d0524877c8e85b6dfdf0af047d4402e8]
link Error to Send Warning Response--><path d="M775.2375,179.5957 C805.1164,179.5957 854.6141,179.5957 900.5479,179.5957 " fill="none" id="Error-&gt;Send Warning Response" style="stroke: #A80036; stroke-width: 1.125; stroke-dasharray: 7.0,7.0;"/><polygon fill="#A80036" points="906.7106,179.5957,896.5856,175.0957,901.0856,179.5957,896.5856,184.0957,906.7106,179.5957" style="stroke: #A80036; stroke-width: 1.125;"/><text fill="#000000" font-family="sans-serif" font-size="14.625" lengthAdjust="spacingAndGlyphs" textLength="61.875" x="810" y="175.6527">«include»</text><!--MD5=[23c62cd14c5686afccfea8233d151297]
@startuml
title Add New Employee - Use Case Diagram

left to right direction

actor Official

rectangle SERVER{
    Official - - (Add Employee)
    (Add Employee) ..> (Check Fiscal Code) : <<include>>
    (Add Employee) ..> (Check Mansion) : <<include>>
    (Add Employee) ..> (Login) : <<include>>
    (Login) <.. (Error) : <<extends>>
    (Check Mansion) <.. (Error): <<extends>>
    (Check Fiscal Code) <.. (Error) : <<extends>>
    (Error) ..> (Send Warning Response) : <<include>>
}
@enduml

PlantUML version 1.2019.11(Sun Sep 22 12:02:15 CEST 2019)
(GPL source distribution)
Java Runtime: OpenJDK Runtime Environment
JVM: OpenJDK 64-Bit Server VM
Java Version: 11.0.4+10-b304.77
Operating System: Windows 10
Default Encoding: Cp1252
Language: it
Country: IT
--></g></svg>