<?xml version="1.0" encoding="UTF-8" standalone="no"?><svg xmlns="http://www.w3.org/2000/svg" xmlns:xlink="http://www.w3.org/1999/xlink" contentScriptType="application/ecmascript" contentStyleType="text/css" height="456.25px" preserveAspectRatio="none" style="width:1325px;height:456px;" version="1.1" viewBox="0 0 1325 456" width="1325px" zoomAndPan="magnify"><defs><filter height="300%" id="fk0qf5fybxjvb" width="300%" x="-1" y="-1"><feGaussianBlur result="blurOut" stdDeviation="2.5"/><feColorMatrix in="blurOut" result="blurOut2" type="matrix" values="0 0 0 0 0 0 0 0 0 0 0 0 0 0 0 0 0 0 .4 0"/><feOffset dx="5.0" dy="5.0" in="blurOut2" result="blurOut3"/><feBlend in="SourceGraphic" in2="blurOut3" mode="normal"/></filter></defs><g><text fill="#000000" font-family="sans-serif" font-size="22.5" lengthAdjust="spacingAndGlyphs" textLength="403.75" x="475" y="23.3569">Add New Employee - Use Case Diagram</text><!--MD5=[dbd2530c023889e0c918a92450a75035]
cluster SERVER--><rect fill="#FFFFFF" filter="url(#fk0qf5fybxjvb)" height="277.5" style="stroke: #000000; stroke-width: 1.875;" width="1141.25" x="170" y="100.1758"/><text fill="#000000" font-family="sans-serif" font-size="17.5" font-weight="bold" lengthAdjust="spacingAndGlyphs" textLength="70" x="705.625" y="120.8423">SERVER</text><ellipse cx="272.889" cy="241.6286" fill="#FEFECE" filter="url(#fk0qf5fybxjvb)" rx="82.889" ry="19.5778" style="stroke: #A80036; stroke-width: 1.875;"/><text fill="#000000" font-family="sans-serif" font-size="17.5" lengthAdjust="spacingAndGlyphs" textLength="113.75" x="216.014" y="248.2595">Add Employee</text><ellipse cx="598.7695" cy="334.9297" fill="#FEFECE" filter="url(#fk0qf5fybxjvb)" rx="96.2695" ry="22.2539" style="stroke: #A80036; stroke-width: 1.875;"/><text fill="#000000" font-family="sans-serif" font-size="17.5" lengthAdjust="spacingAndGlyphs" textLength="148.75" x="524.3945" y="341.5605">Check Fiscal Code</text><ellipse cx="598.7506" cy="249.0509" fill="#FEFECE" filter="url(#fk0qf5fybxjvb)" rx="85.6256" ry="20.1251" style="stroke: #A80036; stroke-width: 1.875;"/><text fill="#000000" font-family="sans-serif" font-size="17.5" lengthAdjust="spacingAndGlyphs" textLength="121.25" x="538.1256" y="255.6818">Check Mansion</text><ellipse cx="599.0609" cy="165.1154" fill="#FEFECE" filter="url(#fk0qf5fybxjvb)" rx="34.6859" ry="19.3146" style="stroke: #A80036; stroke-width: 1.875;"/><text fill="#000000" font-family="sans-serif" font-size="17.5" lengthAdjust="spacingAndGlyphs" textLength="43.75" x="577.1859" y="171.7463">Login</text><ellipse cx="879.5343" cy="241.3654" fill="#FEFECE" filter="url(#fk0qf5fybxjvb)" rx="32.0343" ry="19.3146" style="stroke: #A80036; stroke-width: 1.875;"/><text fill="#000000" font-family="sans-serif" font-size="17.5" lengthAdjust="spacingAndGlyphs" textLength="40" x="859.5343" y="247.9963">Error</text><ellipse cx="1174.2977" cy="241.5353" fill="#FEFECE" filter="url(#fk0qf5fybxjvb)" rx="116.7977" ry="26.3595" style="stroke: #A80036; stroke-width: 1.875;"/><text fill="#000000" font-family="sans-serif" font-size="17.5" lengthAdjust="spacingAndGlyphs" textLength="197.5" x="1075.5477" y="248.1662">Send Warning Response</text><!--MD5=[62529e7d5259bf274c3bf3e446350d88]
entity Administrator--><ellipse cx="59.375" cy="50.8008" fill="#FEFECE" filter="url(#fk0qf5fybxjvb)" rx="10" ry="10" style="stroke: #A80036; stroke-width: 2.5;"/><path d="M59.375,60.8008 L59.375,94.5508 M43.125,70.8008 L75.625,70.8008 M59.375,94.5508 L43.125,113.3008 M59.375,94.5508 L75.625,113.3008 " fill="none" filter="url(#fk0qf5fybxjvb)" style="stroke: #A80036; stroke-width: 2.5;"/><text fill="#000000" font-family="sans-serif" font-size="17.5" lengthAdjust="spacingAndGlyphs" textLength="103.75" x="7.5" y="140.2173">Administrator</text><!--MD5=[3a4e06195bfd3e65563855131230b9db]
entity Director--><ellipse cx="59.375" cy="200.8008" fill="#FEFECE" filter="url(#fk0qf5fybxjvb)" rx="10" ry="10" style="stroke: #A80036; stroke-width: 2.5;"/><path d="M59.375,210.8008 L59.375,244.5508 M43.125,220.8008 L75.625,220.8008 M59.375,244.5508 L43.125,263.3008 M59.375,244.5508 L75.625,263.3008 " fill="none" filter="url(#fk0qf5fybxjvb)" style="stroke: #A80036; stroke-width: 2.5;"/><text fill="#000000" font-family="sans-serif" font-size="17.5" lengthAdjust="spacingAndGlyphs" textLength="62.5" x="28.125" y="290.2173">Director</text><!--MD5=[a9b4861afe04d13ad31015f524545770]
entity Official--><ellipse cx="59.375" cy="350.8008" fill="#FEFECE" filter="url(#fk0qf5fybxjvb)" rx="10" ry="10" style="stroke: #A80036; stroke-width: 2.5;"/><path d="M59.375,360.8008 L59.375,394.5508 M43.125,370.8008 L75.625,370.8008 M59.375,394.5508 L43.125,413.3008 M59.375,394.5508 L75.625,413.3008 " fill="none" filter="url(#fk0qf5fybxjvb)" style="stroke: #A80036; stroke-width: 2.5;"/><text fill="#000000" font-family="sans-serif" font-size="17.5" lengthAdjust="spacingAndGlyphs" textLength="53.75" x="32.5" y="440.2173">Official</text><!--MD5=[7a229a83047a039f9fde0d2e3d73e352]
link Director to Add Employee--><path d="M90.892,241.4258 C116.6756,241.4258 154.96,241.4258 189.685,241.4258 " fill="none" id="Director-Add Employee" style="stroke: #A80036; stroke-width: 1.25;"/><!--MD5=[7a53fc902a6c80290ce0739e1d7e4457]
link Administrator to Add Employee--><path d="M111.7628,127.737 C154.0125,157.737 212.2788,199.1095 245.62,222.7833 " fill="none" id="Administrator-Add Employee" style="stroke: #A80036; stroke-width: 1.25;"/><!--MD5=[a1d4d328e46a121d170e16ae0bfedfee]
link Official to Add Employee--><path d="M86.5284,373.0328 C127.073,344.2438 205.085,288.8508 245.76,259.9695 " fill="none" id="Official-Add Employee" style="stroke: #A80036; stroke-width: 1.25;"/><!--MD5=[7feaf0355e07641735c48755d8ab3866]
link Add Employee to Check Fiscal Code--><path d="M323.045,257.1383 C344.6475,264.0033 370.4138,272.042 393.75,278.9258 C438.3513,292.0833 488.7225,305.9983 528.2213,316.6958 " fill="none" id="Add Employee-&gt;Check Fiscal Code" style="stroke: #A80036; stroke-width: 1.25; stroke-dasharray: 7.0,7.0;"/><polygon fill="#A80036" points="534.465,318.3845,524.9108,310.6205,528.4318,316.7526,522.2997,320.2736,534.465,318.3845" style="stroke: #A80036; stroke-width: 1.25;"/><text fill="#000000" font-family="sans-serif" font-size="16.25" lengthAdjust="spacingAndGlyphs" textLength="68.75" x="395" y="274.5447">«include»</text><!--MD5=[8c7931685c3b8f547d7f5ea4e6f1afc6]
link Add Employee to Check Mansion--><path d="M355.6013,244.1195 C368.3675,244.502 381.4163,244.8683 393.75,245.1758 C430.7088,246.0958 471.4437,246.8908 506.7138,247.507 " fill="none" id="Add Employee-&gt;Check Mansion" style="stroke: #A80036; stroke-width: 1.25; stroke-dasharray: 7.0,7.0;"/><polygon fill="#A80036" points="513.2338,247.6208,502.0726,242.4255,506.9847,247.5119,501.8983,252.424,513.2338,247.6208" style="stroke: #A80036; stroke-width: 1.25;"/><text fill="#000000" font-family="sans-serif" font-size="16.25" lengthAdjust="spacingAndGlyphs" textLength="68.75" x="395" y="240.7947">«include»</text><!--MD5=[fbefb29cfe9c50f076d47e9625d7fd2b]
link Add Employee to Login--><path d="M332.5162,227.7058 C398.65,212.0995 504.6675,187.082 560.4425,173.9208 " fill="none" id="Add Employee-&gt;Login" style="stroke: #A80036; stroke-width: 1.25; stroke-dasharray: 7.0,7.0;"/><polygon fill="#A80036" points="566.6625,172.4533,554.5647,170.1716,560.5797,173.8892,556.8621,179.9041,566.6625,172.4533" style="stroke: #A80036; stroke-width: 1.25;"/><text fill="#000000" font-family="sans-serif" font-size="16.25" lengthAdjust="spacingAndGlyphs" textLength="68.75" x="395" y="192.0447">«include»</text><!--MD5=[25dc9539979bdd08129cb50901184045]
reverse link Login to Error--><path d="M637.7288,173.5233 C679.9788,183.122 750.355,199.8633 810,217.6758 C823.9212,221.8333 839.215,227.0995 851.7775,231.6158 " fill="none" id="Login&lt;-Error" style="stroke: #A80036; stroke-width: 1.25; stroke-dasharray: 7.0,7.0;"/><polygon fill="#A80036" points="631.195,172.0445,641.0631,179.4054,637.2907,173.4247,643.2714,169.6523,631.195,172.0445" style="stroke: #A80036; stroke-width: 1.25;"/><text fill="#000000" font-family="sans-serif" font-size="16.25" lengthAdjust="spacingAndGlyphs" textLength="75" x="733.75" y="192.0447">«extends»</text><!--MD5=[04e7aa5fa5407d2a7638a62171a5a340]
reverse link Check Mansion to Error--><path d="M690.6788,248.042 C727.69,247.4895 770.9025,246.6008 810,245.1758 C822.3113,244.727 835.8625,244.0245 847.615,243.347 " fill="none" id="Check Mansion&lt;-Error" style="stroke: #A80036; stroke-width: 1.25; stroke-dasharray: 7.0,7.0;"/><polygon fill="#A80036" points="684.32,248.1345,695.6417,252.9701,690.5693,248.0435,695.496,242.9712,684.32,248.1345" style="stroke: #A80036; stroke-width: 1.25;"/><text fill="#000000" font-family="sans-serif" font-size="16.25" lengthAdjust="spacingAndGlyphs" textLength="75" x="733.75" y="240.7947">«extends»</text><!--MD5=[d51aaf262fc66dd00ff50b0bd8f32bd8]
reverse link Check Fiscal Code to Error--><path d="M678.2313,318.9708 C718.3775,309.4733 767.6212,295.9733 810,278.9258 C826.0325,272.477 843.0638,263.102 856.0863,255.3383 " fill="none" id="Check Fiscal Code&lt;-Error" style="stroke: #A80036; stroke-width: 1.25; stroke-dasharray: 7.0,7.0;"/><polygon fill="#A80036" points="671.8688,320.461,683.9624,322.7646,677.9542,319.0361,681.6826,313.0279,671.8688,320.461" style="stroke: #A80036; stroke-width: 1.25;"/><text fill="#000000" font-family="sans-serif" font-size="16.25" lengthAdjust="spacingAndGlyphs" textLength="75" x="733.75" y="274.5447">«extends»</text><!--MD5=[d0524877c8e85b6dfdf0af047d4402e8]
link Error to Send Warning Response--><path d="M911.375,241.4258 C944.5738,241.4258 999.5713,241.4258 1050.6087,241.4258 " fill="none" id="Error-&gt;Send Warning Response" style="stroke: #A80036; stroke-width: 1.25; stroke-dasharray: 7.0,7.0;"/><polygon fill="#A80036" points="1057.4563,241.4258,1046.2063,236.4258,1051.2063,241.4258,1046.2063,246.4258,1057.4563,241.4258" style="stroke: #A80036; stroke-width: 1.25;"/><text fill="#000000" font-family="sans-serif" font-size="16.25" lengthAdjust="spacingAndGlyphs" textLength="68.75" x="950" y="237.0447">«include»</text><!--MD5=[57dc2ba00618be5ee54706252c10986e]
@startuml
title Add New Employee - Use Case Diagram

left to right direction

actor Administrator
actor Director
actor Official

rectangle SERVER{
    Director - - (Add Employee)
    Administrator - - (Add Employee)
    Official - - (Add Employee)
    (Add Employee) ..> (Check Fiscal Code) : <<include>>
    (Add Employee) ..> (Check Mansion) : <<include>>
    (Add Employee) ..> (Login) : <<include>>
    (Login) <.. (Error) : <<extends>>
    (Check Mansion) <.. (Error): <<extends>>
    (Check Fiscal Code) <.. (Error) : <<extends>>
    (Error) ..> (Send Warning Response) : <<include>>
}
@enduml

PlantUML version 1.2019.11(Sun Sep 22 12:02:15 CEST 2019)
(GPL source distribution)
Java Runtime: OpenJDK Runtime Environment
JVM: OpenJDK 64-Bit Server VM
Java Version: 11.0.4+10-b304.77
Operating System: Windows 10
Default Encoding: Cp1252
Language: it
Country: IT
--></g></svg>