<?xml version="1.0" encoding="UTF-8" standalone="no"?><svg xmlns="http://www.w3.org/2000/svg" xmlns:xlink="http://www.w3.org/1999/xlink" contentScriptType="application/ecmascript" contentStyleType="text/css" height="581.25px" preserveAspectRatio="none" style="width:1090px;height:581px;" version="1.1" viewBox="0 0 1090 581" width="1090px" zoomAndPan="magnify"><defs><filter height="300%" id="f17fy3a0ye0e74" width="300%" x="-1" y="-1"><feGaussianBlur result="blurOut" stdDeviation="2.5"/><feColorMatrix in="blurOut" result="blurOut2" type="matrix" values="0 0 0 0 0 0 0 0 0 0 0 0 0 0 0 0 0 0 .4 0"/><feOffset dx="5.0" dy="5.0" in="blurOut2" result="blurOut3"/><feBlend in="SourceGraphic" in2="blurOut3" mode="normal"/></filter></defs><g><text fill="#000000" font-family="sans-serif" font-size="22.5" lengthAdjust="spacingAndGlyphs" textLength="146.25" x="476.25" y="23.3569">Class Diagram</text><!--MD5=[dbd2530c023889e0c918a92450a75035]
cluster SERVER--><path d="M181.875,80.8008 C181.875,68.3008 348.75,68.3008 348.75,68.3008 C348.75,68.3008 515.625,68.3008 515.625,80.8008 L515.625,272.0508 C515.625,284.5508 348.75,284.5508 348.75,284.5508 C348.75,284.5508 181.875,284.5508 181.875,272.0508 L181.875,80.8008 " fill="#FFFFFF" filter="url(#f17fy3a0ye0e74)" style="stroke: #000000; stroke-width: 1.875;"/><path d="M181.875,80.8008 C181.875,93.3008 348.75,93.3008 348.75,93.3008 C348.75,93.3008 515.625,93.3008 515.625,80.8008 " fill="none" style="stroke: #000000; stroke-width: 1.875;"/><text fill="#000000" font-family="sans-serif" font-size="17.5" font-weight="bold" lengthAdjust="spacingAndGlyphs" textLength="70" x="313.75" y="113.9673">SERVER</text><!--MD5=[2a671b818beb7e7ec8a64a14c81170ac]
class BusinessCompany--><rect fill="#FEFECE" filter="url(#f17fy3a0ye0e74)" height="111.8848" id="BusinessCompany" style="stroke: #A80036; stroke-width: 1.875;" width="250" x="235.625" y="142.0508"/><ellipse cx="289.25" cy="162.0508" fill="#ADD1B2" rx="13.75" ry="13.75" style="stroke: #A80036; stroke-width: 1.25;"/><path d="M291.75,157.6758 Q292.0039,157.0508 292.2969,156.7383 Q292.5898,156.4258 292.9219,156.4258 Q293.5078,156.4258 293.8789,156.7773 Q294.25,157.1289 294.25,157.9492 L294.25,159.9023 Q294.25,160.7227 293.8984,161.0742 Q293.5469,161.4258 293,161.4258 Q292.5117,161.4258 292.1992,161.2109 Q291.8867,160.9961 291.75,160.4297 Q291.6914,160.0391 291.4766,159.8242 Q291.0859,159.4141 290.3828,159.1797 Q289.6797,158.9258 288.9766,158.9258 Q288.0977,158.9258 287.3555,159.2773 Q286.6328,159.6289 286.0664,160.4102 Q285.5,161.1914 285.5,162.2656 L285.5,163.418 Q285.5,164.707 286.5547,165.5664 Q287.6094,166.4258 289.4844,166.4258 Q290.5977,166.4258 291.3789,166.1719 Q291.8281,166.0352 292.3359,165.5859 Q292.668,165.332 292.8438,165.2539 Q293.0195,165.1758 293.2344,165.1758 Q293.6445,165.1758 293.9375,165.5078 Q294.25,165.8203 294.25,166.2695 Q294.25,166.6992 293.8203,167.207 Q293.1953,167.9492 292.1992,168.3594 Q290.8906,168.9258 289.2891,168.9258 Q287.4141,168.9258 285.9102,168.1836 Q284.6992,167.5977 283.8398,166.3281 Q283,165.0586 283,163.5547 L283,162.1875 Q283,160.625 283.7422,159.2578 Q284.5039,157.8906 285.8125,157.168 Q287.1406,156.4258 288.625,156.4258 Q289.5234,156.4258 290.3047,156.7383 Q291.0859,157.0508 291.75,157.6758 Z "/><text fill="#000000" font-family="sans-serif" font-size="15" lengthAdjust="spacingAndGlyphs" textLength="132.5" x="314.5" y="168.1885">BusinessCompany</text><line style="stroke: #A80036; stroke-width: 1.875;" x1="236.875" x2="484.375" y1="182.0508" y2="182.0508"/><rect fill="none" height="7.5" style="stroke: #C82930; stroke-width: 1.25;" width="7.5" x="245.625" y="192.0508"/><text fill="#000000" font-family="sans-serif" font-size="13.75" lengthAdjust="spacingAndGlyphs" textLength="217.5" x="260.625" y="201.3245">workplaces : ArrayList&lt;Workplace&gt;</text><rect fill="none" height="7.5" style="stroke: #C82930; stroke-width: 1.25;" width="7.5" x="245.625" y="209.3457"/><text fill="#000000" font-family="sans-serif" font-size="13.75" lengthAdjust="spacingAndGlyphs" textLength="205" x="260.625" y="218.6194">employees : ArrayList&lt;Employee&gt;</text><line style="stroke: #A80036; stroke-width: 1.875;" x1="236.875" x2="484.375" y1="226.6406" y2="226.6406"/><ellipse cx="249.375" cy="240.3906" fill="#84BE84" rx="3.75" ry="3.75" style="stroke: #038048; stroke-width: 1.25;"/><text fill="#000000" font-family="sans-serif" font-size="13.75" lengthAdjust="spacingAndGlyphs" textLength="141.25" x="260.625" y="245.9143">void checkFiscalCode()</text><!--MD5=[928daa50bf6894630c304b415da2d1cb]
class Workplace--><rect fill="#FEFECE" filter="url(#f17fy3a0ye0e74)" height="94.5898" id="Workplace" style="stroke: #A80036; stroke-width: 1.875;" width="128.75" x="7.5" y="423.9258"/><ellipse cx="33.5625" cy="443.9258" fill="#ADD1B2" rx="13.75" ry="13.75" style="stroke: #A80036; stroke-width: 1.25;"/><path d="M36.0625,439.5508 Q36.3164,438.9258 36.6094,438.6133 Q36.9023,438.3008 37.2344,438.3008 Q37.8203,438.3008 38.1914,438.6523 Q38.5625,439.0039 38.5625,439.8242 L38.5625,441.7773 Q38.5625,442.5977 38.2109,442.9492 Q37.8594,443.3008 37.3125,443.3008 Q36.8242,443.3008 36.5117,443.0859 Q36.1992,442.8711 36.0625,442.3047 Q36.0039,441.9141 35.7891,441.6992 Q35.3984,441.2891 34.6953,441.0547 Q33.9922,440.8008 33.2891,440.8008 Q32.4102,440.8008 31.668,441.1523 Q30.9453,441.5039 30.3789,442.2852 Q29.8125,443.0664 29.8125,444.1406 L29.8125,445.293 Q29.8125,446.582 30.8672,447.4414 Q31.9219,448.3008 33.7969,448.3008 Q34.9102,448.3008 35.6914,448.0469 Q36.1406,447.9102 36.6484,447.4609 Q36.9805,447.207 37.1563,447.1289 Q37.332,447.0508 37.5469,447.0508 Q37.957,447.0508 38.25,447.3828 Q38.5625,447.6953 38.5625,448.1445 Q38.5625,448.5742 38.1328,449.082 Q37.5078,449.8242 36.5117,450.2344 Q35.2031,450.8008 33.6016,450.8008 Q31.7266,450.8008 30.2227,450.0586 Q29.0117,449.4727 28.1523,448.2031 Q27.3125,446.9336 27.3125,445.4297 L27.3125,444.0625 Q27.3125,442.5 28.0547,441.1328 Q28.8164,439.7656 30.125,439.043 Q31.4531,438.3008 32.9375,438.3008 Q33.8359,438.3008 34.6172,438.6133 Q35.3984,438.9258 36.0625,439.5508 Z "/><text fill="#000000" font-family="sans-serif" font-size="15" lengthAdjust="spacingAndGlyphs" textLength="72.5" x="52.6875" y="450.0635">Workplace</text><line style="stroke: #A80036; stroke-width: 1.875;" x1="8.75" x2="135" y1="463.9258" y2="463.9258"/><rect fill="none" height="7.5" style="stroke: #C82930; stroke-width: 1.25;" width="7.5" x="17.5" y="473.9258"/><text fill="#000000" font-family="sans-serif" font-size="13.75" lengthAdjust="spacingAndGlyphs" textLength="78.75" x="32.5" y="483.1995">name : String</text><rect fill="none" height="7.5" style="stroke: #C82930; stroke-width: 1.25;" width="7.5" x="17.5" y="491.2207"/><text fill="#000000" font-family="sans-serif" font-size="13.75" lengthAdjust="spacingAndGlyphs" textLength="96.25" x="32.5" y="500.4944">address : String</text><line style="stroke: #A80036; stroke-width: 1.875;" x1="8.75" x2="135" y1="508.5156" y2="508.5156"/><!--MD5=[7421f545a0d8420c5bec41e74b387d9c]
class Employee--><rect fill="#FEFECE" filter="url(#f17fy3a0ye0e74)" height="193.3594" id="Employee" style="stroke: #A80036; stroke-width: 1.875;" width="171.25" x="180" y="374.5508"/><ellipse cx="226.875" cy="394.5508" fill="#ADD1B2" rx="13.75" ry="13.75" style="stroke: #A80036; stroke-width: 1.25;"/><path d="M229.375,390.1758 Q229.6289,389.5508 229.9219,389.2383 Q230.2148,388.9258 230.5469,388.9258 Q231.1328,388.9258 231.5039,389.2773 Q231.875,389.6289 231.875,390.4492 L231.875,392.4023 Q231.875,393.2227 231.5234,393.5742 Q231.1719,393.9258 230.625,393.9258 Q230.1367,393.9258 229.8242,393.7109 Q229.5117,393.4961 229.375,392.9297 Q229.3164,392.5391 229.1016,392.3242 Q228.7109,391.9141 228.0078,391.6797 Q227.3047,391.4258 226.6016,391.4258 Q225.7227,391.4258 224.9805,391.7773 Q224.2578,392.1289 223.6914,392.9102 Q223.125,393.6914 223.125,394.7656 L223.125,395.918 Q223.125,397.207 224.1797,398.0664 Q225.2344,398.9258 227.1094,398.9258 Q228.2227,398.9258 229.0039,398.6719 Q229.4531,398.5352 229.9609,398.0859 Q230.293,397.832 230.4688,397.7539 Q230.6445,397.6758 230.8594,397.6758 Q231.2695,397.6758 231.5625,398.0078 Q231.875,398.3203 231.875,398.7695 Q231.875,399.1992 231.4453,399.707 Q230.8203,400.4492 229.8242,400.8594 Q228.5156,401.4258 226.9141,401.4258 Q225.0391,401.4258 223.5352,400.6836 Q222.3242,400.0977 221.4648,398.8281 Q220.625,397.5586 220.625,396.0547 L220.625,394.6875 Q220.625,393.125 221.3672,391.7578 Q222.1289,390.3906 223.4375,389.668 Q224.7656,388.9258 226.25,388.9258 Q227.1484,388.9258 227.9297,389.2383 Q228.7109,389.5508 229.375,390.1758 Z "/><text fill="#000000" font-family="sans-serif" font-size="15" lengthAdjust="spacingAndGlyphs" textLength="68.75" x="250.625" y="400.6885">Employee</text><line style="stroke: #A80036; stroke-width: 1.875;" x1="181.25" x2="350" y1="414.5508" y2="414.5508"/><rect fill="none" height="7.5" style="stroke: #C82930; stroke-width: 1.25;" width="7.5" x="190" y="446.8457"/><text fill="#000000" font-family="sans-serif" font-size="13.75" lengthAdjust="spacingAndGlyphs" textLength="78.75" x="205" y="456.1194">name : String</text><rect fill="none" height="7.5" style="stroke: #C82930; stroke-width: 1.25;" width="7.5" x="190" y="464.1406"/><text fill="#000000" font-family="sans-serif" font-size="13.75" lengthAdjust="spacingAndGlyphs" textLength="98.75" x="205" y="473.4143">surname : String</text><rect fill="none" height="7.5" style="stroke: #C82930; stroke-width: 1.25;" width="7.5" x="190" y="481.4355"/><text fill="#000000" font-family="sans-serif" font-size="13.75" lengthAdjust="spacingAndGlyphs" textLength="110" x="205" y="490.7092">fiscalCode : String</text><rect fill="none" height="7.5" style="stroke: #C82930; stroke-width: 1.25;" width="7.5" x="190" y="498.7305"/><text fill="#000000" font-family="sans-serif" font-size="13.75" lengthAdjust="spacingAndGlyphs" textLength="138.75" x="205" y="508.0042">workplace : Workplace</text><rect fill="none" height="7.5" style="stroke: #C82930; stroke-width: 1.25;" width="7.5" x="190" y="516.0254"/><text fill="#000000" font-family="sans-serif" font-size="13.75" lengthAdjust="spacingAndGlyphs" textLength="96.25" x="205" y="525.2991">mansion : String</text><rect fill="none" height="7.5" style="stroke: #C82930; stroke-width: 1.25;" width="7.5" x="190" y="533.3203"/><text fill="#000000" font-family="sans-serif" font-size="13.75" lengthAdjust="spacingAndGlyphs" textLength="111.25" x="205" y="542.594">startActivity : Date</text><rect fill="none" height="7.5" style="stroke: #C82930; stroke-width: 1.25;" width="7.5" x="190" y="550.6152"/><text fill="#000000" font-family="sans-serif" font-size="13.75" lengthAdjust="spacingAndGlyphs" textLength="106.25" x="205" y="559.8889">endActivity : Date</text><line style="stroke: #A80036; stroke-width: 1.875;" x1="181.25" x2="230" y1="433.1982" y2="433.1982"/><text fill="#000000" font-family="sans-serif" font-size="13.75" lengthAdjust="spacingAndGlyphs" textLength="71.25" x="230" y="438.1995">private data</text><line style="stroke: #A80036; stroke-width: 1.875;" x1="301.25" x2="350" y1="433.1982" y2="433.1982"/><!--MD5=[4f58a9e2478bd504c38776ca2695016d]
class Official--><rect fill="#FEFECE" filter="url(#f17fy3a0ye0e74)" height="186.0645" id="Official" style="stroke: #A80036; stroke-width: 1.875;" width="211.25" x="493.75" y="378.3008"/><ellipse cx="570.9375" cy="398.3008" fill="#ADD1B2" rx="13.75" ry="13.75" style="stroke: #A80036; stroke-width: 1.25;"/><path d="M573.4375,393.9258 Q573.6914,393.3008 573.9844,392.9883 Q574.2773,392.6758 574.6094,392.6758 Q575.1953,392.6758 575.5664,393.0273 Q575.9375,393.3789 575.9375,394.1992 L575.9375,396.1523 Q575.9375,396.9727 575.5859,397.3242 Q575.2344,397.6758 574.6875,397.6758 Q574.1992,397.6758 573.8867,397.4609 Q573.5742,397.2461 573.4375,396.6797 Q573.3789,396.2891 573.1641,396.0742 Q572.7734,395.6641 572.0703,395.4297 Q571.3672,395.1758 570.6641,395.1758 Q569.7852,395.1758 569.043,395.5273 Q568.3203,395.8789 567.7539,396.6602 Q567.1875,397.4414 567.1875,398.5156 L567.1875,399.668 Q567.1875,400.957 568.2422,401.8164 Q569.2969,402.6758 571.1719,402.6758 Q572.2852,402.6758 573.0664,402.4219 Q573.5156,402.2852 574.0234,401.8359 Q574.3555,401.582 574.5313,401.5039 Q574.707,401.4258 574.9219,401.4258 Q575.332,401.4258 575.625,401.7578 Q575.9375,402.0703 575.9375,402.5195 Q575.9375,402.9492 575.5078,403.457 Q574.8828,404.1992 573.8867,404.6094 Q572.5781,405.1758 570.9766,405.1758 Q569.1016,405.1758 567.5977,404.4336 Q566.3867,403.8477 565.5273,402.5781 Q564.6875,401.3086 564.6875,399.8047 L564.6875,398.4375 Q564.6875,396.875 565.4297,395.5078 Q566.1914,394.1406 567.5,393.418 Q568.8281,392.6758 570.3125,392.6758 Q571.2109,392.6758 571.9922,392.9883 Q572.7734,393.3008 573.4375,393.9258 Z "/><text fill="#000000" font-family="sans-serif" font-size="15" lengthAdjust="spacingAndGlyphs" textLength="46.25" x="596.5625" y="404.4385">Official</text><line style="stroke: #A80036; stroke-width: 1.875;" x1="495" x2="703.75" y1="418.3008" y2="418.3008"/><rect fill="none" height="7.5" style="stroke: #C82930; stroke-width: 1.25;" width="7.5" x="503.75" y="428.3008"/><text fill="#000000" font-family="sans-serif" font-size="13.75" lengthAdjust="spacingAndGlyphs" textLength="106.25" x="518.75" y="437.5745">username : String</text><rect fill="none" height="7.5" style="stroke: #C82930; stroke-width: 1.25;" width="7.5" x="503.75" y="445.5957"/><text fill="#000000" font-family="sans-serif" font-size="13.75" lengthAdjust="spacingAndGlyphs" textLength="108.75" x="518.75" y="454.8694">password : String</text><rect fill="none" height="7.5" style="stroke: #C82930; stroke-width: 1.25;" width="7.5" x="503.75" y="485.1855"/><text fill="#000000" font-family="sans-serif" font-size="13.75" lengthAdjust="spacingAndGlyphs" textLength="161.25" x="518.75" y="494.4592">hashed_password : String</text><line style="stroke: #A80036; stroke-width: 1.25;" x1="495" x2="576.25" y1="471.5381" y2="471.5381"/><text fill="#000000" font-family="sans-serif" font-size="13.75" lengthAdjust="spacingAndGlyphs" textLength="46.25" x="576.25" y="476.5393">crypted</text><line style="stroke: #A80036; stroke-width: 1.25;" x1="622.5" x2="703.75" y1="471.5381" y2="471.5381"/><line style="stroke: #A80036; stroke-width: 1.875;" x1="495" x2="703.75" y1="502.4805" y2="502.4805"/><ellipse cx="507.5" cy="516.2305" fill="#84BE84" rx="3.75" ry="3.75" style="stroke: #038048; stroke-width: 1.25;"/><text fill="#000000" font-family="sans-serif" font-size="13.75" lengthAdjust="spacingAndGlyphs" textLength="178.75" x="518.75" y="521.7542">void login(BusinessCompany)</text><ellipse cx="507.5" cy="533.5254" fill="#84BE84" rx="3.75" ry="3.75" style="stroke: #038048; stroke-width: 1.25;"/><text fill="#000000" font-family="sans-serif" font-size="13.75" lengthAdjust="spacingAndGlyphs" textLength="176.25" x="518.75" y="539.0491">void addEmployee(Employee)</text><ellipse cx="507.5" cy="550.8203" fill="#84BE84" rx="3.75" ry="3.75" style="stroke: #038048; stroke-width: 1.25;"/><text fill="#000000" font-family="sans-serif" font-size="13.75" lengthAdjust="spacingAndGlyphs" textLength="165" x="518.75" y="556.344">void updateData(Employee)</text><!--MD5=[57adcbfcd00175f9b7abe25398e7de0c]
class Director--><rect fill="#FEFECE" filter="url(#f17fy3a0ye0e74)" height="94.5898" id="Director" style="stroke: #A80036; stroke-width: 1.875;" width="228.75" x="847.5" y="423.9258"/><ellipse cx="929.6875" cy="443.9258" fill="#ADD1B2" rx="13.75" ry="13.75" style="stroke: #A80036; stroke-width: 1.25;"/><path d="M932.1875,439.5508 Q932.4414,438.9258 932.7344,438.6133 Q933.0273,438.3008 933.3594,438.3008 Q933.9453,438.3008 934.3164,438.6523 Q934.6875,439.0039 934.6875,439.8242 L934.6875,441.7773 Q934.6875,442.5977 934.3359,442.9492 Q933.9844,443.3008 933.4375,443.3008 Q932.9492,443.3008 932.6367,443.0859 Q932.3242,442.8711 932.1875,442.3047 Q932.1289,441.9141 931.9141,441.6992 Q931.5234,441.2891 930.8203,441.0547 Q930.1172,440.8008 929.4141,440.8008 Q928.5352,440.8008 927.793,441.1523 Q927.0703,441.5039 926.5039,442.2852 Q925.9375,443.0664 925.9375,444.1406 L925.9375,445.293 Q925.9375,446.582 926.9922,447.4414 Q928.0469,448.3008 929.9219,448.3008 Q931.0352,448.3008 931.8164,448.0469 Q932.2656,447.9102 932.7734,447.4609 Q933.1055,447.207 933.2813,447.1289 Q933.457,447.0508 933.6719,447.0508 Q934.082,447.0508 934.375,447.3828 Q934.6875,447.6953 934.6875,448.1445 Q934.6875,448.5742 934.2578,449.082 Q933.6328,449.8242 932.6367,450.2344 Q931.3281,450.8008 929.7266,450.8008 Q927.8516,450.8008 926.3477,450.0586 Q925.1367,449.4727 924.2773,448.2031 Q923.4375,446.9336 923.4375,445.4297 L923.4375,444.0625 Q923.4375,442.5 924.1797,441.1328 Q924.9414,439.7656 926.25,439.043 Q927.5781,438.3008 929.0625,438.3008 Q929.9609,438.3008 930.7422,438.6133 Q931.5234,438.9258 932.1875,439.5508 Z "/><text fill="#000000" font-family="sans-serif" font-size="15" lengthAdjust="spacingAndGlyphs" textLength="53.75" x="955.3125" y="450.0635">Director</text><line style="stroke: #A80036; stroke-width: 1.875;" x1="848.75" x2="1075" y1="463.9258" y2="463.9258"/><rect fill="none" height="7.5" style="stroke: #C82930; stroke-width: 1.25;" width="7.5" x="857.5" y="473.9258"/><text fill="#000000" font-family="sans-serif" font-size="13.75" lengthAdjust="spacingAndGlyphs" textLength="188.75" x="872.5" y="483.1995">adminPrivilege = false : boolean</text><line style="stroke: #A80036; stroke-width: 1.875;" x1="848.75" x2="1075" y1="491.2207" y2="491.2207"/><ellipse cx="861.25" cy="504.9707" fill="#84BE84" rx="3.75" ry="3.75" style="stroke: #038048; stroke-width: 1.25;"/><text fill="#000000" font-family="sans-serif" font-size="13.75" lengthAdjust="spacingAndGlyphs" textLength="196.25" x="872.5" y="510.4944">void searchEmployee(Employee)</text><!--MD5=[da547346deef918ea16944ba046651ef]
class Administrator--><rect fill="#FEFECE" filter="url(#f17fy3a0ye0e74)" height="77.2949" id="Administrator" style="stroke: #A80036; stroke-width: 1.875;" width="215" x="854.375" y="159.5508"/><ellipse cx="910.9375" cy="179.5508" fill="#ADD1B2" rx="13.75" ry="13.75" style="stroke: #A80036; stroke-width: 1.25;"/><path d="M913.4375,175.1758 Q913.6914,174.5508 913.9844,174.2383 Q914.2773,173.9258 914.6094,173.9258 Q915.1953,173.9258 915.5664,174.2773 Q915.9375,174.6289 915.9375,175.4492 L915.9375,177.4023 Q915.9375,178.2227 915.5859,178.5742 Q915.2344,178.9258 914.6875,178.9258 Q914.1992,178.9258 913.8867,178.7109 Q913.5742,178.4961 913.4375,177.9297 Q913.3789,177.5391 913.1641,177.3242 Q912.7734,176.9141 912.0703,176.6797 Q911.3672,176.4258 910.6641,176.4258 Q909.7852,176.4258 909.043,176.7773 Q908.3203,177.1289 907.7539,177.9102 Q907.1875,178.6914 907.1875,179.7656 L907.1875,180.918 Q907.1875,182.207 908.2422,183.0664 Q909.2969,183.9258 911.1719,183.9258 Q912.2852,183.9258 913.0664,183.6719 Q913.5156,183.5352 914.0234,183.0859 Q914.3555,182.832 914.5313,182.7539 Q914.707,182.6758 914.9219,182.6758 Q915.332,182.6758 915.625,183.0078 Q915.9375,183.3203 915.9375,183.7695 Q915.9375,184.1992 915.5078,184.707 Q914.8828,185.4492 913.8867,185.8594 Q912.5781,186.4258 910.9766,186.4258 Q909.1016,186.4258 907.5977,185.6836 Q906.3867,185.0977 905.5273,183.8281 Q904.6875,182.5586 904.6875,181.0547 L904.6875,179.6875 Q904.6875,178.125 905.4297,176.7578 Q906.1914,175.3906 907.5,174.668 Q908.8281,173.9258 910.3125,173.9258 Q911.2109,173.9258 911.9922,174.2383 Q912.7734,174.5508 913.4375,175.1758 Z "/><text fill="#000000" font-family="sans-serif" font-size="15" lengthAdjust="spacingAndGlyphs" textLength="91.25" x="936.5625" y="185.6885">Administrator</text><line style="stroke: #A80036; stroke-width: 1.875;" x1="855.625" x2="1068.125" y1="199.5508" y2="199.5508"/><rect fill="none" height="7.5" style="stroke: #C82930; stroke-width: 1.25;" width="7.5" x="864.375" y="209.5508"/><text fill="#000000" font-family="sans-serif" font-size="13.75" lengthAdjust="spacingAndGlyphs" textLength="182.5" x="879.375" y="218.8245">adminPrivilege = true : boolean</text><line style="stroke: #A80036; stroke-width: 1.875;" x1="855.625" x2="1068.125" y1="226.8457" y2="226.8457"/><!--MD5=[4e73d36785f4e71ff3c7ac846743c76a]
reverse link SERVER to Workplace--><path d="M181.7193,222.4533 C181.5207,222.9013 181.3196,223.3548 181.1161,223.8137 C180.7092,224.7315 180.2926,225.6709 179.8668,226.6313 C173.0534,241.997 163.8687,262.7106 153.718,285.6027 C133.4166,331.3867 109.2514,385.8845 92.4654,423.7408 " fill="none" id="SERVER&lt;-Workplace" style="stroke: #A80036; stroke-width: 1.25;"/><polygon fill="#FFFFFF" points="181.7193,222.4533,174.1084,227.2827,175.6391,236.1657,183.25,231.3363,181.7193,222.4533" style="stroke: #A80036; stroke-width: 1.25;"/><!--MD5=[5c5ebf7deea6c6475fbd14321a8d96da]
reverse link SERVER to Employee--><path d="M210.569,284.5797 C210.6137,284.7627 210.6584,284.9456 210.7031,285.1286 C210.882,285.8603 211.0614,286.5914 211.2413,287.3216 C212.6801,293.1632 214.1478,298.9484 215.625,304.5508 C221.5988,327.2045 228.5738,351.4295 235.385,374.1645 " fill="none" id="SERVER&lt;-Employee" style="stroke: #A80036; stroke-width: 1.25;"/><polygon fill="#FFFFFF" points="210.569,284.5797,207.49,293.0513,214.1257,299.1519,217.2048,290.6802,210.569,284.5797" style="stroke: #A80036; stroke-width: 1.25;"/><!--MD5=[bb82e93366b06e0dd3165848474ded4d]
link Workplace to Employee--><path d="M136.585,471.4258 C145.6162,471.4258 154.6463,471.4258 163.6775,471.4258 " fill="none" id="Workplace-&gt;Employee" style="stroke: #A80036; stroke-width: 1.25;"/><polygon fill="#A80036" points="179.9338,471.4258,172.4338,466.4258,164.9338,471.4258,172.4338,476.4258,179.9338,471.4258" style="stroke: #A80036; stroke-width: 1.25;"/><!--MD5=[977a160d207f7e67c1f113f5773b4e67]
reverse link Employee to Official--><path d="M376.81,471.4258 C414.4025,471.4258 456.255,471.4258 493.43,471.4258 " fill="none" id="Employee&lt;-Official" style="stroke: #A80036; stroke-width: 1.25;"/><polygon fill="none" points="376.5738,480.1757,351.5738,471.4258,376.5738,462.6757,376.5738,480.1757" style="stroke: #A80036; stroke-width: 1.25;"/><text fill="#000000" font-family="sans-serif" font-size="16.25" lengthAdjust="spacingAndGlyphs" textLength="96.25" x="374.375" y="463.2947">«Inheritance»</text><!--MD5=[badfeb5cd6ab106e0e027c597f91fbc9]
reverse link Official to Director--><path d="M730.4375,471.4258 C768.7037,471.4258 810.21,471.4258 847.3675,471.4258 " fill="none" id="Official&lt;-Director" style="stroke: #A80036; stroke-width: 1.25;"/><polygon fill="none" points="730.2,480.1757,705.2,471.4258,730.2,462.6757,730.2,480.1757" style="stroke: #A80036; stroke-width: 1.25;"/><text fill="#000000" font-family="sans-serif" font-size="16.25" lengthAdjust="spacingAndGlyphs" textLength="96.25" x="728.125" y="463.2947">«Inheritance»</text><!--MD5=[2dfc6d6cc054d1ae89a24644e44326d2]
link Administrator to Director--><path d="M961.875,237.1795 C961.875,278.8308 961.875,346.9208 961.875,398.7658 " fill="none" id="Administrator-&gt;Director" style="stroke: #A80036; stroke-width: 1.25;"/><polygon fill="none" points="970.625,398.807,961.875,423.807,953.125,398.807,970.625,398.807" style="stroke: #A80036; stroke-width: 1.25;"/><text fill="#000000" font-family="sans-serif" font-size="16.25" lengthAdjust="spacingAndGlyphs" textLength="96.25" x="963.125" y="332.6697">«Inheritance»</text><!--MD5=[c75e62860f0caaa68a6d033a0a7ec41b]
@startuml
title Class Diagram

top to bottom direction

package SERVER <<Database>> {
  class BusinessCompany{
    -workplaces : ArrayList<Workplace>
    -employees : ArrayList<Employee>
    +void checkFiscalCode()
  }
}

SERVER o-down- Workplace
SERVER o-down- Employee

class Workplace{
    -name : String
    -address : String
}

class Employee {
    __ private data __
    -name : String
    -surname : String
    -fiscalCode : String
    -workplace : Workplace
    -mansion : String
    -startActivity : Date
    -endActivity : Date
}

Employee *-left- Workplace

class Official {
    -username : String
    -password : String
    - - crypted - -
    -hashed_password : String
    ____
    +void login(BusinessCompany)
    +void addEmployee(Employee)
    +void updateData(Employee)
}

class Director {
    -adminPrivilege = false : boolean
    +void searchEmployee(Employee)
}

Employee <|-right- Official : <<Inheritance>>
Official <|-right- Director : <<Inheritance>>
Director <|-up- Administrator : <<Inheritance>>

class Administrator {
    -adminPrivilege = true : boolean
}
@enduml

PlantUML version 1.2019.10(Fri Sep 13 22:53:03 CEST 2019)
(GPL source distribution)
Java Runtime: OpenJDK Runtime Environment
JVM: OpenJDK 64-Bit Server VM
Java Version: 11.0.4+10-b304.69
Operating System: Windows 10
Default Encoding: Cp1252
Language: it
Country: IT
--></g></svg>