<?xml version="1.0" encoding="UTF-8" standalone="no"?><svg xmlns="http://www.w3.org/2000/svg" xmlns:xlink="http://www.w3.org/1999/xlink" contentScriptType="application/ecmascript" contentStyleType="text/css" height="230.625px" preserveAspectRatio="none" style="width:648px;height:230px;" version="1.1" viewBox="0 0 648 230" width="648.125px" zoomAndPan="magnify"><defs><filter height="300%" id="f1fmrrc85kidke" width="300%" x="-1" y="-1"><feGaussianBlur result="blurOut" stdDeviation="1.25"/><feColorMatrix in="blurOut" result="blurOut2" type="matrix" values="0 0 0 0 0 0 0 0 0 0 0 0 0 0 0 0 0 0 .4 0"/><feOffset dx="2.5" dy="2.5" in="blurOut2" result="blurOut3"/><feBlend in="SourceGraphic" in2="blurOut3" mode="normal"/></filter></defs><g><text fill="#000000" font-family="sans-serif" font-size="11.25" lengthAdjust="spacingAndGlyphs" textLength="94.375" x="284.0625" y="11.6785">Use Case Diagram</text><!--MD5=[dbd2530c023889e0c918a92450a75035]
cluster SERVER--><rect fill="#FFFFFF" filter="url(#f1fmrrc85kidke)" height="122.5" style="stroke: #000000; stroke-width: 0.9375;" width="627.5" x="13.75" y="101.6504"/><text fill="#000000" font-family="sans-serif" font-size="8.75" font-weight="bold" lengthAdjust="spacingAndGlyphs" textLength="35" x="310" y="111.9836">SERVER</text><ellipse cx="366.757" cy="135.1893" fill="#FEFECE" filter="url(#f1fmrrc85kidke)" rx="41.4445" ry="9.7889" style="stroke: #A80036; stroke-width: 0.9375;"/><text fill="#000000" font-family="sans-serif" font-size="8.75" lengthAdjust="spacingAndGlyphs" textLength="56.875" x="338.3195" y="138.5047">Add Employee</text><ellipse cx="69.9" cy="135.1929" fill="#FEFECE" filter="url(#f1fmrrc85kidke)" rx="46.15" ry="10.73" style="stroke: #A80036; stroke-width: 0.9375;"/><text fill="#000000" font-family="sans-serif" font-size="8.75" lengthAdjust="spacingAndGlyphs" textLength="69.375" x="35.2125" y="138.5083">Update Employee</text><ellipse cx="459.4584" cy="135.0577" fill="#FEFECE" filter="url(#f1fmrrc85kidke)" rx="28.8334" ry="9.6573" style="stroke: #A80036; stroke-width: 0.9375;"/><text fill="#000000" font-family="sans-serif" font-size="8.75" lengthAdjust="spacingAndGlyphs" textLength="38.125" x="440.3959" y="138.3731">Research</text><ellipse cx="367.0305" cy="204.4327" fill="#FEFECE" filter="url(#f1fmrrc85kidke)" rx="17.343" ry="9.6573" style="stroke: #A80036; stroke-width: 0.9375;"/><text fill="#000000" font-family="sans-serif" font-size="8.75" lengthAdjust="spacingAndGlyphs" textLength="21.875" x="356.093" y="207.7481">Login</text><ellipse cx="220.5735" cy="135.0776" fill="#FEFECE" filter="url(#f1fmrrc85kidke)" rx="47.136" ry="10.9272" style="stroke: #A80036; stroke-width: 0.9375;"/><text fill="#000000" font-family="sans-serif" font-size="8.75" lengthAdjust="spacingAndGlyphs" textLength="71.875" x="184.636" y="138.393">Check FiscalCode</text><ellipse cx="588.1253" cy="135.1505" fill="#FEFECE" filter="url(#f1fmrrc85kidke)" rx="42.8128" ry="10.0626" style="stroke: #A80036; stroke-width: 0.9375;"/><text fill="#000000" font-family="sans-serif" font-size="8.75" lengthAdjust="spacingAndGlyphs" textLength="60.625" x="557.8128" y="138.4659">Check Mansion</text><!--MD5=[62529e7d5259bf274c3bf3e446350d88]
entity Administrator--><ellipse cx="491.25" cy="25.4004" fill="#FEFECE" filter="url(#f1fmrrc85kidke)" rx="5" ry="5" style="stroke: #A80036; stroke-width: 1.25;"/><path d="M491.25,30.4004 L491.25,47.2754 M483.125,35.4004 L499.375,35.4004 M491.25,47.2754 L483.125,56.6504 M491.25,47.2754 L499.375,56.6504 " fill="none" filter="url(#f1fmrrc85kidke)" style="stroke: #A80036; stroke-width: 1.25;"/><text fill="#000000" font-family="sans-serif" font-size="8.75" lengthAdjust="spacingAndGlyphs" textLength="51.875" x="465.3125" y="70.1086">Administrator</text><!--MD5=[a9b4861afe04d13ad31015f524545770]
entity Official--><ellipse cx="184.375" cy="25.4004" fill="#FEFECE" filter="url(#f1fmrrc85kidke)" rx="5" ry="5" style="stroke: #A80036; stroke-width: 1.25;"/><path d="M184.375,30.4004 L184.375,47.2754 M176.25,35.4004 L192.5,35.4004 M184.375,47.2754 L176.25,56.6504 M184.375,47.2754 L192.5,56.6504 " fill="none" filter="url(#f1fmrrc85kidke)" style="stroke: #A80036; stroke-width: 1.25;"/><text fill="#000000" font-family="sans-serif" font-size="8.75" lengthAdjust="spacingAndGlyphs" textLength="26.875" x="170.9375" y="70.1086">Official</text><!--MD5=[3a4e06195bfd3e65563855131230b9db]
entity Director--><ellipse cx="427.5" cy="25.4004" fill="#FEFECE" filter="url(#f1fmrrc85kidke)" rx="5" ry="5" style="stroke: #A80036; stroke-width: 1.25;"/><path d="M427.5,30.4004 L427.5,47.2754 M419.375,35.4004 L435.625,35.4004 M427.5,47.2754 L419.375,56.6504 M427.5,47.2754 L435.625,56.6504 " fill="none" filter="url(#f1fmrrc85kidke)" style="stroke: #A80036; stroke-width: 1.25;"/><text fill="#000000" font-family="sans-serif" font-size="8.75" lengthAdjust="spacingAndGlyphs" textLength="31.25" x="411.875" y="70.1086">Director</text><!--MD5=[a1d4d328e46a121d170e16ae0bfedfee]
link Official to Add Employee--><path d="M198.0919,52.9616 C230.8356,68.7729 313.5144,108.6966 349.5913,126.1173 " fill="none" id="Official-Add Employee" style="stroke: #A80036; stroke-width: 0.625;"/><!--MD5=[2f453dcc91f5490e0076602f915d80df]
link Official to Update Employee--><path d="M170.8056,56.7929 C148.4381,74.0273 104.1525,108.1485 82.5038,124.8285 " fill="none" id="Official-Update Employee" style="stroke: #A80036; stroke-width: 0.625;"/><!--MD5=[c1d6d860906b790fcf7b7a610029add4]
link Director to Research--><path d="M436.8912,72.3016 C443.355,90.1729 451.5581,112.8523 456.0538,125.2816 " fill="none" id="Director-Research" style="stroke: #A80036; stroke-width: 0.625;"/><!--MD5=[10b293f61d1ab4aa0f7be35f1dae1d31]
link Administrator to Research--><path d="M481.8588,72.3016 C475.395,90.1729 467.1919,112.8523 462.6962,125.2816 " fill="none" id="Administrator-Research" style="stroke: #A80036; stroke-width: 0.625;"/><!--MD5=[fbefb29cfe9c50f076d47e9625d7fd2b]
link Add Employee to Login--><path d="M366.875,144.9004 C366.875,156.8866 366.875,177.909 366.875,191.3378 " fill="none" id="Add Employee-&gt;Login" style="stroke: #A80036; stroke-width: 0.625; stroke-dasharray: 7.0,7.0;"/><polygon fill="#A80036" points="366.875,194.5783,369.375,188.9533,366.875,191.4533,364.375,188.9533,366.875,194.5783" style="stroke: #A80036; stroke-width: 0.625;"/><text fill="#000000" font-family="sans-serif" font-size="8.125" lengthAdjust="spacingAndGlyphs" textLength="34.375" x="367.5" y="173.8348">«include»</text><!--MD5=[e8d52f98185477993a658f5a4d005903]
reverse link Check FiscalCode to Add Employee--><path d="M271.1731,135.0879 C288.7956,135.0879 308.3575,135.0879 325.1794,135.0879 " fill="none" id="Check FiscalCode&lt;-Add Employee" style="stroke: #A80036; stroke-width: 0.625; stroke-dasharray: 7.0,7.0;"/><polygon fill="#A80036" points="267.9063,135.0879,273.5313,137.5879,271.0313,135.0879,273.5313,132.5879,267.9063,135.0879" style="stroke: #A80036; stroke-width: 0.625;"/><text fill="#000000" font-family="sans-serif" font-size="8.125" lengthAdjust="spacingAndGlyphs" textLength="34.375" x="279.375" y="131.0223">«include»</text><!--MD5=[db9b0c5ba7cb6abd8daf4bb6ee5bcdce]
link Update Employee to Login--><path d="M101.49,142.9391 C163.2569,157.1129 298.5975,188.17 348.1875,199.5496 " fill="none" id="Update Employee-&gt;Login" style="stroke: #A80036; stroke-width: 0.625; stroke-dasharray: 7.0,7.0;"/><polygon fill="#A80036" points="351.3281,200.2703,346.405,196.5752,348.2823,199.5712,345.2864,201.4485,351.3281,200.2703" style="stroke: #A80036; stroke-width: 0.625;"/><text fill="#000000" font-family="sans-serif" font-size="8.125" lengthAdjust="spacingAndGlyphs" textLength="34.375" x="245.625" y="173.8348">«include»</text><!--MD5=[c39c34e6838b576858a80565fde2ad83]
link Update Employee to Check FiscalCode--><path d="M116.4213,135.0879 C133.4287,135.0879 152.7531,135.0879 170.1019,135.0879 " fill="none" id="Update Employee-&gt;Check FiscalCode" style="stroke: #A80036; stroke-width: 0.625; stroke-dasharray: 7.0,7.0;"/><polygon fill="#A80036" points="173.3175,135.0879,167.6925,132.5879,170.1925,135.0879,167.6925,137.5879,173.3175,135.0879" style="stroke: #A80036; stroke-width: 0.625;"/><text fill="#000000" font-family="sans-serif" font-size="8.125" lengthAdjust="spacingAndGlyphs" textLength="34.375" x="127.6563" y="131.0223">«include»</text><!--MD5=[3e140ccb39bb3f772a887e16fbb50f7c]
link Research to Login--><path d="M448.7888,144.2423 C438.405,152.5354 422.0563,165.4016 407.5,176.0254 C398.5056,182.5898 388.145,189.6756 380.1381,195.0521 " fill="none" id="Research-&gt;Login" style="stroke: #A80036; stroke-width: 0.625; stroke-dasharray: 7.0,7.0;"/><polygon fill="#A80036" points="377.5181,196.8067,383.5828,195.7532,380.1144,195.0675,380.8001,191.5991,377.5181,196.8067" style="stroke: #A80036; stroke-width: 0.625;"/><text fill="#000000" font-family="sans-serif" font-size="8.125" lengthAdjust="spacingAndGlyphs" textLength="34.375" x="422.5" y="173.8348">«include»</text><!--MD5=[49a7baef1db2cef46995e0f0fc0bab55]
link Research to Check Mansion--><path d="M488.2688,135.0879 C504.0431,135.0879 523.95,135.0879 541.8319,135.0879 " fill="none" id="Research-&gt;Check Mansion" style="stroke: #A80036; stroke-width: 0.625; stroke-dasharray: 7.0,7.0;"/><polygon fill="#A80036" points="545.1456,135.0879,539.5206,132.5879,542.0206,135.0879,539.5206,137.5879,545.1456,135.0879" style="stroke: #A80036; stroke-width: 0.625;"/><text fill="#000000" font-family="sans-serif" font-size="8.125" lengthAdjust="spacingAndGlyphs" textLength="34.375" x="499.5313" y="131.0223">«include»</text><!--MD5=[773e7551af4ca25e1468844eba9829fc]
@startuml
title Use Case Diagram

top to bottom direction

actor Administrator
actor Official
actor Director


rectangle  SERVER {
    Official - - (Add Employee)
    Official - - (Update Employee)
    Director - - (Research)
    Administrator - - (Research)
    (Add Employee) ..> (Login) : <<include>>
    (Add Employee) .left.> (Check FiscalCode) : <<include>>
    (Update Employee) ..> (Login) : <<include>>
    (Update Employee) .right.> (Check FiscalCode) : <<include>>
    (Research) ..> (Login) : <<include>>
    (Research) .> (Check Mansion) : <<include>>
}
@enduml

PlantUML version 1.2019.11(Sun Sep 22 12:02:15 CEST 2019)
(GPL source distribution)
Java Runtime: OpenJDK Runtime Environment
JVM: OpenJDK 64-Bit Server VM
Java Version: 11.0.4+10-b304.77
Operating System: Windows 10
Default Encoding: Cp1252
Language: it
Country: IT
--></g></svg>