<?xml version="1.0" encoding="UTF-8" standalone="no"?><svg xmlns="http://www.w3.org/2000/svg" xmlns:xlink="http://www.w3.org/1999/xlink" contentScriptType="application/ecmascript" contentStyleType="text/css" height="372.5px" preserveAspectRatio="none" style="width:1242px;height:372px;" version="1.1" viewBox="0 0 1242 372" width="1242.5px" zoomAndPan="magnify"><defs><filter height="300%" id="fbymfe4xbjkc1" width="300%" x="-1" y="-1"><feGaussianBlur result="blurOut" stdDeviation="2.5"/><feColorMatrix in="blurOut" result="blurOut2" type="matrix" values="0 0 0 0 0 0 0 0 0 0 0 0 0 0 0 0 0 0 .4 0"/><feOffset dx="5.0" dy="5.0" in="blurOut2" result="blurOut3"/><feBlend in="SourceGraphic" in2="blurOut3" mode="normal"/></filter></defs><g><text fill="#000000" font-family="sans-serif" font-size="22.5" lengthAdjust="spacingAndGlyphs" textLength="188.75" x="554.375" y="23.3569">Use Case Diagram</text><!--MD5=[dbd2530c023889e0c918a92450a75035]
cluster SERVER--><rect fill="#FFFFFF" filter="url(#fbymfe4xbjkc1)" height="283.75" style="stroke: #000000; stroke-width: 1.875;" width="546.25" x="683.125" y="75.8008"/><text fill="#000000" font-family="sans-serif" font-size="17.5" font-weight="bold" lengthAdjust="spacingAndGlyphs" textLength="70" x="921.25" y="96.4673">SERVER</text><ellipse cx="737.8109" cy="223.2404" fill="#FEFECE" filter="url(#fbymfe4xbjkc1)" rx="34.6859" ry="19.3146" style="stroke: #A80036; stroke-width: 1.875;"/><text fill="#000000" font-family="sans-serif" font-size="17.5" lengthAdjust="spacingAndGlyphs" textLength="43.75" x="715.9359" y="229.8713">Login</text><ellipse cx="1102.264" cy="319.7536" fill="#FEFECE" filter="url(#fbymfe4xbjkc1)" rx="82.889" ry="19.5778" style="stroke: #A80036; stroke-width: 1.875;"/><text fill="#000000" font-family="sans-serif" font-size="17.5" lengthAdjust="spacingAndGlyphs" textLength="113.75" x="1045.389" y="326.3845">Add Employee</text><ellipse cx="1102.2122" cy="231.9932" fill="#FEFECE" filter="url(#fbymfe4xbjkc1)" rx="106.5872" ry="24.3174" style="stroke: #A80036; stroke-width: 1.875;"/><text fill="#000000" font-family="sans-serif" font-size="17.5" lengthAdjust="spacingAndGlyphs" textLength="173.75" x="1015.3372" y="238.6241">Update Personal Data</text><ellipse cx="1102.3001" cy="142.2608" fill="#FEFECE" filter="url(#fbymfe4xbjkc1)" rx="92.3001" ry="21.46" style="stroke: #A80036; stroke-width: 1.875;"/><text fill="#000000" font-family="sans-serif" font-size="17.5" lengthAdjust="spacingAndGlyphs" textLength="138.75" x="1032.9251" y="148.8917">Search Employee</text><!--MD5=[62529e7d5259bf274c3bf3e446350d88]
entity Administrator--><ellipse cx="572.5" cy="62.6758" fill="#FEFECE" filter="url(#fbymfe4xbjkc1)" rx="10" ry="10" style="stroke: #A80036; stroke-width: 2.5;"/><path d="M572.5,72.6758 L572.5,106.4258 M556.25,82.6758 L588.75,82.6758 M572.5,106.4258 L556.25,125.1758 M572.5,106.4258 L588.75,125.1758 " fill="none" filter="url(#fbymfe4xbjkc1)" style="stroke: #A80036; stroke-width: 2.5;"/><text fill="#000000" font-family="sans-serif" font-size="17.5" lengthAdjust="spacingAndGlyphs" textLength="103.75" x="520.625" y="152.0923">Administrator</text><!--MD5=[a9b4861afe04d13ad31015f524545770]
entity Official--><ellipse cx="71.875" cy="223.9258" fill="#FEFECE" filter="url(#fbymfe4xbjkc1)" rx="10" ry="10" style="stroke: #A80036; stroke-width: 2.5;"/><path d="M71.875,233.9258 L71.875,267.6758 M55.625,243.9258 L88.125,243.9258 M71.875,267.6758 L55.625,286.4258 M71.875,267.6758 L88.125,286.4258 " fill="none" filter="url(#fbymfe4xbjkc1)" style="stroke: #A80036; stroke-width: 2.5;"/><text fill="#000000" font-family="sans-serif" font-size="17.5" lengthAdjust="spacingAndGlyphs" textLength="53.75" x="45" y="313.3423">Official</text><!--MD5=[cade383c679c4100475c230cbe0e5423]
entity Employee--><ellipse cx="71.875" cy="51.4258" fill="#FEFECE" filter="url(#fbymfe4xbjkc1)" rx="10" ry="10" style="stroke: #A80036; stroke-width: 2.5;"/><path d="M71.875,61.4258 L71.875,95.1758 M55.625,71.4258 L88.125,71.4258 M71.875,95.1758 L55.625,113.9258 M71.875,95.1758 L88.125,113.9258 " fill="none" filter="url(#fbymfe4xbjkc1)" style="stroke: #A80036; stroke-width: 2.5;"/><text fill="#000000" font-family="sans-serif" font-size="17.5" lengthAdjust="spacingAndGlyphs" textLength="77.5" x="33.125" y="140.8423">Employee</text><!--MD5=[3a4e06195bfd3e65563855131230b9db]
entity Director--><ellipse cx="315.625" cy="151.4258" fill="#FEFECE" filter="url(#fbymfe4xbjkc1)" rx="10" ry="10" style="stroke: #A80036; stroke-width: 2.5;"/><path d="M315.625,161.4258 L315.625,195.1758 M299.375,171.4258 L331.875,171.4258 M315.625,195.1758 L299.375,213.9258 M315.625,195.1758 L331.875,213.9258 " fill="none" filter="url(#fbymfe4xbjkc1)" style="stroke: #A80036; stroke-width: 2.5;"/><text fill="#000000" font-family="sans-serif" font-size="17.5" lengthAdjust="spacingAndGlyphs" textLength="62.5" x="284.375" y="240.8423">Director</text><!--MD5=[1651985848cf11a6c2b3bf64a4eea7a7]
link Employee to Official--><path d="M71.875,145.3358 C71.875,158.2958 71.875,172.4245 71.875,186.277 " fill="none" id="Employee-&gt;Official" style="stroke: #A80036; stroke-width: 1.25;"/><polygon fill="none" points="80.6251,186.387,71.875,211.387,63.1251,186.387,80.6251,186.387" style="stroke: #A80036; stroke-width: 1.25;"/><text fill="#000000" font-family="sans-serif" font-size="16.25" lengthAdjust="spacingAndGlyphs" textLength="96.25" x="8.75" y="185.1697">«inheritance»</text><!--MD5=[8bcfbd0a1c6766778a6559a40b91a748]
link Official to Director--><path d="M98.943,256.792 C137.2421,245.282 209.9875,223.4208 260.28,208.307 " fill="none" id="Official-&gt;Director" style="stroke: #A80036; stroke-width: 1.25;"/><polygon fill="none" points="257.7713,199.9245,284.2325,201.1095,262.8088,216.6845,257.7713,199.9245" style="stroke: #A80036; stroke-width: 1.25;"/><text fill="#000000" font-family="sans-serif" font-size="16.25" lengthAdjust="spacingAndGlyphs" textLength="96.25" x="149.375" y="208.9197">«inheritance»</text><!--MD5=[b8a8fca3ba7d3c2f499e9bf33069e6bf]
link Director to Administrator--><path d="M347.0538,181.522 C383.7275,168.727 446.8925,146.6883 496.8488,129.2595 " fill="none" id="Director-&gt;Administrator" style="stroke: #A80036; stroke-width: 1.25;"/><polygon fill="none" points="494.005,120.9845,520.4925,121.0095,499.77,137.507,494.005,120.9845" style="stroke: #A80036; stroke-width: 1.25;"/><text fill="#000000" font-family="sans-serif" font-size="16.25" lengthAdjust="spacingAndGlyphs" textLength="96.25" x="385.625" y="130.1697">«inheritance»</text><!--MD5=[c6314471a10008f5e01051c7fb7e79d7]
link Official to Login--><path d="M98.8139,264.9528 C138.5791,265.5528 217.4388,266.6548 284.375,267.0508 C312.1525,267.2152 319.1413,268.604 346.875,267.0508 C479.9963,259.5955 637.52,237.9108 704.0463,228.1558 " fill="none" id="Official-Login" style="stroke: #A80036; stroke-width: 1.25;"/><!--MD5=[ef1965259bba081cafedc4da547b745f]
link Director to Login--><path d="M347.035,194.2983 C423.2863,199.9795 623.3463,214.8883 702.915,220.817 " fill="none" id="Director-Login" style="stroke: #A80036; stroke-width: 1.25;"/><!--MD5=[06a7e2334d2a3edbfe67af30c4878ead]
link Administrator to Login--><path d="M624.72,140.9408 C655.4363,163.6233 692.8888,191.2808 715.635,208.077 " fill="none" id="Administrator-Login" style="stroke: #A80036; stroke-width: 1.25;"/><!--MD5=[fc12367a22869c2e87b37b9ec72b4dc8]
reverse link Login to Add Employee--><path d="M767.0913,240.7708 C779.66,247.8733 794.865,255.6129 809.375,260.8008 C881.4087,286.5557 967.7063,302.1674 1027.7,310.756 " fill="none" id="Login&lt;-Add Employee" style="stroke: #A80036; stroke-width: 1.25; stroke-dasharray: 7.0,7.0;"/><polygon fill="#A80036" points="761.5138,237.5645,768.7754,247.5059,766.9323,240.6792,773.759,238.8361,761.5138,237.5645" style="stroke: #A80036; stroke-width: 1.25;"/><text fill="#000000" font-family="sans-serif" font-size="16.25" lengthAdjust="spacingAndGlyphs" textLength="138.75" x="814.375" y="256.4197">«extends» (Official)</text><!--MD5=[7fde4b0874d4e3af3e153f33175bbb69]
reverse link Login to Update Personal Data--><path d="M778.31,224.2558 C830.2125,225.5083 923.2588,227.7545 996.1875,229.5145 " fill="none" id="Login&lt;-Update Personal Data" style="stroke: #A80036; stroke-width: 1.25; stroke-dasharray: 7.0,7.0;"/><polygon fill="#A80036" points="771.88,224.1008,783.0068,229.3693,778.1282,224.2508,783.2468,219.3722,771.88,224.1008" style="stroke: #A80036; stroke-width: 1.25;"/><text fill="#000000" font-family="sans-serif" font-size="16.25" lengthAdjust="spacingAndGlyphs" textLength="138.75" x="814.375" y="220.1697">«extends» (Official)</text><!--MD5=[0f72ccf49df071eb478472e1f94d6398]
reverse link Login to Search Employee--><path d="M771.1925,209.1845 C783.0413,204.4258 796.6563,199.4133 809.375,195.8008 C880.005,175.742 962.4413,161.3595 1021.655,152.5495 " fill="none" id="Login&lt;-Search Employee" style="stroke: #A80036; stroke-width: 1.25; stroke-dasharray: 7.0,7.0;"/><polygon fill="#A80036" points="765.1712,211.6408,777.4764,212.0215,770.9583,209.2802,773.6996,202.7621,765.1712,211.6408" style="stroke: #A80036; stroke-width: 1.25;"/><text fill="#000000" font-family="sans-serif" font-size="16.25" lengthAdjust="spacingAndGlyphs" textLength="146.25" x="810.625" y="158.9197">«extends» (Director)</text><!--MD5=[2e866aae9fbc1be0ec912f5dc702a6d0]
@startuml
title Use Case Diagram

left to right direction

actor Administrator
actor Official
actor Employee
actor Director

Employee -right-|> (Official) : <<inheritance>>
Official -down-|> (Director) : <<inheritance>>
Director -down-|> (Administrator) : <<inheritance>>

rectangle  SERVER {
    Official - - (Login)
    Director - - (Login)
    Administrator - - (Login)
    (Login) <.. (Add Employee) : <<extends>> (Official)
    (Login) <.. (Update Personal Data) : <<extends>> (Official)
    (Login) <.. (Search Employee) : <<extends>> (Director)
}
@enduml

PlantUML version 1.2019.10(Fri Sep 13 22:53:03 CEST 2019)
(GPL source distribution)
Java Runtime: OpenJDK Runtime Environment
JVM: OpenJDK 64-Bit Server VM
Java Version: 11.0.4+10-b304.69
Operating System: Windows 10
Default Encoding: Cp1252
Language: it
Country: IT
--></g></svg>