<?xml version="1.0" encoding="UTF-8" standalone="no"?><svg xmlns="http://www.w3.org/2000/svg" xmlns:xlink="http://www.w3.org/1999/xlink" contentScriptType="application/ecmascript" contentStyleType="text/css" height="612.5px" preserveAspectRatio="none" style="width:802px;height:612px;" version="1.1" viewBox="0 0 802 612" width="802.5px" zoomAndPan="magnify"><defs><filter height="300%" id="f1ado9i4lrvml3" width="300%" x="-1" y="-1"><feGaussianBlur result="blurOut" stdDeviation="2.5"/><feColorMatrix in="blurOut" result="blurOut2" type="matrix" values="0 0 0 0 0 0 0 0 0 0 0 0 0 0 0 0 0 0 .4 0"/><feOffset dx="5.0" dy="5.0" in="blurOut2" result="blurOut3"/><feBlend in="SourceGraphic" in2="blurOut3" mode="normal"/></filter></defs><g><text fill="#000000" font-family="sans-serif" font-size="22.5" lengthAdjust="spacingAndGlyphs" textLength="188.75" x="321.25" y="23.3569">Use Case Diagram</text><!--MD5=[dbd2530c023889e0c918a92450a75035]
cluster SERVER--><rect fill="#FFFFFF" filter="url(#f1ado9i4lrvml3)" height="396.25" style="stroke: #000000; stroke-width: 1.875;" width="761.25" x="27.5" y="203.3008"/><text fill="#000000" font-family="sans-serif" font-size="17.5" font-weight="bold" lengthAdjust="spacingAndGlyphs" textLength="70" x="373.125" y="223.9673">SERVER</text><ellipse cx="412.6312" cy="273.577" fill="#FEFECE" filter="url(#f1ado9i4lrvml3)" rx="111.3812" ry="25.2762" style="stroke: #A80036; stroke-width: 1.875;"/><text fill="#000000" font-family="sans-serif" font-size="17.5" lengthAdjust="spacingAndGlyphs" textLength="185" x="320.1312" y="280.2079">Employee Management</text><ellipse cx="191.0501" cy="417.2608" fill="#FEFECE" filter="url(#f1ado9i4lrvml3)" rx="92.3001" ry="21.46" style="stroke: #A80036; stroke-width: 1.875;"/><text fill="#000000" font-family="sans-serif" font-size="17.5" lengthAdjust="spacingAndGlyphs" textLength="138.75" x="121.6751" y="423.8917">Update Employee</text><ellipse cx="411.014" cy="417.2536" fill="#FEFECE" filter="url(#f1ado9i4lrvml3)" rx="82.889" ry="19.5778" style="stroke: #A80036; stroke-width: 1.875;"/><text fill="#000000" font-family="sans-serif" font-size="17.5" lengthAdjust="spacingAndGlyphs" textLength="113.75" x="354.139" y="423.8845">Add Employee</text><ellipse cx="596.4169" cy="416.9904" fill="#FEFECE" filter="url(#f1ado9i4lrvml3)" rx="57.6669" ry="19.3146" style="stroke: #A80036; stroke-width: 1.875;"/><text fill="#000000" font-family="sans-serif" font-size="17.5" lengthAdjust="spacingAndGlyphs" textLength="76.25" x="558.2919" y="423.6213">Research</text><ellipse cx="455.3109" cy="557.6154" fill="#FEFECE" filter="url(#f1ado9i4lrvml3)" rx="34.6859" ry="19.3146" style="stroke: #A80036; stroke-width: 1.875;"/><text fill="#000000" font-family="sans-serif" font-size="17.5" lengthAdjust="spacingAndGlyphs" textLength="43.75" x="433.4359" y="564.2463">Login</text><ellipse cx="212.397" cy="557.6552" fill="#FEFECE" filter="url(#f1ado9i4lrvml3)" rx="94.272" ry="21.8544" style="stroke: #A80036; stroke-width: 1.875;"/><text fill="#000000" font-family="sans-serif" font-size="17.5" lengthAdjust="spacingAndGlyphs" textLength="143.75" x="140.522" y="564.286">Check FiscalCode</text><ellipse cx="682.5006" cy="557.8009" fill="#FEFECE" filter="url(#f1ado9i4lrvml3)" rx="85.6256" ry="20.1251" style="stroke: #A80036; stroke-width: 1.875;"/><text fill="#000000" font-family="sans-serif" font-size="17.5" lengthAdjust="spacingAndGlyphs" textLength="121.25" x="621.8756" y="564.4318">Check Mansion</text><!--MD5=[62529e7d5259bf274c3bf3e446350d88]
entity Administrator--><ellipse cx="260" cy="50.8008" fill="#FEFECE" filter="url(#f1ado9i4lrvml3)" rx="10" ry="10" style="stroke: #A80036; stroke-width: 2.5;"/><path d="M260,60.8008 L260,94.5508 M243.75,70.8008 L276.25,70.8008 M260,94.5508 L243.75,113.3008 M260,94.5508 L276.25,113.3008 " fill="none" filter="url(#f1ado9i4lrvml3)" style="stroke: #A80036; stroke-width: 2.5;"/><text fill="#000000" font-family="sans-serif" font-size="17.5" lengthAdjust="spacingAndGlyphs" textLength="103.75" x="208.125" y="140.2173">Administrator</text><!--MD5=[a9b4861afe04d13ad31015f524545770]
entity Official--><ellipse cx="412.5" cy="50.8008" fill="#FEFECE" filter="url(#f1ado9i4lrvml3)" rx="10" ry="10" style="stroke: #A80036; stroke-width: 2.5;"/><path d="M412.5,60.8008 L412.5,94.5508 M396.25,70.8008 L428.75,70.8008 M412.5,94.5508 L396.25,113.3008 M412.5,94.5508 L428.75,113.3008 " fill="none" filter="url(#f1ado9i4lrvml3)" style="stroke: #A80036; stroke-width: 2.5;"/><text fill="#000000" font-family="sans-serif" font-size="17.5" lengthAdjust="spacingAndGlyphs" textLength="53.75" x="385.625" y="140.2173">Official</text><!--MD5=[3a4e06195bfd3e65563855131230b9db]
entity Director--><ellipse cx="540" cy="50.8008" fill="#FEFECE" filter="url(#f1ado9i4lrvml3)" rx="10" ry="10" style="stroke: #A80036; stroke-width: 2.5;"/><path d="M540,60.8008 L540,94.5508 M523.75,70.8008 L556.25,70.8008 M540,94.5508 L523.75,113.3008 M540,94.5508 L556.25,113.3008 " fill="none" filter="url(#f1ado9i4lrvml3)" style="stroke: #A80036; stroke-width: 2.5;"/><text fill="#000000" font-family="sans-serif" font-size="17.5" lengthAdjust="spacingAndGlyphs" textLength="62.5" x="508.75" y="140.2173">Director</text><!--MD5=[3d8629a0ab83e5ac933fc2edecb1f452]
link Administrator to Employee Management--><path d="M304.1088,144.5583 C333.3138,178.9108 370.2188,222.3195 392.5588,248.5945 " fill="none" id="Administrator-Employee Management" style="stroke: #A80036; stroke-width: 1.25;"/><!--MD5=[bfb4460f271ab81d54bcfc516ba8a9e6]
link Director to Employee Management--><path d="M508.4838,137.0158 C483.41,172.2895 449.3113,220.2633 429.23,248.5145 " fill="none" id="Director-Employee Management" style="stroke: #A80036; stroke-width: 1.25;"/><!--MD5=[a5859712f309855aa70cf069da44e651]
link Official to Employee Management--><path d="M412.5,144.5583 C412.5,178.7033 412.5,221.7958 412.5,248.1183 " fill="none" id="Official-Employee Management" style="stroke: #A80036; stroke-width: 1.25;"/><!--MD5=[7d81b5be36782bcdd248bd6033b6068f]
link Employee Management to Update Employee--><path d="M376.9525,297.2445 C335.5687,323.6658 267.6438,367.0295 226.4213,393.347 " fill="none" id="Employee Management-&gt;Update Employee" style="stroke: #A80036; stroke-width: 1.25;"/><polygon fill="#A80036" points="221.035,396.7858,233.208,394.9474,226.3032,393.423,227.8276,386.5182,221.035,396.7858" style="stroke: #A80036; stroke-width: 1.25;"/><text fill="#000000" font-family="sans-serif" font-size="16.25" lengthAdjust="spacingAndGlyphs" textLength="68.75" x="317.5" y="353.9197">«include»</text><!--MD5=[380444efa7dfeb99978d8236fc67eebc]
link Employee Management to Add Employee--><path d="M412.2875,298.512 C412.0588,324.3433 411.6975,365.2495 411.4675,391.292 " fill="none" id="Employee Management-&gt;Add Employee" style="stroke: #A80036; stroke-width: 1.25;"/><polygon fill="#A80036" points="411.4113,397.5745,416.5107,386.3693,411.4666,391.3248,406.5111,386.2807,411.4113,397.5745" style="stroke: #A80036; stroke-width: 1.25;"/><text fill="#000000" font-family="sans-serif" font-size="16.25" lengthAdjust="spacingAndGlyphs" textLength="68.75" x="413.75" y="353.9197">«include»</text><!--MD5=[c1d6d860906b790fcf7b7a610029add4]
link Director to Research--><path d="M549.0375,144.5908 C561.8638,218.2695 584.7175,349.552 593.0763,397.5658 " fill="none" id="Director-Research" style="stroke: #A80036; stroke-width: 1.25;"/><!--MD5=[10b293f61d1ab4aa0f7be35f1dae1d31]
link Administrator to Research--><path d="M245.0275,144.8183 C231.455,204.2633 220.6287,300.6395 272.5,358.3008 C309.1525,399.0445 462.525,384.977 516.25,395.8008 C528.1788,398.2045 541.0063,401.217 552.82,404.1683 " fill="none" id="Administrator-Research" style="stroke: #A80036; stroke-width: 1.25;"/><!--MD5=[fbefb29cfe9c50f076d47e9625d7fd2b]
link Add Employee to Login--><path d="M417.15,436.9295 C424.9675,461.607 438.7675,505.1765 447.3688,532.3332 " fill="none" id="Add Employee-&gt;Login" style="stroke: #A80036; stroke-width: 1.25; stroke-dasharray: 7.0,7.0;"/><polygon fill="#A80036" points="449.3312,538.5298,450.7011,526.2952,447.4441,532.5715,441.1678,529.3145,449.3312,538.5298" style="stroke: #A80036; stroke-width: 1.25;"/><text fill="#000000" font-family="sans-serif" font-size="16.25" lengthAdjust="spacingAndGlyphs" textLength="68.75" x="437.5" y="493.9197">«include»</text><!--MD5=[be51a4d1db06a51f221dac50141f076d]
link Add Employee to Check FiscalCode--><path d="M386.0788,435.7945 C350.59,460.457 285.7688,505.5059 246.17,533.0259 " fill="none" id="Add Employee-&gt;Check FiscalCode" style="stroke: #A80036; stroke-width: 1.25; stroke-dasharray: 7.0,7.0;"/><polygon fill="#A80036" points="240.9937,536.6232,253.0855,534.3099,246.1264,533.0569,247.3795,526.0977,240.9937,536.6232" style="stroke: #A80036; stroke-width: 1.25;"/><text fill="#000000" font-family="sans-serif" font-size="16.25" lengthAdjust="spacingAndGlyphs" textLength="68.75" x="326.25" y="493.9197">«include»</text><!--MD5=[db9b0c5ba7cb6abd8daf4bb6ee5bcdce]
link Update Employee to Login--><path d="M192.8188,438.3095 C195.3263,456.5183 201.8388,482.8445 218.75,498.3008 C233.37,511.6623 353.3812,536.6454 416.505,549.0487 " fill="none" id="Update Employee-&gt;Login" style="stroke: #A80036; stroke-width: 1.25; stroke-dasharray: 7.0,7.0;"/><polygon fill="#A80036" points="422.8013,550.2812,412.7206,543.2141,416.6675,549.0811,410.8005,553.0281,422.8013,550.2812" style="stroke: #A80036; stroke-width: 1.25;"/><text fill="#000000" font-family="sans-serif" font-size="16.25" lengthAdjust="spacingAndGlyphs" textLength="68.75" x="220" y="493.9197">«include»</text><!--MD5=[c39c34e6838b576858a80565fde2ad83]
link Update Employee to Check FiscalCode--><path d="M139.6463,434.6958 C105.4049,448.522 69.7647,470.4945 87.5,498.3008 C99.8521,517.6668 120.512,530.6817 141.5138,539.3857 " fill="none" id="Update Employee-&gt;Check FiscalCode" style="stroke: #A80036; stroke-width: 1.25; stroke-dasharray: 7.0,7.0;"/><polygon fill="#A80036" points="147.44,541.7279,138.8167,532.9415,141.6279,539.4298,135.1396,542.241,147.44,541.7279" style="stroke: #A80036; stroke-width: 1.25;"/><text fill="#000000" font-family="sans-serif" font-size="16.25" lengthAdjust="spacingAndGlyphs" textLength="68.75" x="88.75" y="493.9197">«include»</text><!--MD5=[3e140ccb39bb3f772a887e16fbb50f7c]
link Research to Login--><path d="M579.5687,435.6845 C563.775,452.0383 539.3013,477.1095 517.5,498.3008 C504.18,511.248 488.9188,525.453 476.81,536.5793 " fill="none" id="Research-&gt;Login" style="stroke: #A80036; stroke-width: 1.25; stroke-dasharray: 7.0,7.0;"/><polygon fill="#A80036" points="472.1675,540.8372,483.838,536.9177,476.7735,536.6126,477.0786,529.5481,472.1675,540.8372" style="stroke: #A80036; stroke-width: 1.25;"/><text fill="#000000" font-family="sans-serif" font-size="16.25" lengthAdjust="spacingAndGlyphs" textLength="68.75" x="541.25" y="493.9197">«include»</text><!--MD5=[49a7baef1db2cef46995e0f0fc0bab55]
link Research to Check Mansion--><path d="M615.0125,435.612 C625.9025,446.3933 639.2938,460.9895 648.75,475.8008 C659.8512,493.1895 668.68,514.8475 674.5188,531.3365 " fill="none" id="Research-&gt;Check Mansion" style="stroke: #A80036; stroke-width: 1.25; stroke-dasharray: 7.0,7.0;"/><polygon fill="#A80036" points="676.685,537.6077,677.7385,525.3417,674.6447,531.7001,668.2863,528.6063,676.685,537.6077" style="stroke: #A80036; stroke-width: 1.25;"/><text fill="#000000" font-family="sans-serif" font-size="16.25" lengthAdjust="spacingAndGlyphs" textLength="68.75" x="661.25" y="493.9197">«include»</text><!--MD5=[410c241fc8204c049b70c2033e0d4786]
@startuml
title Use Case Diagram

top to bottom direction

actor Administrator
actor Official
actor Director


rectangle  SERVER {
    Administrator - - (Employee Management)
    Director - - (Employee Management)
    Official - - (Employee Management)
    (Employee Management) - -> (Update Employee) : <<include>>
    (Employee Management) - -> (Add Employee) : <<include>>
    Director - - (Research)

    Administrator - - (Research)
    (Add Employee) ..> (Login) : <<include>>
    (Add Employee) ..> (Check FiscalCode) : <<include>>
    (Update Employee) ..> (Login) : <<include>>
    (Update Employee) ..> (Check FiscalCode) : <<include>>
    (Research) ..> (Login) : <<include>>
    (Research) ..> (Check Mansion) : <<include>>
}
@enduml

PlantUML version 1.2019.11(Sun Sep 22 12:02:15 CEST 2019)
(GPL source distribution)
Java Runtime: OpenJDK Runtime Environment
JVM: OpenJDK 64-Bit Server VM
Java Version: 11.0.4+10-b304.77
Operating System: Windows 10
Default Encoding: Cp1252
Language: it
Country: IT
--></g></svg>