<?xml version="1.0" encoding="UTF-8" standalone="no"?><svg xmlns="http://www.w3.org/2000/svg" xmlns:xlink="http://www.w3.org/1999/xlink" contentScriptType="application/ecmascript" contentStyleType="text/css" height="781px" preserveAspectRatio="none" style="width:690px;height:781px;" version="1.1" viewBox="0 0 690 781" width="690px" zoomAndPan="magnify"><defs><filter height="300%" id="fqitqeshzeqbj" width="300%" x="-1" y="-1"><feGaussianBlur result="blurOut" stdDeviation="2.0"/><feColorMatrix in="blurOut" result="blurOut2" type="matrix" values="0 0 0 0 0 0 0 0 0 0 0 0 0 0 0 0 0 0 .4 0"/><feOffset dx="4.0" dy="4.0" in="blurOut2" result="blurOut3"/><feBlend in="SourceGraphic" in2="blurOut3" mode="normal"/></filter></defs><g><text fill="#000000" font-family="sans-serif" font-size="18" lengthAdjust="spacingAndGlyphs" textLength="117" x="281" y="18.6855">Class Diagram</text><!--MD5=[815249f79c2c08157ac02b3106e03757]
cluster Database--><path d="M198.5,56.6406 C198.5,46.6406 291.5,46.6406 291.5,46.6406 C291.5,46.6406 384.5,46.6406 384.5,56.6406 L384.5,345.6406 C384.5,355.6406 291.5,355.6406 291.5,355.6406 C291.5,355.6406 198.5,355.6406 198.5,345.6406 L198.5,56.6406 " fill="#FFFFFF" filter="url(#fqitqeshzeqbj)" style="stroke: #000000; stroke-width: 1.5;"/><path d="M198.5,56.6406 C198.5,66.6406 291.5,66.6406 291.5,66.6406 C291.5,66.6406 384.5,66.6406 384.5,56.6406 " fill="none" style="stroke: #000000; stroke-width: 1.5;"/><text fill="#000000" font-family="sans-serif" font-size="14" font-weight="bold" lengthAdjust="spacingAndGlyphs" textLength="65" x="259" y="83.1738">Database</text><!--MD5=[f0ada410d23793807474d2872bfcd402]
class Winehouse--><rect fill="#FEFECE" filter="url(#fqitqeshzeqbj)" height="241.7031" id="Winehouse" style="stroke: #A80036; stroke-width: 1.5;" width="154" x="214.5" y="97.6406"/><ellipse cx="256.05" cy="113.6406" fill="#ADD1B2" rx="11" ry="11" style="stroke: #A80036; stroke-width: 1.0;"/><path d="M258.05,110.1406 Q258.2531,109.6406 258.4875,109.3906 Q258.7219,109.1406 258.9875,109.1406 Q259.4563,109.1406 259.7531,109.4219 Q260.05,109.7031 260.05,110.3594 L260.05,111.9219 Q260.05,112.5781 259.7688,112.8594 Q259.4875,113.1406 259.05,113.1406 Q258.6594,113.1406 258.4094,112.9688 Q258.1594,112.7969 258.05,112.3438 Q258.0031,112.0313 257.8313,111.8594 Q257.5188,111.5313 256.9563,111.3438 Q256.3938,111.1406 255.8313,111.1406 Q255.1281,111.1406 254.5344,111.4219 Q253.9563,111.7031 253.5031,112.3281 Q253.05,112.9531 253.05,113.8125 L253.05,114.7344 Q253.05,115.7656 253.8938,116.4531 Q254.7375,117.1406 256.2375,117.1406 Q257.1281,117.1406 257.7531,116.9375 Q258.1125,116.8281 258.5188,116.4688 Q258.7844,116.2656 258.925,116.2031 Q259.0656,116.1406 259.2375,116.1406 Q259.5656,116.1406 259.8,116.4063 Q260.05,116.6563 260.05,117.0156 Q260.05,117.3594 259.7063,117.7656 Q259.2063,118.3594 258.4094,118.6875 Q257.3625,119.1406 256.0813,119.1406 Q254.5813,119.1406 253.3781,118.5469 Q252.4094,118.0781 251.7219,117.0625 Q251.05,116.0469 251.05,114.8438 L251.05,113.75 Q251.05,112.5 251.6438,111.4063 Q252.2531,110.3125 253.3,109.7344 Q254.3625,109.1406 255.55,109.1406 Q256.2688,109.1406 256.8938,109.3906 Q257.5188,109.6406 258.05,110.1406 Z "/><text fill="#000000" font-family="sans-serif" font-size="12" lengthAdjust="spacingAndGlyphs" textLength="63" x="275.95" y="118.5508">Winehouse</text><line style="stroke: #A80036; stroke-width: 1.5;" x1="215.5" x2="367.5" y1="129.6406" y2="129.6406"/><rect fill="none" height="6" style="stroke: #C82930; stroke-width: 1.0;" width="6" x="222.5" y="137.6406"/><text fill="#000000" font-family="sans-serif" font-size="11" lengthAdjust="spacingAndGlyphs" textLength="125" x="234.5" y="145.0596">bottles : ArrayList&lt;Bottle&gt;</text><rect fill="none" height="6" style="stroke: #C82930; stroke-width: 1.0;" width="6" x="222.5" y="151.4766"/><text fill="#000000" font-family="sans-serif" font-size="11" lengthAdjust="spacingAndGlyphs" textLength="128" x="234.5" y="158.8955">users : ArrayList&lt;Person&gt;</text><rect fill="none" height="6" style="stroke: #C82930; stroke-width: 1.0;" width="6" x="222.5" y="165.3125"/><text fill="#000000" font-family="sans-serif" font-size="11" lengthAdjust="spacingAndGlyphs" textLength="126" x="234.5" y="172.7314">orders : ArrayList&lt;Order&gt;</text><line style="stroke: #A80036; stroke-width: 1.5;" x1="215.5" x2="367.5" y1="179.1484" y2="179.1484"/><ellipse cx="225.5" cy="190.1484" fill="#84BE84" rx="3" ry="3" style="stroke: #038048; stroke-width: 1.0;"/><text fill="#000000" font-family="sans-serif" font-size="11" lengthAdjust="spacingAndGlyphs" textLength="85" x="234.5" y="194.5674">void registration()</text><ellipse cx="225.5" cy="203.9844" fill="#84BE84" rx="3" ry="3" style="stroke: #038048; stroke-width: 1.0;"/><text fill="#000000" font-family="sans-serif" font-size="11" lengthAdjust="spacingAndGlyphs" textLength="76" x="234.5" y="208.4033">void addBottle()</text><ellipse cx="225.5" cy="217.8203" fill="#84BE84" rx="3" ry="3" style="stroke: #038048; stroke-width: 1.0;"/><text fill="#000000" font-family="sans-serif" font-size="11" lengthAdjust="spacingAndGlyphs" textLength="77" x="234.5" y="222.2393">void addOrder()</text><ellipse cx="225.5" cy="231.6563" fill="#84BE84" rx="3" ry="3" style="stroke: #038048; stroke-width: 1.0;"/><text fill="#000000" font-family="sans-serif" font-size="11" lengthAdjust="spacingAndGlyphs" textLength="88" x="234.5" y="236.0752">void deleteOrder()</text><ellipse cx="225.5" cy="245.4922" fill="#84BE84" rx="3" ry="3" style="stroke: #038048; stroke-width: 1.0;"/><text fill="#000000" font-family="sans-serif" font-size="11" lengthAdjust="spacingAndGlyphs" textLength="91" x="234.5" y="249.9111">void updateBottle()</text><ellipse cx="225.5" cy="259.3281" fill="#84BE84" rx="3" ry="3" style="stroke: #038048; stroke-width: 1.0;"/><text fill="#000000" font-family="sans-serif" font-size="11" lengthAdjust="spacingAndGlyphs" textLength="111" x="234.5" y="263.7471">void checkAvailability()</text><ellipse cx="225.5" cy="273.1641" fill="#84BE84" rx="3" ry="3" style="stroke: #038048; stroke-width: 1.0;"/><text fill="#000000" font-family="sans-serif" font-size="11" lengthAdjust="spacingAndGlyphs" textLength="89" x="234.5" y="277.583">void searchWine()</text><ellipse cx="225.5" cy="287" fill="#84BE84" rx="3" ry="3" style="stroke: #038048; stroke-width: 1.0;"/><text fill="#000000" font-family="sans-serif" font-size="11" lengthAdjust="spacingAndGlyphs" textLength="73" x="234.5" y="291.4189">void buyWine()</text><ellipse cx="225.5" cy="300.8359" fill="#84BE84" rx="3" ry="3" style="stroke: #038048; stroke-width: 1.0;"/><text fill="#000000" font-family="sans-serif" font-size="11" lengthAdjust="spacingAndGlyphs" textLength="122" x="234.5" y="305.2549">void outofstockWarning()</text><ellipse cx="225.5" cy="314.6719" fill="#84BE84" rx="3" ry="3" style="stroke: #038048; stroke-width: 1.0;"/><text fill="#000000" font-family="sans-serif" font-size="11" lengthAdjust="spacingAndGlyphs" textLength="108" x="234.5" y="319.0908">void sendNotification()</text><ellipse cx="225.5" cy="328.5078" fill="#84BE84" rx="3" ry="3" style="stroke: #038048; stroke-width: 1.0;"/><text fill="#000000" font-family="sans-serif" font-size="11" lengthAdjust="spacingAndGlyphs" textLength="91" x="234.5" y="332.9268">void cleanOrders()</text><!--MD5=[cf4d6237fcae255cd2e1656cf84a30e2]
class Order--><rect fill="#FEFECE" filter="url(#fqitqeshzeqbj)" height="131.0156" id="Order" style="stroke: #A80036; stroke-width: 1.5;" width="138" x="222.5" y="409.6406"/><ellipse cx="271.75" cy="425.6406" fill="#ADD1B2" rx="11" ry="11" style="stroke: #A80036; stroke-width: 1.0;"/><path d="M273.75,422.1406 Q273.9531,421.6406 274.1875,421.3906 Q274.4219,421.1406 274.6875,421.1406 Q275.1563,421.1406 275.4531,421.4219 Q275.75,421.7031 275.75,422.3594 L275.75,423.9219 Q275.75,424.5781 275.4688,424.8594 Q275.1875,425.1406 274.75,425.1406 Q274.3594,425.1406 274.1094,424.9688 Q273.8594,424.7969 273.75,424.3438 Q273.7031,424.0313 273.5313,423.8594 Q273.2188,423.5313 272.6563,423.3438 Q272.0938,423.1406 271.5313,423.1406 Q270.8281,423.1406 270.2344,423.4219 Q269.6563,423.7031 269.2031,424.3281 Q268.75,424.9531 268.75,425.8125 L268.75,426.7344 Q268.75,427.7656 269.5938,428.4531 Q270.4375,429.1406 271.9375,429.1406 Q272.8281,429.1406 273.4531,428.9375 Q273.8125,428.8281 274.2188,428.4688 Q274.4844,428.2656 274.625,428.2031 Q274.7656,428.1406 274.9375,428.1406 Q275.2656,428.1406 275.5,428.4063 Q275.75,428.6563 275.75,429.0156 Q275.75,429.3594 275.4063,429.7656 Q274.9063,430.3594 274.1094,430.6875 Q273.0625,431.1406 271.7813,431.1406 Q270.2813,431.1406 269.0781,430.5469 Q268.1094,430.0781 267.4219,429.0625 Q266.75,428.0469 266.75,426.8438 L266.75,425.75 Q266.75,424.5 267.3438,423.4063 Q267.9531,422.3125 269,421.7344 Q270.0625,421.1406 271.25,421.1406 Q271.9688,421.1406 272.5938,421.3906 Q273.2188,421.6406 273.75,422.1406 Z "/><text fill="#000000" font-family="sans-serif" font-size="12" lengthAdjust="spacingAndGlyphs" textLength="31" x="292.25" y="430.5508">Order</text><line style="stroke: #A80036; stroke-width: 1.5;" x1="223.5" x2="359.5" y1="441.6406" y2="441.6406"/><rect fill="none" height="6" style="stroke: #C82930; stroke-width: 1.0;" width="6" x="230.5" y="449.6406"/><text fill="#000000" font-family="sans-serif" font-size="11" lengthAdjust="spacingAndGlyphs" textLength="63" x="242.5" y="457.0596">buyer : Client</text><rect fill="none" height="6" style="stroke: #C82930; stroke-width: 1.0;" width="6" x="230.5" y="463.4766"/><text fill="#000000" font-family="sans-serif" font-size="11" lengthAdjust="spacingAndGlyphs" textLength="89" x="242.5" y="470.8955">orderBottle : Bottle</text><rect fill="none" height="6" style="stroke: #C82930; stroke-width: 1.0;" width="6" x="230.5" y="477.3125"/><text fill="#000000" font-family="sans-serif" font-size="11" lengthAdjust="spacingAndGlyphs" textLength="112" x="242.5" y="484.7314">trackingNumber : String</text><rect fill="none" height="6" style="stroke: #C82930; stroke-width: 1.0;" width="6" x="230.5" y="491.1484"/><text fill="#000000" font-family="sans-serif" font-size="11" lengthAdjust="spacingAndGlyphs" textLength="99" x="242.5" y="498.5674">processed : boolean</text><rect fill="none" height="6" style="stroke: #C82930; stroke-width: 1.0;" width="6" x="230.5" y="504.9844"/><text fill="#000000" font-family="sans-serif" font-size="11" lengthAdjust="spacingAndGlyphs" textLength="99" x="242.5" y="512.4033">notification : boolean</text><rect fill="none" height="6" style="stroke: #C82930; stroke-width: 1.0;" width="6" x="230.5" y="518.8203"/><text fill="#000000" font-family="sans-serif" font-size="11" lengthAdjust="spacingAndGlyphs" textLength="85" x="242.5" y="526.2393">shipped : boolean</text><line style="stroke: #A80036; stroke-width: 1.5;" x1="223.5" x2="359.5" y1="532.6563" y2="532.6563"/><!--MD5=[09ce52be0ee7de43c61b6e2d59bf108b]
class Person--><rect fill="#FEFECE" filter="url(#fqitqeshzeqbj)" height="144.8516" id="Person" style="stroke: #A80036; stroke-width: 1.5;" width="155" x="462" y="625.6406"/><ellipse cx="515.25" cy="641.6406" fill="#ADD1B2" rx="11" ry="11" style="stroke: #A80036; stroke-width: 1.0;"/><path d="M517.25,638.1406 Q517.4531,637.6406 517.6875,637.3906 Q517.9219,637.1406 518.1875,637.1406 Q518.6563,637.1406 518.9531,637.4219 Q519.25,637.7031 519.25,638.3594 L519.25,639.9219 Q519.25,640.5781 518.9688,640.8594 Q518.6875,641.1406 518.25,641.1406 Q517.8594,641.1406 517.6094,640.9688 Q517.3594,640.7969 517.25,640.3438 Q517.2031,640.0313 517.0313,639.8594 Q516.7188,639.5313 516.1563,639.3438 Q515.5938,639.1406 515.0313,639.1406 Q514.3281,639.1406 513.7344,639.4219 Q513.1563,639.7031 512.7031,640.3281 Q512.25,640.9531 512.25,641.8125 L512.25,642.7344 Q512.25,643.7656 513.0938,644.4531 Q513.9375,645.1406 515.4375,645.1406 Q516.3281,645.1406 516.9531,644.9375 Q517.3125,644.8281 517.7188,644.4688 Q517.9844,644.2656 518.125,644.2031 Q518.2656,644.1406 518.4375,644.1406 Q518.7656,644.1406 519,644.4063 Q519.25,644.6563 519.25,645.0156 Q519.25,645.3594 518.9063,645.7656 Q518.4063,646.3594 517.6094,646.6875 Q516.5625,647.1406 515.2813,647.1406 Q513.7813,647.1406 512.5781,646.5469 Q511.6094,646.0781 510.9219,645.0625 Q510.25,644.0469 510.25,642.8438 L510.25,641.75 Q510.25,640.5 510.8438,639.4063 Q511.4531,638.3125 512.5,637.7344 Q513.5625,637.1406 514.75,637.1406 Q515.4688,637.1406 516.0938,637.3906 Q516.7188,637.6406 517.25,638.1406 Z "/><text fill="#000000" font-family="sans-serif" font-size="12" lengthAdjust="spacingAndGlyphs" textLength="40" x="535.75" y="646.5508">Person</text><line style="stroke: #A80036; stroke-width: 1.5;" x1="463" x2="616" y1="657.6406" y2="657.6406"/><rect fill="none" height="6" style="stroke: #C82930; stroke-width: 1.0;" width="6" x="470" y="683.4766"/><text fill="#000000" font-family="sans-serif" font-size="11" lengthAdjust="spacingAndGlyphs" textLength="63" x="482" y="690.8955">name : String</text><rect fill="none" height="6" style="stroke: #C82930; stroke-width: 1.0;" width="6" x="470" y="697.3125"/><text fill="#000000" font-family="sans-serif" font-size="11" lengthAdjust="spacingAndGlyphs" textLength="79" x="482" y="704.7314">surname : String</text><rect fill="none" height="6" style="stroke: #C82930; stroke-width: 1.0;" width="6" x="470" y="711.1484"/><text fill="#000000" font-family="sans-serif" font-size="11" lengthAdjust="spacingAndGlyphs" textLength="85" x="482" y="718.5674">username : String</text><rect fill="none" height="6" style="stroke: #C82930; stroke-width: 1.0;" width="6" x="470" y="724.9844"/><text fill="#000000" font-family="sans-serif" font-size="11" lengthAdjust="spacingAndGlyphs" textLength="87" x="482" y="732.4033">password : String</text><line style="stroke: #A80036; stroke-width: 1.5;" x1="463" x2="511" y1="672.5586" y2="672.5586"/><text fill="#000000" font-family="sans-serif" font-size="11" lengthAdjust="spacingAndGlyphs" textLength="57" x="511" y="676.5596">private data</text><line style="stroke: #A80036; stroke-width: 1.5;" x1="568" x2="616" y1="672.5586" y2="672.5586"/><rect fill="none" height="6" style="stroke: #C82930; stroke-width: 1.0;" width="6" x="470" y="756.6563"/><text fill="#000000" font-family="sans-serif" font-size="11" lengthAdjust="spacingAndGlyphs" textLength="129" x="482" y="764.0752">hashed_password : String</text><line style="stroke: #A80036; stroke-width: 1.0;" x1="463" x2="521" y1="745.7383" y2="745.7383"/><text fill="#000000" font-family="sans-serif" font-size="11" lengthAdjust="spacingAndGlyphs" textLength="37" x="521" y="749.7393">crypted</text><line style="stroke: #A80036; stroke-width: 1.0;" x1="558" x2="616" y1="745.7383" y2="745.7383"/><!--MD5=[3465e106eb582bee24e509c05a0d587a]
class Bottle--><rect fill="#FEFECE" filter="url(#fqitqeshzeqbj)" height="75.6719" id="Bottle" style="stroke: #A80036; stroke-width: 1.5;" width="131" x="6" y="437.1406"/><ellipse cx="51.75" cy="453.1406" fill="#ADD1B2" rx="11" ry="11" style="stroke: #A80036; stroke-width: 1.0;"/><path d="M53.75,449.6406 Q53.9531,449.1406 54.1875,448.8906 Q54.4219,448.6406 54.6875,448.6406 Q55.1563,448.6406 55.4531,448.9219 Q55.75,449.2031 55.75,449.8594 L55.75,451.4219 Q55.75,452.0781 55.4688,452.3594 Q55.1875,452.6406 54.75,452.6406 Q54.3594,452.6406 54.1094,452.4688 Q53.8594,452.2969 53.75,451.8438 Q53.7031,451.5313 53.5313,451.3594 Q53.2188,451.0313 52.6563,450.8438 Q52.0938,450.6406 51.5313,450.6406 Q50.8281,450.6406 50.2344,450.9219 Q49.6563,451.2031 49.2031,451.8281 Q48.75,452.4531 48.75,453.3125 L48.75,454.2344 Q48.75,455.2656 49.5938,455.9531 Q50.4375,456.6406 51.9375,456.6406 Q52.8281,456.6406 53.4531,456.4375 Q53.8125,456.3281 54.2188,455.9688 Q54.4844,455.7656 54.625,455.7031 Q54.7656,455.6406 54.9375,455.6406 Q55.2656,455.6406 55.5,455.9063 Q55.75,456.1563 55.75,456.5156 Q55.75,456.8594 55.4063,457.2656 Q54.9063,457.8594 54.1094,458.1875 Q53.0625,458.6406 51.7813,458.6406 Q50.2813,458.6406 49.0781,458.0469 Q48.1094,457.5781 47.4219,456.5625 Q46.75,455.5469 46.75,454.3438 L46.75,453.25 Q46.75,452 47.3438,450.9063 Q47.9531,449.8125 49,449.2344 Q50.0625,448.6406 51.25,448.6406 Q51.9688,448.6406 52.5938,448.8906 Q53.2188,449.1406 53.75,449.6406 Z "/><text fill="#000000" font-family="sans-serif" font-size="12" lengthAdjust="spacingAndGlyphs" textLength="31" x="72.25" y="458.0508">Bottle</text><line style="stroke: #A80036; stroke-width: 1.5;" x1="7" x2="136" y1="469.1406" y2="469.1406"/><rect fill="none" height="6" style="stroke: #C82930; stroke-width: 1.0;" width="6" x="14" y="477.1406"/><text fill="#000000" font-family="sans-serif" font-size="11" lengthAdjust="spacingAndGlyphs" textLength="57" x="26" y="484.5596">wine : Wine</text><rect fill="none" height="6" style="stroke: #C82930; stroke-width: 1.0;" width="6" x="14" y="490.9766"/><text fill="#000000" font-family="sans-serif" font-size="11" lengthAdjust="spacingAndGlyphs" textLength="105" x="26" y="498.3955">bottleAmount : Integer</text><line style="stroke: #A80036; stroke-width: 1.5;" x1="7" x2="136" y1="504.8125" y2="504.8125"/><!--MD5=[ed6624c6556d5e7b1bd23032162d20b7]
class Client--><rect fill="#FEFECE" filter="url(#fqitqeshzeqbj)" height="144.8516" id="Client" style="stroke: #A80036; stroke-width: 1.5;" width="171" x="446" y="402.6406"/><ellipse cx="511.25" cy="418.6406" fill="#ADD1B2" rx="11" ry="11" style="stroke: #A80036; stroke-width: 1.0;"/><path d="M513.25,415.1406 Q513.4531,414.6406 513.6875,414.3906 Q513.9219,414.1406 514.1875,414.1406 Q514.6563,414.1406 514.9531,414.4219 Q515.25,414.7031 515.25,415.3594 L515.25,416.9219 Q515.25,417.5781 514.9688,417.8594 Q514.6875,418.1406 514.25,418.1406 Q513.8594,418.1406 513.6094,417.9688 Q513.3594,417.7969 513.25,417.3438 Q513.2031,417.0313 513.0313,416.8594 Q512.7188,416.5313 512.1563,416.3438 Q511.5938,416.1406 511.0313,416.1406 Q510.3281,416.1406 509.7344,416.4219 Q509.1563,416.7031 508.7031,417.3281 Q508.25,417.9531 508.25,418.8125 L508.25,419.7344 Q508.25,420.7656 509.0938,421.4531 Q509.9375,422.1406 511.4375,422.1406 Q512.3281,422.1406 512.9531,421.9375 Q513.3125,421.8281 513.7188,421.4688 Q513.9844,421.2656 514.125,421.2031 Q514.2656,421.1406 514.4375,421.1406 Q514.7656,421.1406 515,421.4063 Q515.25,421.6563 515.25,422.0156 Q515.25,422.3594 514.9063,422.7656 Q514.4063,423.3594 513.6094,423.6875 Q512.5625,424.1406 511.2813,424.1406 Q509.7813,424.1406 508.5781,423.5469 Q507.6094,423.0781 506.9219,422.0625 Q506.25,421.0469 506.25,419.8438 L506.25,418.75 Q506.25,417.5 506.8438,416.4063 Q507.4531,415.3125 508.5,414.7344 Q509.5625,414.1406 510.75,414.1406 Q511.4688,414.1406 512.0938,414.3906 Q512.7188,414.6406 513.25,415.1406 Z "/><text fill="#000000" font-family="sans-serif" font-size="12" lengthAdjust="spacingAndGlyphs" textLength="32" x="531.75" y="423.5508">Client</text><line style="stroke: #A80036; stroke-width: 1.5;" x1="447" x2="616" y1="434.6406" y2="434.6406"/><rect fill="none" height="6" style="stroke: #C82930; stroke-width: 1.0;" width="6" x="454" y="442.6406"/><text fill="#000000" font-family="sans-serif" font-size="11" lengthAdjust="spacingAndGlyphs" textLength="79" x="466" y="450.0596">logged : boolean</text><rect fill="none" height="6" style="stroke: #C82930; stroke-width: 1.0;" width="6" x="454" y="456.4766"/><text fill="#000000" font-family="sans-serif" font-size="11" lengthAdjust="spacingAndGlyphs" textLength="145" x="466" y="463.8955">purchases : ArrayList&lt;Bottle&gt;</text><line style="stroke: #A80036; stroke-width: 1.5;" x1="447" x2="616" y1="470.3125" y2="470.3125"/><ellipse cx="457" cy="481.3125" fill="#84BE84" rx="3" ry="3" style="stroke: #038048; stroke-width: 1.0;"/><text fill="#000000" font-family="sans-serif" font-size="11" lengthAdjust="spacingAndGlyphs" textLength="85" x="466" y="485.7314">void registration()</text><ellipse cx="457" cy="495.1484" fill="#84BE84" rx="3" ry="3" style="stroke: #038048; stroke-width: 1.0;"/><text fill="#000000" font-family="sans-serif" font-size="11" lengthAdjust="spacingAndGlyphs" textLength="53" x="466" y="499.5674">void login()</text><ellipse cx="457" cy="508.9844" fill="#84BE84" rx="3" ry="3" style="stroke: #038048; stroke-width: 1.0;"/><text fill="#000000" font-family="sans-serif" font-size="11" lengthAdjust="spacingAndGlyphs" textLength="89" x="466" y="513.4033">void searchWine()</text><ellipse cx="457" cy="522.8203" fill="#84BE84" rx="3" ry="3" style="stroke: #038048; stroke-width: 1.0;"/><text fill="#000000" font-family="sans-serif" font-size="11" lengthAdjust="spacingAndGlyphs" textLength="73" x="466" y="527.2393">void buyWine()</text><ellipse cx="457" cy="536.6563" fill="#84BE84" rx="3" ry="3" style="stroke: #038048; stroke-width: 1.0;"/><text fill="#000000" font-family="sans-serif" font-size="11" lengthAdjust="spacingAndGlyphs" textLength="101" x="466" y="541.0752">void askNotification()</text><!--MD5=[bf142c93e294de64ba0f3f4232bfc935]
class Wine--><rect fill="#FEFECE" filter="url(#fqitqeshzeqbj)" height="103.3438" id="Wine" style="stroke: #A80036; stroke-width: 1.5;" width="168" x="20.5" y="646.6406"/><ellipse cx="86.25" cy="662.6406" fill="#ADD1B2" rx="11" ry="11" style="stroke: #A80036; stroke-width: 1.0;"/><path d="M88.25,659.1406 Q88.4531,658.6406 88.6875,658.3906 Q88.9219,658.1406 89.1875,658.1406 Q89.6563,658.1406 89.9531,658.4219 Q90.25,658.7031 90.25,659.3594 L90.25,660.9219 Q90.25,661.5781 89.9688,661.8594 Q89.6875,662.1406 89.25,662.1406 Q88.8594,662.1406 88.6094,661.9688 Q88.3594,661.7969 88.25,661.3438 Q88.2031,661.0313 88.0313,660.8594 Q87.7188,660.5313 87.1563,660.3438 Q86.5938,660.1406 86.0313,660.1406 Q85.3281,660.1406 84.7344,660.4219 Q84.1563,660.7031 83.7031,661.3281 Q83.25,661.9531 83.25,662.8125 L83.25,663.7344 Q83.25,664.7656 84.0938,665.4531 Q84.9375,666.1406 86.4375,666.1406 Q87.3281,666.1406 87.9531,665.9375 Q88.3125,665.8281 88.7188,665.4688 Q88.9844,665.2656 89.125,665.2031 Q89.2656,665.1406 89.4375,665.1406 Q89.7656,665.1406 90,665.4063 Q90.25,665.6563 90.25,666.0156 Q90.25,666.3594 89.9063,666.7656 Q89.4063,667.3594 88.6094,667.6875 Q87.5625,668.1406 86.2813,668.1406 Q84.7813,668.1406 83.5781,667.5469 Q82.6094,667.0781 81.9219,666.0625 Q81.25,665.0469 81.25,663.8438 L81.25,662.75 Q81.25,661.5 81.8438,660.4063 Q82.4531,659.3125 83.5,658.7344 Q84.5625,658.1406 85.75,658.1406 Q86.4688,658.1406 87.0938,658.3906 Q87.7188,658.6406 88.25,659.1406 Z "/><text fill="#000000" font-family="sans-serif" font-size="12" lengthAdjust="spacingAndGlyphs" textLength="28" x="106.75" y="667.5508">Wine</text><line style="stroke: #A80036; stroke-width: 1.5;" x1="21.5" x2="187.5" y1="678.6406" y2="678.6406"/><rect fill="none" height="6" style="stroke: #C82930; stroke-width: 1.0;" width="6" x="28.5" y="686.6406"/><text fill="#000000" font-family="sans-serif" font-size="11" lengthAdjust="spacingAndGlyphs" textLength="63" x="40.5" y="694.0596">name : String</text><rect fill="none" height="6" style="stroke: #C82930; stroke-width: 1.0;" width="6" x="28.5" y="700.4766"/><text fill="#000000" font-family="sans-serif" font-size="11" lengthAdjust="spacingAndGlyphs" textLength="64" x="40.5" y="707.8955">year : Integer</text><rect fill="none" height="6" style="stroke: #C82930; stroke-width: 1.0;" width="6" x="28.5" y="714.3125"/><text fill="#000000" font-family="sans-serif" font-size="11" lengthAdjust="spacingAndGlyphs" textLength="64" x="40.5" y="721.7314">notes : String</text><rect fill="none" height="6" style="stroke: #C82930; stroke-width: 1.0;" width="6" x="28.5" y="728.1484"/><text fill="#000000" font-family="sans-serif" font-size="11" lengthAdjust="spacingAndGlyphs" textLength="142" x="40.5" y="735.5674">vineyards : ArrayList&lt;String&gt;</text><line style="stroke: #A80036; stroke-width: 1.5;" x1="21.5" x2="187.5" y1="741.9844" y2="741.9844"/><!--MD5=[db6d18d8099558415abc41d00477ab92]
class Admin--><rect fill="#FEFECE" filter="url(#fqitqeshzeqbj)" height="89.5078" id="Admin" style="stroke: #A80036; stroke-width: 1.5;" width="114" x="234.5" y="653.1406"/><ellipse cx="270.65" cy="669.1406" fill="#ADD1B2" rx="11" ry="11" style="stroke: #A80036; stroke-width: 1.0;"/><path d="M272.65,665.6406 Q272.8531,665.1406 273.0875,664.8906 Q273.3219,664.6406 273.5875,664.6406 Q274.0563,664.6406 274.3531,664.9219 Q274.65,665.2031 274.65,665.8594 L274.65,667.4219 Q274.65,668.0781 274.3688,668.3594 Q274.0875,668.6406 273.65,668.6406 Q273.2594,668.6406 273.0094,668.4688 Q272.7594,668.2969 272.65,667.8438 Q272.6031,667.5313 272.4313,667.3594 Q272.1188,667.0313 271.5563,666.8438 Q270.9938,666.6406 270.4313,666.6406 Q269.7281,666.6406 269.1344,666.9219 Q268.5563,667.2031 268.1031,667.8281 Q267.65,668.4531 267.65,669.3125 L267.65,670.2344 Q267.65,671.2656 268.4938,671.9531 Q269.3375,672.6406 270.8375,672.6406 Q271.7281,672.6406 272.3531,672.4375 Q272.7125,672.3281 273.1188,671.9688 Q273.3844,671.7656 273.525,671.7031 Q273.6656,671.6406 273.8375,671.6406 Q274.1656,671.6406 274.4,671.9063 Q274.65,672.1563 274.65,672.5156 Q274.65,672.8594 274.3063,673.2656 Q273.8063,673.8594 273.0094,674.1875 Q271.9625,674.6406 270.6813,674.6406 Q269.1813,674.6406 267.9781,674.0469 Q267.0094,673.5781 266.3219,672.5625 Q265.65,671.5469 265.65,670.3438 L265.65,669.25 Q265.65,668 266.2438,666.9063 Q266.8531,665.8125 267.9,665.2344 Q268.9625,664.6406 270.15,664.6406 Q270.8688,664.6406 271.4938,664.8906 Q272.1188,665.1406 272.65,665.6406 Z "/><text fill="#000000" font-family="sans-serif" font-size="12" lengthAdjust="spacingAndGlyphs" textLength="35" x="289.35" y="674.0508">Admin</text><line style="stroke: #A80036; stroke-width: 1.5;" x1="235.5" x2="347.5" y1="685.1406" y2="685.1406"/><line style="stroke: #A80036; stroke-width: 1.5;" x1="235.5" x2="347.5" y1="693.1406" y2="693.1406"/><ellipse cx="245.5" cy="704.1406" fill="#84BE84" rx="3" ry="3" style="stroke: #038048; stroke-width: 1.0;"/><text fill="#000000" font-family="sans-serif" font-size="11" lengthAdjust="spacingAndGlyphs" textLength="88" x="254.5" y="708.5596">void deleteOrder()</text><ellipse cx="245.5" cy="717.9766" fill="#84BE84" rx="3" ry="3" style="stroke: #038048; stroke-width: 1.0;"/><text fill="#000000" font-family="sans-serif" font-size="11" lengthAdjust="spacingAndGlyphs" textLength="79" x="254.5" y="722.3955">void refillOrder()</text><ellipse cx="245.5" cy="731.8125" fill="#84BE84" rx="3" ry="3" style="stroke: #038048; stroke-width: 1.0;"/><text fill="#000000" font-family="sans-serif" font-size="11" lengthAdjust="spacingAndGlyphs" textLength="79" x="254.5" y="736.2314">void shipOrder()</text><!--MD5=[673910a9f773ff914485e8446e66c926]
reverse link Winehouse to Order--><path d="M291.5,353.0796 C291.5,372.7346 291.5,392.1916 291.5,409.5706 " fill="none" id="Winehouse&lt;-Order" style="stroke: #A80036; stroke-width: 1.0;"/><polygon fill="#A80036" points="291.5,339.8106,287.5,345.8106,291.5,351.8106,295.5,345.8106,291.5,339.8106" style="stroke: #A80036; stroke-width: 1.0;"/><text fill="#000000" font-family="sans-serif" font-size="13" lengthAdjust="spacingAndGlyphs" textLength="30" x="260.6328" y="360.7921">0 .. 1</text><text fill="#000000" font-family="sans-serif" font-size="13" lengthAdjust="spacingAndGlyphs" textLength="28" x="261.8813" y="398.5786">0 .. *</text><!--MD5=[1095edcc97b63d3f27ab6957ed78b770]
reverse link Winehouse to Person--><path d="M381.226,239.7996 C463.302,263.5186 579.981,311.7606 634.5,402.6406 C678.698,476.3176 661.512,518.5896 623.5,595.6406 C618.491,605.7946 612.278,615.8166 605.515,625.3786 " fill="none" id="Winehouse&lt;-Person" style="stroke: #A80036; stroke-width: 1.0;"/><polygon fill="#A80036" points="368.619,236.2696,373.3186,241.7389,380.1748,239.5044,375.4752,234.0351,368.619,236.2696" style="stroke: #A80036; stroke-width: 1.0;"/><text fill="#000000" font-family="sans-serif" font-size="13" lengthAdjust="spacingAndGlyphs" textLength="30" x="376.5355" y="234.6201">0 .. 1</text><text fill="#000000" font-family="sans-serif" font-size="13" lengthAdjust="spacingAndGlyphs" textLength="28" x="582.879" y="614.5709">0 .. *</text><!--MD5=[7705f786992c1d3f465b38cfd8662418]
reverse link Winehouse to Bottle--><path d="M205.696,318.9006 C169.823,360.3986 130.339,406.0746 103.5464,437.0686 " fill="none" id="Winehouse&lt;-Bottle" style="stroke: #A80036; stroke-width: 1.0;"/><polygon fill="#A80036" points="214.246,309.0096,207.2961,310.9328,206.3982,318.0878,213.3482,316.1646,214.246,309.0096" style="stroke: #A80036; stroke-width: 1.0;"/><text fill="#000000" font-family="sans-serif" font-size="13" lengthAdjust="spacingAndGlyphs" textLength="30" x="176.6062" y="313.3528">0 .. 1</text><text fill="#000000" font-family="sans-serif" font-size="13" lengthAdjust="spacingAndGlyphs" textLength="28" x="78.7609" y="426.4177">0 .. *</text><!--MD5=[10549633b7e5298b7d50190a80c841ed]
link Client to Wine--><path d="M445.928,516.0806 C360.258,556.1746 238.114,613.6736 216.5,625.6406 C204.794,632.1216 192.644,639.3356 180.851,646.6186 " fill="none" id="Client-Wine" style="stroke: #A80036; stroke-width: 1.0;"/><!--MD5=[d539e0a27b53237e100ebbf9164540b5]
link Order to Admin--><path d="M291.5,540.6566 C291.5,576.7126 291.5,620.7176 291.5,652.8696 " fill="none" id="Order-Admin" style="stroke: #A80036; stroke-width: 1.0;"/><!--MD5=[4ccb4dd1e27eeb27eea0a8d68b3aa190]
link Client to Person--><path d="M534.097,547.8926 C534.761,566.2236 535.483,586.1836 536.178,605.3676 " fill="none" id="Client-&gt;Person" style="stroke: #A80036; stroke-width: 1.0;"/><polygon fill="none" points="543.174,605.1306,536.902,625.3706,529.183,605.6366,543.174,605.1306" style="stroke: #A80036; stroke-width: 1.0;"/><text fill="#000000" font-family="sans-serif" font-size="13" lengthAdjust="spacingAndGlyphs" textLength="77" x="537.5" y="592.1357">«Inheritance»</text><!--MD5=[33f8ed7b79d8f56217be50046b27eea3]
link Admin to Person--><path d="M348.708,698.1406 C376.283,698.1406 410.141,698.1406 441.64,698.1406 " fill="none" id="Admin-&gt;Person" style="stroke: #A80036; stroke-width: 1.0;"/><polygon fill="none" points="441.91,691.1405,461.91,698.1406,441.91,705.1405,441.91,691.1405" style="stroke: #A80036; stroke-width: 1.0;"/><text fill="#000000" font-family="sans-serif" font-size="13" lengthAdjust="spacingAndGlyphs" textLength="77" x="366.75" y="691.6357">«Inheritance»</text><!--MD5=[5a8cb97690d92b5b29a90d6e34ecffd1]
link Wine to Bottle--><path d="M96.9514,646.5886 C91.5902,610.6846 84.4208,562.6706 79.0576,526.7536 " fill="none" id="Wine-&gt;Bottle" style="stroke: #A80036; stroke-width: 1.0;"/><polygon fill="#A80036" points="77.098,513.6306,74.028,520.1556,78.8703,525.499,81.9403,518.9741,77.098,513.6306" style="stroke: #A80036; stroke-width: 1.0;"/><text fill="#000000" font-family="sans-serif" font-size="13" lengthAdjust="spacingAndGlyphs" textLength="49" x="90.5" y="592.1357">contains</text><text fill="#000000" font-family="sans-serif" font-size="13" lengthAdjust="spacingAndGlyphs" textLength="7" x="88.3977" y="635.7098">1</text><text fill="#000000" font-family="sans-serif" font-size="13" lengthAdjust="spacingAndGlyphs" textLength="5" x="72.5724" y="534.2966">*</text><!--MD5=[b9821078e3fa7d3e006f0034d2699bbc]
link Bottle to Order--><path d="M137.209,475.1406 C159.753,475.1406 185.275,475.1406 208.979,475.1406 " fill="none" id="Bottle-&gt;Order" style="stroke: #A80036; stroke-width: 1.0;"/><polygon fill="#FFFFFF" points="222.308,475.1406,216.308,471.1406,210.308,475.1406,216.308,479.1406,222.308,475.1406" style="stroke: #A80036; stroke-width: 1.0;"/><text fill="#000000" font-family="sans-serif" font-size="13" lengthAdjust="spacingAndGlyphs" textLength="49" x="155.25" y="468.6357">contains</text><text fill="#000000" font-family="sans-serif" font-size="13" lengthAdjust="spacingAndGlyphs" textLength="7" x="145.2113" y="471.75">1</text><text fill="#000000" font-family="sans-serif" font-size="13" lengthAdjust="spacingAndGlyphs" textLength="5" x="209.4667" y="471.7791">*</text><!--MD5=[1bef3bc5a00a28934e9de88f1e28975b]
reverse link Order to Client--><path d="M373.658,475.1406 C396.941,475.1406 422.343,475.1406 445.829,475.1406 " fill="none" id="Order&lt;-Client" style="stroke: #A80036; stroke-width: 1.0;"/><polygon fill="#FFFFFF" points="360.596,475.1406,366.596,479.1406,372.596,475.1406,366.596,471.1406,360.596,475.1406" style="stroke: #A80036; stroke-width: 1.0;"/><text fill="#000000" font-family="sans-serif" font-size="13" lengthAdjust="spacingAndGlyphs" textLength="49" x="378.75" y="468.6357">contains</text><text fill="#000000" font-family="sans-serif" font-size="13" lengthAdjust="spacingAndGlyphs" textLength="5" x="368.4268" y="471.7791">*</text><text fill="#000000" font-family="sans-serif" font-size="13" lengthAdjust="spacingAndGlyphs" textLength="7" x="430.8872" y="471.9455">1</text><!--MD5=[47a7ed485eae031710bc4169abde4506]
@startuml
title Class Diagram

package Database <<Database>> {
  class Winehouse{
    -bottles : ArrayList<Bottle>
    -users : ArrayList<Person>
    -orders : ArrayList<Order>
    +void registration()
    +void addBottle()
    +void addOrder()
    +void deleteOrder()
    +void updateBottle()
    +void checkAvailability()
    +void searchWine()
    +void buyWine()
    +void outofstockWarning()
    +void sendNotification()
    +void cleanOrders()
  }
}
Winehouse "0 .. 1" *- - "0 .. *" Order
Winehouse "0 .. 1" *- - "0 .. *" Person
Winehouse "0 .. 1" *- - "0 .. *" Bottle

class Person {
    __ private data __
    -name : String
    -surname : String
    -username : String
    -password : String
    - - crypted - -
    -hashed_password : String
}

class Client {
    -logged : boolean
    -purchases : ArrayList<Bottle>
    +void registration()
    +void login()
    +void searchWine()
    +void buyWine()
    +void askNotification()
}

Client - - Wine

class Admin {
    +void deleteOrder()
    +void refillOrder()
    +void shipOrder()
}

Admin -up- Order

Person <|-up- Client : <<Inheritance>>
Person <|-left- Admin : <<Inheritance>>

class Wine {
    -name : String
    -year : Integer
    -notes : String
    -vineyards : ArrayList<String>
}

class Bottle {
    -wine : Wine
    -bottleAmount : Integer
}

Bottle "*" *-up- "1" Wine : contains

class Order {
    -buyer : Client
    -orderBottle : Bottle
    -trackingNumber : String
    -processed : boolean
    -notification : boolean
    -shipped : boolean
}

Order "*" o-left- "1" Bottle : contains
Order "*" o-right- "1" Client : contains
@enduml

PlantUML version 1.2019.11(Sun Sep 22 12:02:15 CEST 2019)
(GPL source distribution)
Java Runtime: OpenJDK Runtime Environment
JVM: OpenJDK 64-Bit Server VM
Java Version: 11.0.4+10-b304.77
Operating System: Windows 10
Default Encoding: Cp1252
Language: it
Country: IT
--></g></svg>