<?xml version="1.0" encoding="UTF-8" standalone="no"?><svg xmlns="http://www.w3.org/2000/svg" xmlns:xlink="http://www.w3.org/1999/xlink" contentScriptType="application/ecmascript" contentStyleType="text/css" height="878.625px" preserveAspectRatio="none" style="width:776px;height:878px;" version="1.1" viewBox="0 0 776 878" width="776.25px" zoomAndPan="magnify"><defs><filter height="300%" id="fs6q6ca54xdaq" width="300%" x="-1" y="-1"><feGaussianBlur result="blurOut" stdDeviation="2.25"/><feColorMatrix in="blurOut" result="blurOut2" type="matrix" values="0 0 0 0 0 0 0 0 0 0 0 0 0 0 0 0 0 0 .4 0"/><feOffset dx="4.5" dy="4.5" in="blurOut2" result="blurOut3"/><feBlend in="SourceGraphic" in2="blurOut3" mode="normal"/></filter></defs><g><text fill="#000000" font-family="sans-serif" font-size="20.25" lengthAdjust="spacingAndGlyphs" textLength="131.625" x="316.125" y="21.0212">Class Diagram</text><!--MD5=[815249f79c2c08157ac02b3106e03757]
cluster Database--><path d="M223.3125,63.7207 C223.3125,52.4707 327.9375,52.4707 327.9375,52.4707 C327.9375,52.4707 432.5625,52.4707 432.5625,63.7207 L432.5625,388.8457 C432.5625,400.0957 327.9375,400.0957 327.9375,400.0957 C327.9375,400.0957 223.3125,400.0957 223.3125,388.8457 L223.3125,63.7207 " fill="#FFFFFF" filter="url(#fs6q6ca54xdaq)" style="stroke: #000000; stroke-width: 1.6875;"/><path d="M223.3125,63.7207 C223.3125,74.9707 327.9375,74.9707 327.9375,74.9707 C327.9375,74.9707 432.5625,74.9707 432.5625,63.7207 " fill="none" style="stroke: #000000; stroke-width: 1.6875;"/><text fill="#000000" font-family="sans-serif" font-size="15.75" font-weight="bold" lengthAdjust="spacingAndGlyphs" textLength="73.125" x="291.375" y="93.5706">Database</text><!--MD5=[f0ada410d23793807474d2872bfcd402]
class Winehouse--><rect fill="#FEFECE" filter="url(#fs6q6ca54xdaq)" height="271.916" id="Winehouse" style="stroke: #A80036; stroke-width: 1.6875;" width="173.25" x="241.3125" y="109.8457"/><ellipse cx="288.0563" cy="127.8457" fill="#ADD1B2" rx="12.375" ry="12.375" style="stroke: #A80036; stroke-width: 1.125;"/><path d="M290.3063,123.9082 Q290.5348,123.3457 290.7984,123.0645 Q291.0621,122.7832 291.3609,122.7832 Q291.8883,122.7832 292.2223,123.0996 Q292.5563,123.416 292.5563,124.1543 L292.5563,125.9121 Q292.5563,126.6504 292.2398,126.9668 Q291.9234,127.2832 291.4313,127.2832 Q290.9918,127.2832 290.7105,127.0898 Q290.4293,126.8965 290.3063,126.3867 Q290.2535,126.0352 290.0602,125.8418 Q289.7086,125.4727 289.0758,125.2617 Q288.443,125.0332 287.8102,125.0332 Q287.0191,125.0332 286.3512,125.3496 Q285.7008,125.666 285.191,126.3691 Q284.6813,127.0723 284.6813,128.0391 L284.6813,129.0762 Q284.6813,130.2363 285.6305,131.0098 Q286.5797,131.7832 288.2672,131.7832 Q289.2691,131.7832 289.9723,131.5547 Q290.3766,131.4316 290.8336,131.0273 Q291.1324,130.7988 291.2906,130.7285 Q291.4488,130.6582 291.6422,130.6582 Q292.0113,130.6582 292.275,130.957 Q292.5563,131.2383 292.5563,131.6426 Q292.5563,132.0293 292.1695,132.4863 Q291.607,133.1543 290.7105,133.5234 Q289.5328,134.0332 288.0914,134.0332 Q286.4039,134.0332 285.0504,133.3652 Q283.9605,132.8379 283.1871,131.6953 Q282.4313,130.5527 282.4313,129.1992 L282.4313,127.9688 Q282.4313,126.5625 283.0992,125.332 Q283.7848,124.1016 284.9625,123.4512 Q286.1578,122.7832 287.4938,122.7832 Q288.3023,122.7832 289.0055,123.0645 Q289.7086,123.3457 290.3063,123.9082 Z "/><text fill="#000000" font-family="sans-serif" font-size="13.5" lengthAdjust="spacingAndGlyphs" textLength="70.875" x="310.4437" y="133.3696">Winehouse</text><line style="stroke: #A80036; stroke-width: 1.6875;" x1="242.4375" x2="413.4375" y1="145.8457" y2="145.8457"/><rect fill="none" height="6.75" style="stroke: #C82930; stroke-width: 1.125;" width="6.75" x="250.3125" y="154.8457"/><text fill="#000000" font-family="sans-serif" font-size="12.375" lengthAdjust="spacingAndGlyphs" textLength="140.625" x="263.8125" y="163.192">bottles : ArrayList&lt;Bottle&gt;</text><rect fill="none" height="6.75" style="stroke: #C82930; stroke-width: 1.125;" width="6.75" x="250.3125" y="170.4111"/><text fill="#000000" font-family="sans-serif" font-size="12.375" lengthAdjust="spacingAndGlyphs" textLength="144" x="263.8125" y="178.7574">users : ArrayList&lt;Person&gt;</text><rect fill="none" height="6.75" style="stroke: #C82930; stroke-width: 1.125;" width="6.75" x="250.3125" y="185.9766"/><text fill="#000000" font-family="sans-serif" font-size="12.375" lengthAdjust="spacingAndGlyphs" textLength="141.75" x="263.8125" y="194.3229">orders : ArrayList&lt;Order&gt;</text><line style="stroke: #A80036; stroke-width: 1.6875;" x1="242.4375" x2="413.4375" y1="201.542" y2="201.542"/><ellipse cx="253.6875" cy="213.917" fill="#84BE84" rx="3.375" ry="3.375" style="stroke: #038048; stroke-width: 1.125;"/><text fill="#000000" font-family="sans-serif" font-size="12.375" lengthAdjust="spacingAndGlyphs" textLength="95.625" x="263.8125" y="218.8883">void registration()</text><ellipse cx="253.6875" cy="229.4824" fill="#84BE84" rx="3.375" ry="3.375" style="stroke: #038048; stroke-width: 1.125;"/><text fill="#000000" font-family="sans-serif" font-size="12.375" lengthAdjust="spacingAndGlyphs" textLength="85.5" x="263.8125" y="234.4537">void addBottle()</text><ellipse cx="253.6875" cy="245.0479" fill="#84BE84" rx="3.375" ry="3.375" style="stroke: #038048; stroke-width: 1.125;"/><text fill="#000000" font-family="sans-serif" font-size="12.375" lengthAdjust="spacingAndGlyphs" textLength="86.625" x="263.8125" y="250.0192">void addOrder()</text><ellipse cx="253.6875" cy="260.6133" fill="#84BE84" rx="3.375" ry="3.375" style="stroke: #038048; stroke-width: 1.125;"/><text fill="#000000" font-family="sans-serif" font-size="12.375" lengthAdjust="spacingAndGlyphs" textLength="99" x="263.8125" y="265.5846">void deleteOrder()</text><ellipse cx="253.6875" cy="276.1787" fill="#84BE84" rx="3.375" ry="3.375" style="stroke: #038048; stroke-width: 1.125;"/><text fill="#000000" font-family="sans-serif" font-size="12.375" lengthAdjust="spacingAndGlyphs" textLength="102.375" x="263.8125" y="281.15">void updateBottle()</text><ellipse cx="253.6875" cy="291.7441" fill="#84BE84" rx="3.375" ry="3.375" style="stroke: #038048; stroke-width: 1.125;"/><text fill="#000000" font-family="sans-serif" font-size="12.375" lengthAdjust="spacingAndGlyphs" textLength="124.875" x="263.8125" y="296.7155">void checkAvailability()</text><ellipse cx="253.6875" cy="307.3096" fill="#84BE84" rx="3.375" ry="3.375" style="stroke: #038048; stroke-width: 1.125;"/><text fill="#000000" font-family="sans-serif" font-size="12.375" lengthAdjust="spacingAndGlyphs" textLength="100.125" x="263.8125" y="312.2809">void searchWine()</text><ellipse cx="253.6875" cy="322.875" fill="#84BE84" rx="3.375" ry="3.375" style="stroke: #038048; stroke-width: 1.125;"/><text fill="#000000" font-family="sans-serif" font-size="12.375" lengthAdjust="spacingAndGlyphs" textLength="82.125" x="263.8125" y="327.8463">void buyWine()</text><ellipse cx="253.6875" cy="338.4404" fill="#84BE84" rx="3.375" ry="3.375" style="stroke: #038048; stroke-width: 1.125;"/><text fill="#000000" font-family="sans-serif" font-size="12.375" lengthAdjust="spacingAndGlyphs" textLength="137.25" x="263.8125" y="343.4117">void outofstockWarning()</text><ellipse cx="253.6875" cy="354.0059" fill="#84BE84" rx="3.375" ry="3.375" style="stroke: #038048; stroke-width: 1.125;"/><text fill="#000000" font-family="sans-serif" font-size="12.375" lengthAdjust="spacingAndGlyphs" textLength="121.5" x="263.8125" y="358.9772">void sendNotification()</text><ellipse cx="253.6875" cy="369.5713" fill="#84BE84" rx="3.375" ry="3.375" style="stroke: #038048; stroke-width: 1.125;"/><text fill="#000000" font-family="sans-serif" font-size="12.375" lengthAdjust="spacingAndGlyphs" textLength="102.375" x="263.8125" y="374.5426">void cleanOrders()</text><!--MD5=[cf4d6237fcae255cd2e1656cf84a30e2]
class Order--><rect fill="#FEFECE" filter="url(#fs6q6ca54xdaq)" height="147.3926" id="Order" style="stroke: #A80036; stroke-width: 1.6875;" width="155.25" x="250.3125" y="460.8457"/><ellipse cx="305.7188" cy="478.8457" fill="#ADD1B2" rx="12.375" ry="12.375" style="stroke: #A80036; stroke-width: 1.125;"/><path d="M307.9688,474.9082 Q308.1973,474.3457 308.4609,474.0645 Q308.7246,473.7832 309.0234,473.7832 Q309.5508,473.7832 309.8848,474.0996 Q310.2188,474.416 310.2188,475.1543 L310.2188,476.9121 Q310.2188,477.6504 309.9023,477.9668 Q309.5859,478.2832 309.0938,478.2832 Q308.6543,478.2832 308.373,478.0898 Q308.0918,477.8965 307.9688,477.3867 Q307.916,477.0352 307.7227,476.8418 Q307.3711,476.4727 306.7383,476.2617 Q306.1055,476.0332 305.4727,476.0332 Q304.6816,476.0332 304.0137,476.3496 Q303.3633,476.666 302.8535,477.3691 Q302.3438,478.0723 302.3438,479.0391 L302.3438,480.0762 Q302.3438,481.2363 303.293,482.0098 Q304.2422,482.7832 305.9297,482.7832 Q306.9316,482.7832 307.6348,482.5547 Q308.0391,482.4316 308.4961,482.0273 Q308.7949,481.7988 308.9531,481.7285 Q309.1113,481.6582 309.3047,481.6582 Q309.6738,481.6582 309.9375,481.957 Q310.2188,482.2383 310.2188,482.6426 Q310.2188,483.0293 309.832,483.4863 Q309.2695,484.1543 308.373,484.5234 Q307.1953,485.0332 305.7539,485.0332 Q304.0664,485.0332 302.7129,484.3652 Q301.623,483.8379 300.8496,482.6953 Q300.0938,481.5527 300.0938,480.1992 L300.0938,478.9688 Q300.0938,477.5625 300.7617,476.332 Q301.4473,475.1016 302.625,474.4512 Q303.8203,473.7832 305.1563,473.7832 Q305.9648,473.7832 306.668,474.0645 Q307.3711,474.3457 307.9688,474.9082 Z "/><text fill="#000000" font-family="sans-serif" font-size="13.5" lengthAdjust="spacingAndGlyphs" textLength="34.875" x="328.7813" y="484.3696">Order</text><line style="stroke: #A80036; stroke-width: 1.6875;" x1="251.4375" x2="404.4375" y1="496.8457" y2="496.8457"/><rect fill="none" height="6.75" style="stroke: #C82930; stroke-width: 1.125;" width="6.75" x="259.3125" y="505.8457"/><text fill="#000000" font-family="sans-serif" font-size="12.375" lengthAdjust="spacingAndGlyphs" textLength="70.875" x="272.8125" y="514.192">buyer : Client</text><rect fill="none" height="6.75" style="stroke: #C82930; stroke-width: 1.125;" width="6.75" x="259.3125" y="521.4111"/><text fill="#000000" font-family="sans-serif" font-size="12.375" lengthAdjust="spacingAndGlyphs" textLength="100.125" x="272.8125" y="529.7574">orderBottle : Bottle</text><rect fill="none" height="6.75" style="stroke: #C82930; stroke-width: 1.125;" width="6.75" x="259.3125" y="536.9766"/><text fill="#000000" font-family="sans-serif" font-size="12.375" lengthAdjust="spacingAndGlyphs" textLength="126" x="272.8125" y="545.3229">trackingNumber : String</text><rect fill="none" height="6.75" style="stroke: #C82930; stroke-width: 1.125;" width="6.75" x="259.3125" y="552.542"/><text fill="#000000" font-family="sans-serif" font-size="12.375" lengthAdjust="spacingAndGlyphs" textLength="111.375" x="272.8125" y="560.8883">processed : boolean</text><rect fill="none" height="6.75" style="stroke: #C82930; stroke-width: 1.125;" width="6.75" x="259.3125" y="568.1074"/><text fill="#000000" font-family="sans-serif" font-size="12.375" lengthAdjust="spacingAndGlyphs" textLength="111.375" x="272.8125" y="576.4537">notification : boolean</text><rect fill="none" height="6.75" style="stroke: #C82930; stroke-width: 1.125;" width="6.75" x="259.3125" y="583.6729"/><text fill="#000000" font-family="sans-serif" font-size="12.375" lengthAdjust="spacingAndGlyphs" textLength="95.625" x="272.8125" y="592.0192">shipped : boolean</text><line style="stroke: #A80036; stroke-width: 1.6875;" x1="251.4375" x2="404.4375" y1="599.2383" y2="599.2383"/><!--MD5=[09ce52be0ee7de43c61b6e2d59bf108b]
class Person--><rect fill="#FEFECE" filter="url(#fs6q6ca54xdaq)" height="162.958" id="Person" style="stroke: #A80036; stroke-width: 1.6875;" width="174.375" x="519.75" y="703.8457"/><ellipse cx="579.6563" cy="721.8457" fill="#ADD1B2" rx="12.375" ry="12.375" style="stroke: #A80036; stroke-width: 1.125;"/><path d="M581.9063,717.9082 Q582.1348,717.3457 582.3984,717.0645 Q582.6621,716.7832 582.9609,716.7832 Q583.4883,716.7832 583.8223,717.0996 Q584.1563,717.416 584.1563,718.1543 L584.1563,719.9121 Q584.1563,720.6504 583.8398,720.9668 Q583.5234,721.2832 583.0313,721.2832 Q582.5918,721.2832 582.3105,721.0898 Q582.0293,720.8965 581.9063,720.3867 Q581.8535,720.0352 581.6602,719.8418 Q581.3086,719.4727 580.6758,719.2617 Q580.043,719.0332 579.4102,719.0332 Q578.6191,719.0332 577.9512,719.3496 Q577.3008,719.666 576.791,720.3691 Q576.2813,721.0723 576.2813,722.0391 L576.2813,723.0762 Q576.2813,724.2363 577.2305,725.0098 Q578.1797,725.7832 579.8672,725.7832 Q580.8691,725.7832 581.5723,725.5547 Q581.9766,725.4316 582.4336,725.0273 Q582.7324,724.7988 582.8906,724.7285 Q583.0488,724.6582 583.2422,724.6582 Q583.6113,724.6582 583.875,724.957 Q584.1563,725.2383 584.1563,725.6426 Q584.1563,726.0293 583.7695,726.4863 Q583.207,727.1543 582.3105,727.5234 Q581.1328,728.0332 579.6914,728.0332 Q578.0039,728.0332 576.6504,727.3652 Q575.5605,726.8379 574.7871,725.6953 Q574.0313,724.5527 574.0313,723.1992 L574.0313,721.9688 Q574.0313,720.5625 574.6992,719.332 Q575.3848,718.1016 576.5625,717.4512 Q577.7578,716.7832 579.0938,716.7832 Q579.9023,716.7832 580.6055,717.0645 Q581.3086,717.3457 581.9063,717.9082 Z "/><text fill="#000000" font-family="sans-serif" font-size="13.5" lengthAdjust="spacingAndGlyphs" textLength="45" x="602.7188" y="727.3696">Person</text><line style="stroke: #A80036; stroke-width: 1.6875;" x1="520.875" x2="693" y1="739.8457" y2="739.8457"/><rect fill="none" height="6.75" style="stroke: #C82930; stroke-width: 1.125;" width="6.75" x="528.75" y="768.9111"/><text fill="#000000" font-family="sans-serif" font-size="12.375" lengthAdjust="spacingAndGlyphs" textLength="70.875" x="542.25" y="777.2574">name : String</text><rect fill="none" height="6.75" style="stroke: #C82930; stroke-width: 1.125;" width="6.75" x="528.75" y="784.4766"/><text fill="#000000" font-family="sans-serif" font-size="12.375" lengthAdjust="spacingAndGlyphs" textLength="88.875" x="542.25" y="792.8229">surname : String</text><rect fill="none" height="6.75" style="stroke: #C82930; stroke-width: 1.125;" width="6.75" x="528.75" y="800.042"/><text fill="#000000" font-family="sans-serif" font-size="12.375" lengthAdjust="spacingAndGlyphs" textLength="95.625" x="542.25" y="808.3883">username : String</text><rect fill="none" height="6.75" style="stroke: #C82930; stroke-width: 1.125;" width="6.75" x="528.75" y="815.6074"/><text fill="#000000" font-family="sans-serif" font-size="12.375" lengthAdjust="spacingAndGlyphs" textLength="97.875" x="542.25" y="823.9537">password : String</text><line style="stroke: #A80036; stroke-width: 1.6875;" x1="520.875" x2="574.875" y1="756.6284" y2="756.6284"/><text fill="#000000" font-family="sans-serif" font-size="12.375" lengthAdjust="spacingAndGlyphs" textLength="64.125" x="574.875" y="761.1295">private data</text><line style="stroke: #A80036; stroke-width: 1.6875;" x1="639" x2="693" y1="756.6284" y2="756.6284"/><rect fill="none" height="6.75" style="stroke: #C82930; stroke-width: 1.125;" width="6.75" x="528.75" y="851.2383"/><text fill="#000000" font-family="sans-serif" font-size="12.375" lengthAdjust="spacingAndGlyphs" textLength="145.125" x="542.25" y="859.5846">hashed_password : String</text><line style="stroke: #A80036; stroke-width: 1.125;" x1="520.875" x2="586.125" y1="838.9556" y2="838.9556"/><text fill="#000000" font-family="sans-serif" font-size="12.375" lengthAdjust="spacingAndGlyphs" textLength="41.625" x="586.125" y="843.4567">crypted</text><line style="stroke: #A80036; stroke-width: 1.125;" x1="627.75" x2="693" y1="838.9556" y2="838.9556"/><!--MD5=[3465e106eb582bee24e509c05a0d587a]
class Bottle--><rect fill="#FEFECE" filter="url(#fs6q6ca54xdaq)" height="85.1309" id="Bottle" style="stroke: #A80036; stroke-width: 1.6875;" width="147.375" x="6.75" y="491.7832"/><ellipse cx="58.2188" cy="509.7832" fill="#ADD1B2" rx="12.375" ry="12.375" style="stroke: #A80036; stroke-width: 1.125;"/><path d="M60.4688,505.8457 Q60.6973,505.2832 60.9609,505.002 Q61.2246,504.7207 61.5234,504.7207 Q62.0508,504.7207 62.3848,505.0371 Q62.7188,505.3535 62.7188,506.0918 L62.7188,507.8496 Q62.7188,508.5879 62.4023,508.9043 Q62.0859,509.2207 61.5938,509.2207 Q61.1543,509.2207 60.873,509.0273 Q60.5918,508.834 60.4688,508.3242 Q60.416,507.9727 60.2227,507.7793 Q59.8711,507.4102 59.2383,507.1992 Q58.6055,506.9707 57.9727,506.9707 Q57.1816,506.9707 56.5137,507.2871 Q55.8633,507.6035 55.3535,508.3066 Q54.8438,509.0098 54.8438,509.9766 L54.8438,511.0137 Q54.8438,512.1738 55.793,512.9473 Q56.7422,513.7207 58.4297,513.7207 Q59.4316,513.7207 60.1348,513.4922 Q60.5391,513.3691 60.9961,512.9648 Q61.2949,512.7363 61.4531,512.666 Q61.6113,512.5957 61.8047,512.5957 Q62.1738,512.5957 62.4375,512.8945 Q62.7188,513.1758 62.7188,513.5801 Q62.7188,513.9668 62.332,514.4238 Q61.7695,515.0918 60.873,515.4609 Q59.6953,515.9707 58.2539,515.9707 Q56.5664,515.9707 55.2129,515.3027 Q54.123,514.7754 53.3496,513.6328 Q52.5938,512.4902 52.5938,511.1367 L52.5938,509.9063 Q52.5938,508.5 53.2617,507.2695 Q53.9473,506.0391 55.125,505.3887 Q56.3203,504.7207 57.6563,504.7207 Q58.4648,504.7207 59.168,505.002 Q59.8711,505.2832 60.4688,505.8457 Z "/><text fill="#000000" font-family="sans-serif" font-size="13.5" lengthAdjust="spacingAndGlyphs" textLength="34.875" x="81.2813" y="515.3071">Bottle</text><line style="stroke: #A80036; stroke-width: 1.6875;" x1="7.875" x2="153" y1="527.7832" y2="527.7832"/><rect fill="none" height="6.75" style="stroke: #C82930; stroke-width: 1.125;" width="6.75" x="15.75" y="536.7832"/><text fill="#000000" font-family="sans-serif" font-size="12.375" lengthAdjust="spacingAndGlyphs" textLength="64.125" x="29.25" y="545.1295">wine : Wine</text><rect fill="none" height="6.75" style="stroke: #C82930; stroke-width: 1.125;" width="6.75" x="15.75" y="552.3486"/><text fill="#000000" font-family="sans-serif" font-size="12.375" lengthAdjust="spacingAndGlyphs" textLength="118.125" x="29.25" y="560.6949">bottleAmount : Integer</text><line style="stroke: #A80036; stroke-width: 1.6875;" x1="7.875" x2="153" y1="567.9141" y2="567.9141"/><!--MD5=[ed6624c6556d5e7b1bd23032162d20b7]
class Client--><rect fill="#FEFECE" filter="url(#fs6q6ca54xdaq)" height="162.958" id="Client" style="stroke: #A80036; stroke-width: 1.6875;" width="192.375" x="501.75" y="452.9707"/><ellipse cx="575.1563" cy="470.9707" fill="#ADD1B2" rx="12.375" ry="12.375" style="stroke: #A80036; stroke-width: 1.125;"/><path d="M577.4063,467.0332 Q577.6348,466.4707 577.8984,466.1895 Q578.1621,465.9082 578.4609,465.9082 Q578.9883,465.9082 579.3223,466.2246 Q579.6563,466.541 579.6563,467.2793 L579.6563,469.0371 Q579.6563,469.7754 579.3398,470.0918 Q579.0234,470.4082 578.5313,470.4082 Q578.0918,470.4082 577.8105,470.2148 Q577.5293,470.0215 577.4063,469.5117 Q577.3535,469.1602 577.1602,468.9668 Q576.8086,468.5977 576.1758,468.3867 Q575.543,468.1582 574.9102,468.1582 Q574.1191,468.1582 573.4512,468.4746 Q572.8008,468.791 572.291,469.4941 Q571.7813,470.1973 571.7813,471.1641 L571.7813,472.2012 Q571.7813,473.3613 572.7305,474.1348 Q573.6797,474.9082 575.3672,474.9082 Q576.3691,474.9082 577.0723,474.6797 Q577.4766,474.5566 577.9336,474.1523 Q578.2324,473.9238 578.3906,473.8535 Q578.5488,473.7832 578.7422,473.7832 Q579.1113,473.7832 579.375,474.082 Q579.6563,474.3633 579.6563,474.7676 Q579.6563,475.1543 579.2695,475.6113 Q578.707,476.2793 577.8105,476.6484 Q576.6328,477.1582 575.1914,477.1582 Q573.5039,477.1582 572.1504,476.4902 Q571.0605,475.9629 570.2871,474.8203 Q569.5313,473.6777 569.5313,472.3242 L569.5313,471.0938 Q569.5313,469.6875 570.1992,468.457 Q570.8848,467.2266 572.0625,466.5762 Q573.2578,465.9082 574.5938,465.9082 Q575.4023,465.9082 576.1055,466.1895 Q576.8086,466.4707 577.4063,467.0332 Z "/><text fill="#000000" font-family="sans-serif" font-size="13.5" lengthAdjust="spacingAndGlyphs" textLength="36" x="598.2188" y="476.4946">Client</text><line style="stroke: #A80036; stroke-width: 1.6875;" x1="502.875" x2="693" y1="488.9707" y2="488.9707"/><rect fill="none" height="6.75" style="stroke: #C82930; stroke-width: 1.125;" width="6.75" x="510.75" y="497.9707"/><text fill="#000000" font-family="sans-serif" font-size="12.375" lengthAdjust="spacingAndGlyphs" textLength="88.875" x="524.25" y="506.317">logged : boolean</text><rect fill="none" height="6.75" style="stroke: #C82930; stroke-width: 1.125;" width="6.75" x="510.75" y="513.5361"/><text fill="#000000" font-family="sans-serif" font-size="12.375" lengthAdjust="spacingAndGlyphs" textLength="163.125" x="524.25" y="521.8824">purchases : ArrayList&lt;Bottle&gt;</text><line style="stroke: #A80036; stroke-width: 1.6875;" x1="502.875" x2="693" y1="529.1016" y2="529.1016"/><ellipse cx="514.125" cy="541.4766" fill="#84BE84" rx="3.375" ry="3.375" style="stroke: #038048; stroke-width: 1.125;"/><text fill="#000000" font-family="sans-serif" font-size="12.375" lengthAdjust="spacingAndGlyphs" textLength="95.625" x="524.25" y="546.4479">void registration()</text><ellipse cx="514.125" cy="557.042" fill="#84BE84" rx="3.375" ry="3.375" style="stroke: #038048; stroke-width: 1.125;"/><text fill="#000000" font-family="sans-serif" font-size="12.375" lengthAdjust="spacingAndGlyphs" textLength="59.625" x="524.25" y="562.0133">void login()</text><ellipse cx="514.125" cy="572.6074" fill="#84BE84" rx="3.375" ry="3.375" style="stroke: #038048; stroke-width: 1.125;"/><text fill="#000000" font-family="sans-serif" font-size="12.375" lengthAdjust="spacingAndGlyphs" textLength="100.125" x="524.25" y="577.5787">void searchWine()</text><ellipse cx="514.125" cy="588.1729" fill="#84BE84" rx="3.375" ry="3.375" style="stroke: #038048; stroke-width: 1.125;"/><text fill="#000000" font-family="sans-serif" font-size="12.375" lengthAdjust="spacingAndGlyphs" textLength="82.125" x="524.25" y="593.1442">void buyWine()</text><ellipse cx="514.125" cy="603.7383" fill="#84BE84" rx="3.375" ry="3.375" style="stroke: #038048; stroke-width: 1.125;"/><text fill="#000000" font-family="sans-serif" font-size="12.375" lengthAdjust="spacingAndGlyphs" textLength="113.625" x="524.25" y="608.7096">void askNotification()</text><!--MD5=[bf142c93e294de64ba0f3f4232bfc935]
class Wine--><rect fill="#FEFECE" filter="url(#fs6q6ca54xdaq)" height="116.2617" id="Wine" style="stroke: #A80036; stroke-width: 1.6875;" width="189" x="23.0625" y="727.4707"/><ellipse cx="97.0313" cy="745.4707" fill="#ADD1B2" rx="12.375" ry="12.375" style="stroke: #A80036; stroke-width: 1.125;"/><path d="M99.2813,741.5332 Q99.5098,740.9707 99.7734,740.6895 Q100.0371,740.4082 100.3359,740.4082 Q100.8633,740.4082 101.1973,740.7246 Q101.5313,741.041 101.5313,741.7793 L101.5313,743.5371 Q101.5313,744.2754 101.2148,744.5918 Q100.8984,744.9082 100.4063,744.9082 Q99.9668,744.9082 99.6855,744.7148 Q99.4043,744.5215 99.2813,744.0117 Q99.2285,743.6602 99.0352,743.4668 Q98.6836,743.0977 98.0508,742.8867 Q97.418,742.6582 96.7852,742.6582 Q95.9941,742.6582 95.3262,742.9746 Q94.6758,743.291 94.166,743.9941 Q93.6563,744.6973 93.6563,745.6641 L93.6563,746.7012 Q93.6563,747.8613 94.6055,748.6348 Q95.5547,749.4082 97.2422,749.4082 Q98.2441,749.4082 98.9473,749.1797 Q99.3516,749.0566 99.8086,748.6523 Q100.1074,748.4238 100.2656,748.3535 Q100.4238,748.2832 100.6172,748.2832 Q100.9863,748.2832 101.25,748.582 Q101.5313,748.8633 101.5313,749.2676 Q101.5313,749.6543 101.1445,750.1113 Q100.582,750.7793 99.6855,751.1484 Q98.5078,751.6582 97.0664,751.6582 Q95.3789,751.6582 94.0254,750.9902 Q92.9355,750.4629 92.1621,749.3203 Q91.4063,748.1777 91.4063,746.8242 L91.4063,745.5938 Q91.4063,744.1875 92.0742,742.957 Q92.7598,741.7266 93.9375,741.0762 Q95.1328,740.4082 96.4688,740.4082 Q97.2773,740.4082 97.9805,740.6895 Q98.6836,740.9707 99.2813,741.5332 Z "/><text fill="#000000" font-family="sans-serif" font-size="13.5" lengthAdjust="spacingAndGlyphs" textLength="31.5" x="120.0938" y="750.9946">Wine</text><line style="stroke: #A80036; stroke-width: 1.6875;" x1="24.1875" x2="210.9375" y1="763.4707" y2="763.4707"/><rect fill="none" height="6.75" style="stroke: #C82930; stroke-width: 1.125;" width="6.75" x="32.0625" y="772.4707"/><text fill="#000000" font-family="sans-serif" font-size="12.375" lengthAdjust="spacingAndGlyphs" textLength="70.875" x="45.5625" y="780.817">name : String</text><rect fill="none" height="6.75" style="stroke: #C82930; stroke-width: 1.125;" width="6.75" x="32.0625" y="788.0361"/><text fill="#000000" font-family="sans-serif" font-size="12.375" lengthAdjust="spacingAndGlyphs" textLength="72" x="45.5625" y="796.3824">year : Integer</text><rect fill="none" height="6.75" style="stroke: #C82930; stroke-width: 1.125;" width="6.75" x="32.0625" y="803.6016"/><text fill="#000000" font-family="sans-serif" font-size="12.375" lengthAdjust="spacingAndGlyphs" textLength="72" x="45.5625" y="811.9479">notes : String</text><rect fill="none" height="6.75" style="stroke: #C82930; stroke-width: 1.125;" width="6.75" x="32.0625" y="819.167"/><text fill="#000000" font-family="sans-serif" font-size="12.375" lengthAdjust="spacingAndGlyphs" textLength="159.75" x="45.5625" y="827.5133">vineyards : ArrayList&lt;String&gt;</text><line style="stroke: #A80036; stroke-width: 1.6875;" x1="24.1875" x2="210.9375" y1="834.7324" y2="834.7324"/><!--MD5=[db6d18d8099558415abc41d00477ab92]
class Admin--><rect fill="#FEFECE" filter="url(#fs6q6ca54xdaq)" height="100.6963" id="Admin" style="stroke: #A80036; stroke-width: 1.6875;" width="128.25" x="263.8125" y="734.7832"/><ellipse cx="304.4813" cy="752.7832" fill="#ADD1B2" rx="12.375" ry="12.375" style="stroke: #A80036; stroke-width: 1.125;"/><path d="M306.7313,748.8457 Q306.9598,748.2832 307.2234,748.002 Q307.4871,747.7207 307.7859,747.7207 Q308.3133,747.7207 308.6473,748.0371 Q308.9813,748.3535 308.9813,749.0918 L308.9813,750.8496 Q308.9813,751.5879 308.6648,751.9043 Q308.3484,752.2207 307.8563,752.2207 Q307.4168,752.2207 307.1355,752.0273 Q306.8543,751.834 306.7313,751.3242 Q306.6785,750.9727 306.4852,750.7793 Q306.1336,750.4102 305.5008,750.1992 Q304.868,749.9707 304.2352,749.9707 Q303.4441,749.9707 302.7762,750.2871 Q302.1258,750.6035 301.616,751.3066 Q301.1063,752.0098 301.1063,752.9766 L301.1063,754.0137 Q301.1063,755.1738 302.0555,755.9473 Q303.0047,756.7207 304.6922,756.7207 Q305.6941,756.7207 306.3973,756.4922 Q306.8016,756.3691 307.2586,755.9648 Q307.5574,755.7363 307.7156,755.666 Q307.8738,755.5957 308.0672,755.5957 Q308.4363,755.5957 308.7,755.8945 Q308.9813,756.1758 308.9813,756.5801 Q308.9813,756.9668 308.5945,757.4238 Q308.032,758.0918 307.1355,758.4609 Q305.9578,758.9707 304.5164,758.9707 Q302.8289,758.9707 301.4754,758.3027 Q300.3855,757.7754 299.6121,756.6328 Q298.8563,755.4902 298.8563,754.1367 L298.8563,752.9063 Q298.8563,751.5 299.5242,750.2695 Q300.2098,749.0391 301.3875,748.3887 Q302.5828,747.7207 303.9188,747.7207 Q304.7273,747.7207 305.4305,748.002 Q306.1336,748.2832 306.7313,748.8457 Z "/><text fill="#000000" font-family="sans-serif" font-size="13.5" lengthAdjust="spacingAndGlyphs" textLength="39.375" x="325.5188" y="758.3071">Admin</text><line style="stroke: #A80036; stroke-width: 1.6875;" x1="264.9375" x2="390.9375" y1="770.7832" y2="770.7832"/><line style="stroke: #A80036; stroke-width: 1.6875;" x1="264.9375" x2="390.9375" y1="779.7832" y2="779.7832"/><ellipse cx="276.1875" cy="792.1582" fill="#84BE84" rx="3.375" ry="3.375" style="stroke: #038048; stroke-width: 1.125;"/><text fill="#000000" font-family="sans-serif" font-size="12.375" lengthAdjust="spacingAndGlyphs" textLength="99" x="286.3125" y="797.1295">void deleteOrder()</text><ellipse cx="276.1875" cy="807.7236" fill="#84BE84" rx="3.375" ry="3.375" style="stroke: #038048; stroke-width: 1.125;"/><text fill="#000000" font-family="sans-serif" font-size="12.375" lengthAdjust="spacingAndGlyphs" textLength="88.875" x="286.3125" y="812.6949">void refillOrder()</text><ellipse cx="276.1875" cy="823.2891" fill="#84BE84" rx="3.375" ry="3.375" style="stroke: #038048; stroke-width: 1.125;"/><text fill="#000000" font-family="sans-serif" font-size="12.375" lengthAdjust="spacingAndGlyphs" textLength="88.875" x="286.3125" y="828.2604">void shipOrder()</text><!--MD5=[673910a9f773ff914485e8446e66c926]
reverse link Winehouse to Order--><path d="M327.9375,397.2146 C327.9375,419.3265 327.9375,441.2156 327.9375,460.767 " fill="none" id="Winehouse&lt;-Order" style="stroke: #A80036; stroke-width: 1.125;"/><polygon fill="#A80036" points="327.9375,382.287,323.4375,389.037,327.9375,395.787,332.4375,389.037,327.9375,382.287" style="stroke: #A80036; stroke-width: 1.125;"/><!--MD5=[1095edcc97b63d3f27ab6957ed78b770]
reverse link Winehouse to Person--><path d="M428.8793,269.7746 C521.2148,296.4585 652.4786,350.7307 713.8125,452.9707 C763.5353,535.8573 744.201,583.4133 701.4375,670.0957 C695.8024,681.519 688.8128,692.7937 681.2044,703.551 " fill="none" id="Winehouse&lt;-Person" style="stroke: #A80036; stroke-width: 1.125;"/><polygon fill="#A80036" points="414.6964,265.8033,419.9835,271.9563,427.6966,269.4425,422.4095,263.2895,414.6964,265.8033" style="stroke: #A80036; stroke-width: 1.125;"/><!--MD5=[7705f786992c1d3f465b38cfd8662418]
reverse link Winehouse to Bottle--><path d="M231.408,358.7632 C191.0509,405.4485 146.6314,456.834 116.4897,491.7022 " fill="none" id="Winehouse&lt;-Bottle" style="stroke: #A80036; stroke-width: 1.125;"/><polygon fill="#A80036" points="241.0268,347.6358,233.2081,349.7994,232.198,357.8487,240.0167,355.6852,241.0268,347.6358" style="stroke: #A80036; stroke-width: 1.125;"/><!--MD5=[10549633b7e5298b7d50190a80c841ed]
link Client to Wine--><path d="M501.669,580.5907 C405.2902,625.6965 267.8783,690.3828 243.5625,703.8457 C230.3933,711.1368 216.7245,719.2526 203.4574,727.446 " fill="none" id="Client-Wine" style="stroke: #A80036; stroke-width: 1.125;"/><!--MD5=[d539e0a27b53237e100ebbf9164540b5]
link Order to Admin--><path d="M327.9375,608.2387 C327.9375,648.8017 327.9375,698.3073 327.9375,734.4783 " fill="none" id="Order-Admin" style="stroke: #A80036; stroke-width: 1.125;"/><!--MD5=[4ccb4dd1e27eeb27eea0a8d68b3aa190]
link Client to Person--><path d="M600.8591,616.3792 C601.6061,637.0016 602.4184,659.4566 603.2003,681.0386 " fill="none" id="Client-&gt;Person" style="stroke: #A80036; stroke-width: 1.125;"/><polygon fill="none" points="611.0708,680.772,604.0148,703.542,595.3309,681.3412,611.0708,680.772" style="stroke: #A80036; stroke-width: 1.125;"/><text fill="#000000" font-family="sans-serif" font-size="14.625" lengthAdjust="spacingAndGlyphs" textLength="86.625" x="604.6875" y="666.1527">«Inheritance»</text><!--MD5=[33f8ed7b79d8f56217be50046b27eea3]
link Admin to Person--><path d="M392.2965,785.4082 C423.3184,785.4082 461.4086,785.4082 496.845,785.4082 " fill="none" id="Admin-&gt;Person" style="stroke: #A80036; stroke-width: 1.125;"/><polygon fill="none" points="497.1488,777.5331,519.6488,785.4082,497.1488,793.2831,497.1488,777.5331" style="stroke: #A80036; stroke-width: 1.125;"/><text fill="#000000" font-family="sans-serif" font-size="14.625" lengthAdjust="spacingAndGlyphs" textLength="86.625" x="412.5938" y="778.0902">«Inheritance»</text><!--MD5=[5a8cb97690d92b5b29a90d6e34ecffd1]
link Wine to Bottle--><path d="M109.0703,727.4122 C103.039,687.0202 94.9734,633.0045 88.9398,592.5978 " fill="none" id="Wine-&gt;Bottle" style="stroke: #A80036; stroke-width: 1.125;"/><polygon fill="#A80036" points="86.7353,577.8345,83.2815,585.175,88.7291,591.1864,92.1828,583.8458,86.7353,577.8345" style="stroke: #A80036; stroke-width: 1.125;"/><text fill="#000000" font-family="sans-serif" font-size="14.625" lengthAdjust="spacingAndGlyphs" textLength="55.125" x="101.8125" y="666.1527">contains</text><text fill="#000000" font-family="sans-serif" font-size="14.625" lengthAdjust="spacingAndGlyphs" textLength="7.875" x="99.4474" y="715.1735">1</text><text fill="#000000" font-family="sans-serif" font-size="14.625" lengthAdjust="spacingAndGlyphs" textLength="5.625" x="81.6439" y="601.0836">*</text><!--MD5=[b9821078e3fa7d3e006f0034d2699bbc]
link Bottle to Order--><path d="M154.3601,534.5332 C179.7221,534.5332 208.4344,534.5332 235.1014,534.5332 " fill="none" id="Bottle-&gt;Order" style="stroke: #A80036; stroke-width: 1.125;"/><polygon fill="#FFFFFF" points="250.0965,534.5332,243.3465,530.0332,236.5965,534.5332,243.3465,539.0332,250.0965,534.5332" style="stroke: #A80036; stroke-width: 1.125;"/><text fill="#000000" font-family="sans-serif" font-size="14.625" lengthAdjust="spacingAndGlyphs" textLength="55.125" x="174.6563" y="527.2152">contains</text><text fill="#000000" font-family="sans-serif" font-size="14.625" lengthAdjust="spacingAndGlyphs" textLength="7.875" x="163.3627" y="530.7188">1</text><text fill="#000000" font-family="sans-serif" font-size="14.625" lengthAdjust="spacingAndGlyphs" textLength="5.625" x="235.65" y="530.7515">*</text><!--MD5=[1bef3bc5a00a28934e9de88f1e28975b]
reverse link Order to Client--><path d="M420.3653,534.5332 C446.5586,534.5332 475.1359,534.5332 501.5576,534.5332 " fill="none" id="Order&lt;-Client" style="stroke: #A80036; stroke-width: 1.125;"/><polygon fill="#FFFFFF" points="405.6705,534.5332,412.4205,539.0332,419.1705,534.5332,412.4205,530.0332,405.6705,534.5332" style="stroke: #A80036; stroke-width: 1.125;"/><text fill="#000000" font-family="sans-serif" font-size="14.625" lengthAdjust="spacingAndGlyphs" textLength="55.125" x="426.0938" y="527.2152">contains</text><text fill="#000000" font-family="sans-serif" font-size="14.625" lengthAdjust="spacingAndGlyphs" textLength="5.625" x="414.4802" y="530.7515">*</text><text fill="#000000" font-family="sans-serif" font-size="14.625" lengthAdjust="spacingAndGlyphs" textLength="7.875" x="484.7481" y="530.9387">1</text><!--MD5=[2b6e45c93a79ee051955d85c27ff0a4f]
@startuml
title Class Diagram

package Database <<Database>> {
  class Winehouse{
    -bottles : ArrayList<Bottle>
    -users : ArrayList<Person>
    -orders : ArrayList<Order>
    +void registration()
    +void addBottle()
    +void addOrder()
    +void deleteOrder()
    +void updateBottle()
    +void checkAvailability()
    +void searchWine()
    +void buyWine()
    +void outofstockWarning()
    +void sendNotification()
    +void cleanOrders()
  }
}
Winehouse *- - Order
Winehouse *- - Person
Winehouse *- - Bottle

class Person {
    __ private data __
    -name : String
    -surname : String
    -username : String
    -password : String
    - - crypted - -
    -hashed_password : String
}

class Client {
    -logged : boolean
    -purchases : ArrayList<Bottle>
    +void registration()
    +void login()
    +void searchWine()
    +void buyWine()
    +void askNotification()
}

Client - - Wine

class Admin {
    +void deleteOrder()
    +void refillOrder()
    +void shipOrder()
}

Admin -up- Order

Person <|-up- Client : <<Inheritance>>
Person <|-left- Admin : <<Inheritance>>

class Wine {
    -name : String
    -year : Integer
    -notes : String
    -vineyards : ArrayList<String>
}

class Bottle {
    -wine : Wine
    -bottleAmount : Integer
}

Bottle "*" *-up- "1" Wine : contains

class Order {
    -buyer : Client
    -orderBottle : Bottle
    -trackingNumber : String
    -processed : boolean
    -notification : boolean
    -shipped : boolean
}

Order "*" o-left- "1" Bottle : contains
Order "*" o-right- "1" Client : contains
@enduml

PlantUML version 1.2019.11(Sun Sep 22 12:02:15 CEST 2019)
(GPL source distribution)
Java Runtime: OpenJDK Runtime Environment
JVM: OpenJDK 64-Bit Server VM
Java Version: 11.0.4+10-b304.69
Operating System: Windows 10
Default Encoding: Cp1252
Language: it
Country: IT
--></g></svg>