<?xml version="1.0" encoding="UTF-8" standalone="no"?><svg xmlns="http://www.w3.org/2000/svg" xmlns:xlink="http://www.w3.org/1999/xlink" contentScriptType="application/ecmascript" contentStyleType="text/css" height="339px" preserveAspectRatio="none" style="width:693px;height:339px;" version="1.1" viewBox="0 0 693 339" width="693px" zoomAndPan="magnify"><defs><filter height="300%" id="ftt0afw5tcer3" width="300%" x="-1" y="-1"><feGaussianBlur result="blurOut" stdDeviation="2.0"/><feColorMatrix in="blurOut" result="blurOut2" type="matrix" values="0 0 0 0 0 0 0 0 0 0 0 0 0 0 0 0 0 0 .4 0"/><feOffset dx="4.0" dy="4.0" in="blurOut2" result="blurOut3"/><feBlend in="SourceGraphic" in2="blurOut3" mode="normal"/></filter></defs><g><text fill="#000000" font-family="sans-serif" font-size="18" lengthAdjust="spacingAndGlyphs" textLength="151" x="282.5" y="18.6855">Use Case Diagram</text><!--MD5=[05be698b82ac75edede35a5bad6d43fb]
cluster Winehouse_Database--><rect fill="#FFFFFF" filter="url(#ftt0afw5tcer3)" height="282" style="stroke: #000000; stroke-width: 1.5;" width="406" x="276" y="46.6406"/><text fill="#000000" font-family="sans-serif" font-size="14" font-weight="bold" lengthAdjust="spacingAndGlyphs" textLength="152" x="403" y="63.1738">Winehouse_Database</text><ellipse cx="350.2401" cy="98.5923" fill="#FEFECE" filter="url(#ftt0afw5tcer3)" rx="56.7401" ry="15.4517" style="stroke: #A80036; stroke-width: 1.5;"/><text fill="#000000" font-family="sans-serif" font-size="14" lengthAdjust="spacingAndGlyphs" textLength="76" x="312.2401" y="103.897">Registration</text><ellipse cx="350.2487" cy="164.5923" fill="#FEFECE" filter="url(#ftt0afw5tcer3)" rx="27.7487" ry="15.4517" style="stroke: #A80036; stroke-width: 1.5;"/><text fill="#000000" font-family="sans-serif" font-size="14" lengthAdjust="spacingAndGlyphs" textLength="35" x="332.7487" y="169.897">Login</text><ellipse cx="350.1543" cy="230.5923" fill="#FEFECE" filter="url(#ftt0afw5tcer3)" rx="58.1543" ry="15.4517" style="stroke: #A80036; stroke-width: 1.5;"/><text fill="#000000" font-family="sans-serif" font-size="14" lengthAdjust="spacingAndGlyphs" textLength="78" x="311.1543" y="235.897">Refill Bottles</text><ellipse cx="349.7904" cy="296.5923" fill="#FEFECE" filter="url(#ftt0afw5tcer3)" rx="51.7904" ry="15.4517" style="stroke: #A80036; stroke-width: 1.5;"/><text fill="#000000" font-family="sans-serif" font-size="14" lengthAdjust="spacingAndGlyphs" textLength="69" x="315.2904" y="301.897">Ship Order</text><ellipse cx="597.7756" cy="182.5923" fill="#FEFECE" filter="url(#ftt0afw5tcer3)" rx="60.2756" ry="15.4517" style="stroke: #A80036; stroke-width: 1.5;"/><text fill="#000000" font-family="sans-serif" font-size="14" lengthAdjust="spacingAndGlyphs" textLength="81" x="557.2756" y="187.897">Search Wine</text><ellipse cx="597.9264" cy="266.5923" fill="#FEFECE" filter="url(#ftt0afw5tcer3)" rx="45.4264" ry="15.4517" style="stroke: #A80036; stroke-width: 1.5;"/><text fill="#000000" font-family="sans-serif" font-size="14" lengthAdjust="spacingAndGlyphs" textLength="60" x="567.9264" y="271.897">Buy Wine</text><ellipse cx="598.1311" cy="98.6668" fill="#FEFECE" filter="url(#ftt0afw5tcer3)" rx="68.1311" ry="16.0262" style="stroke: #A80036; stroke-width: 1.5;"/><text fill="#000000" font-family="sans-serif" font-size="14" lengthAdjust="spacingAndGlyphs" textLength="96" x="550.1311" y="103.9715">Ask Notification</text><!--MD5=[97ab183161fd5d1db7fba7485cf76add]
entity Admin--><ellipse cx="209.5" cy="226.1406" fill="#FEFECE" filter="url(#ftt0afw5tcer3)" rx="8" ry="8" style="stroke: #A80036; stroke-width: 2.0;"/><path d="M209.5,234.1406 L209.5,261.1406 M196.5,242.1406 L222.5,242.1406 M209.5,261.1406 L196.5,276.1406 M209.5,261.1406 L222.5,276.1406 " fill="none" filter="url(#ftt0afw5tcer3)" style="stroke: #A80036; stroke-width: 2.0;"/><text fill="#000000" font-family="sans-serif" font-size="14" lengthAdjust="spacingAndGlyphs" textLength="39" x="190" y="297.6738">Admin</text><!--MD5=[0ba5ee7700168656dc1b457c6fe9fdac]
entity Client--><ellipse cx="209.5" cy="106.1406" fill="#FEFECE" filter="url(#ftt0afw5tcer3)" rx="8" ry="8" style="stroke: #A80036; stroke-width: 2.0;"/><path d="M209.5,114.1406 L209.5,141.1406 M196.5,122.1406 L222.5,122.1406 M209.5,141.1406 L196.5,156.1406 M209.5,141.1406 L222.5,156.1406 " fill="none" filter="url(#ftt0afw5tcer3)" style="stroke: #A80036; stroke-width: 2.0;"/><text fill="#000000" font-family="sans-serif" font-size="14" lengthAdjust="spacingAndGlyphs" textLength="36" x="191.5" y="177.6738">Client</text><!--MD5=[aa9590aded7922f1f97871b066948052]
entity Person--><ellipse cx="28.5" cy="159.1406" fill="#FEFECE" filter="url(#ftt0afw5tcer3)" rx="8" ry="8" style="stroke: #A80036; stroke-width: 2.0;"/><path d="M28.5,167.1406 L28.5,194.1406 M15.5,175.1406 L41.5,175.1406 M28.5,194.1406 L15.5,209.1406 M28.5,194.1406 L41.5,209.1406 " fill="none" filter="url(#ftt0afw5tcer3)" style="stroke: #A80036; stroke-width: 2.0;"/><text fill="#000000" font-family="sans-serif" font-size="14" lengthAdjust="spacingAndGlyphs" textLength="45" x="6" y="230.6738">Person</text><!--MD5=[4101c5c763dd1cd15387df186fdf712a]
link Person to Admin--><path d="M51.0916,199.7226 C80.7759,210.8336 134.638,230.9936 170.987,244.5996 " fill="none" id="Person-&gt;Admin" style="stroke: #A80036; stroke-width: 1.0;"/><polygon fill="none" points="173.54,238.0806,189.817,251.6475,168.632,251.1923,173.54,238.0806" style="stroke: #A80036; stroke-width: 1.0;"/><text fill="#000000" font-family="sans-serif" font-size="13" lengthAdjust="spacingAndGlyphs" textLength="77" x="82" y="207.1357">«inheritance»</text><!--MD5=[360914aa33458592fa5b52b45d72aa28]
link Person to Client--><path d="M51.0916,185.2476 C81.1028,176.3616 135.827,160.1586 172.182,149.3936 " fill="none" id="Person-&gt;Client" style="stroke: #A80036; stroke-width: 1.0;"/><polygon fill="none" points="170.205,142.6796,191.369,143.7126,174.179,156.1026,170.205,142.6796" style="stroke: #A80036; stroke-width: 1.0;"/><text fill="#000000" font-family="sans-serif" font-size="13" lengthAdjust="spacingAndGlyphs" textLength="77" x="82" y="151.1357">«inheritance»</text><!--MD5=[380e91a6e4653f9e687ad78123481a4f]
link Client to Registration--><path d="M227.761,133.6556 C248.355,127.7076 283.405,117.5846 310.538,109.7486 " fill="none" id="Client-Registration" style="stroke: #A80036; stroke-width: 1.0;"/><!--MD5=[db16fc3f983be5e6c64e6c6081602ec1]
link Client to Login--><path d="M227.761,141.8806 C251.908,146.4136 295.93,154.6776 323.76,159.9026 " fill="none" id="Client-Login" style="stroke: #A80036; stroke-width: 1.0;"/><!--MD5=[1eb4c8c9732c5ae437d7f45a88cc8a94]
link Admin to Refill Bottles--><path d="M229.179,254.8644 C248.081,251.043 278.036,244.987 303.266,239.8866 " fill="none" id="Admin-Refill Bottles" style="stroke: #A80036; stroke-width: 1.0;"/><!--MD5=[d729adc95213b2dc0e21193f707e502c]
link Admin to Ship Order--><path d="M229.179,263.7654 C250.075,269.4986 284.478,278.9378 311.073,286.2346 " fill="none" id="Admin-Ship Order" style="stroke: #A80036; stroke-width: 1.0;"/><!--MD5=[b9ff402da954f026696d4116fc0457ce]
reverse link Login to Search Wine--><path d="M382.463,166.9426 C421.935,169.8306 490.374,174.8386 539.343,178.4216 " fill="none" id="Login&lt;-Search Wine" style="stroke: #A80036; stroke-width: 1.0; stroke-dasharray: 7.0,7.0;"/><polygon fill="#A80036" points="377.326,166.5666,386.0094,171.2141,382.3126,166.9323,386.5944,163.2356,377.326,166.5666" style="stroke: #A80036; stroke-width: 1.0;"/><text fill="#000000" font-family="sans-serif" font-size="13" lengthAdjust="spacingAndGlyphs" textLength="60" x="439" y="168.1357">«extends»</text><!--MD5=[0ef0fbdaaca4e08227c9f1cfa708fa3c]
link Buy Wine to Search Wine--><path d="M598,250.8408 C598,237.4656 598,218.1876 598,203.5376 " fill="none" id="Buy Wine-&gt;Search Wine" style="stroke: #A80036; stroke-width: 1.0; stroke-dasharray: 7.0,7.0;"/><polygon fill="#A80036" points="598,198.3696,594,207.3696,598,203.3696,602,207.3696,598,198.3696" style="stroke: #A80036; stroke-width: 1.0;"/><text fill="#000000" font-family="sans-serif" font-size="13" lengthAdjust="spacingAndGlyphs" textLength="60" x="556" y="230.1357">«extends»</text><!--MD5=[82c8e1688cc793af81a43e0ede1505bc]
reverse link Search Wine to Ask Notification--><path d="M598,161.6996 C598,147.1336 598,128.0076 598,114.6556 " fill="none" id="Search Wine&lt;-Ask Notification" style="stroke: #A80036; stroke-width: 1.0; stroke-dasharray: 7.0,7.0;"/><polygon fill="#A80036" points="598,166.8406,602,157.8406,598,161.8406,594,157.8406,598,166.8406" style="stroke: #A80036; stroke-width: 1.0;"/><text fill="#000000" font-family="sans-serif" font-size="13" lengthAdjust="spacingAndGlyphs" textLength="60" x="556" y="146.3857">«extends»</text><!--MD5=[f8369318e5dda5bb16c652aea0326416]
@startuml

title Use Case Diagram

left to right direction

actor Admin
actor Client
actor Person

Person -down-|> (Admin) : <<inheritance>>
Person -right-|> (Client) : <<inheritance>>

rectangle  Winehouse_Database {
    Client - - (Registration)
    Client -down- (Login)
    Admin - - (Refill Bottles)
    Admin - - (Ship Order)
    (Login) <.. (Search Wine) : <<extends>>
    (Search Wine) <.left. (Buy Wine) : <<extends>>
    (Search Wine) <.right. (Ask Notification) : <<extends>>
}

@enduml

PlantUML version 1.2019.10(Fri Sep 13 22:53:03 CEST 2019)
(GPL source distribution)
Java Runtime: OpenJDK Runtime Environment
JVM: OpenJDK 64-Bit Server VM
Java Version: 11.0.4+10-b304.69
Operating System: Windows 10
Default Encoding: Cp1252
Language: it
Country: IT
--></g></svg>