<?xml version="1.0" encoding="UTF-8" standalone="no"?><svg xmlns="http://www.w3.org/2000/svg" xmlns:xlink="http://www.w3.org/1999/xlink" contentScriptType="application/ecmascript" contentStyleType="text/css" height="423px" preserveAspectRatio="none" style="width:622px;height:423px;" version="1.1" viewBox="0 0 622 423" width="622px" zoomAndPan="magnify"><defs><filter height="300%" id="f1168waelfk775" width="300%" x="-1" y="-1"><feGaussianBlur result="blurOut" stdDeviation="2.0"/><feColorMatrix in="blurOut" result="blurOut2" type="matrix" values="0 0 0 0 0 0 0 0 0 0 0 0 0 0 0 0 0 0 .4 0"/><feOffset dx="4.0" dy="4.0" in="blurOut2" result="blurOut3"/><feBlend in="SourceGraphic" in2="blurOut3" mode="normal"/></filter></defs><g><text fill="#000000" font-family="sans-serif" font-size="18" lengthAdjust="spacingAndGlyphs" textLength="151" x="247" y="18.6855">Use Case Diagram</text><!--MD5=[fc1785b12a2b5ce90684b74333cc46cf]
cluster Winehouse--><rect fill="#FFFFFF" filter="url(#f1168waelfk775)" height="366" style="stroke: #000000; stroke-width: 1.5;" width="423" x="188" y="46.6406"/><text fill="#000000" font-family="sans-serif" font-size="14" font-weight="bold" lengthAdjust="spacingAndGlyphs" textLength="79" x="360" y="63.1738">Winehouse</text><ellipse cx="272.8716" cy="98.8149" fill="#FEFECE" filter="url(#f1168waelfk775)" rx="68.8716" ry="16.1743" style="stroke: #A80036; stroke-width: 1.5;"/><text fill="#000000" font-family="sans-serif" font-size="14" lengthAdjust="spacingAndGlyphs" textLength="98" x="223.8716" y="104.1196">Make Purchase</text><ellipse cx="527.1311" cy="120.6668" fill="#FEFECE" filter="url(#f1168waelfk775)" rx="68.1311" ry="16.0262" style="stroke: #A80036; stroke-width: 1.5;"/><text fill="#000000" font-family="sans-serif" font-size="14" lengthAdjust="spacingAndGlyphs" textLength="96" x="479.1311" y="125.9715">Ask Notification</text><ellipse cx="272.7756" cy="182.5923" fill="#FEFECE" filter="url(#f1168waelfk775)" rx="60.2756" ry="15.4517" style="stroke: #A80036; stroke-width: 1.5;"/><text fill="#000000" font-family="sans-serif" font-size="14" lengthAdjust="spacingAndGlyphs" textLength="81" x="232.2756" y="187.897">Search Wine</text><ellipse cx="273.2401" cy="248.5923" fill="#FEFECE" filter="url(#f1168waelfk775)" rx="56.7401" ry="15.4517" style="stroke: #A80036; stroke-width: 1.5;"/><text fill="#000000" font-family="sans-serif" font-size="14" lengthAdjust="spacingAndGlyphs" textLength="76" x="235.2401" y="253.897">Registration</text><ellipse cx="273.1543" cy="314.5923" fill="#FEFECE" filter="url(#f1168waelfk775)" rx="58.1543" ry="15.4517" style="stroke: #A80036; stroke-width: 1.5;"/><text fill="#000000" font-family="sans-serif" font-size="14" lengthAdjust="spacingAndGlyphs" textLength="78" x="234.1543" y="319.897">Refill Bottles</text><ellipse cx="272.7904" cy="380.5923" fill="#FEFECE" filter="url(#f1168waelfk775)" rx="51.7904" ry="15.4517" style="stroke: #A80036; stroke-width: 1.5;"/><text fill="#000000" font-family="sans-serif" font-size="14" lengthAdjust="spacingAndGlyphs" textLength="69" x="238.2904" y="385.897">Ship Order</text><!--MD5=[97ab183161fd5d1db7fba7485cf76add]
entity Admin--><ellipse cx="73.5" cy="332.1406" fill="#FEFECE" filter="url(#f1168waelfk775)" rx="8" ry="8" style="stroke: #A80036; stroke-width: 2.0;"/><path d="M73.5,340.1406 L73.5,367.1406 M60.5,348.1406 L86.5,348.1406 M73.5,367.1406 L60.5,382.1406 M73.5,367.1406 L86.5,382.1406 " fill="none" filter="url(#f1168waelfk775)" style="stroke: #A80036; stroke-width: 2.0;"/><text fill="#000000" font-family="sans-serif" font-size="14" lengthAdjust="spacingAndGlyphs" textLength="39" x="54" y="403.6738">Admin</text><!--MD5=[847ddcb6c2e55db44df4b9b72d386801]
entity Logged_Client--><ellipse cx="73.5" cy="66.1406" fill="#FEFECE" filter="url(#f1168waelfk775)" rx="8" ry="8" style="stroke: #A80036; stroke-width: 2.0;"/><path d="M73.5,74.1406 L73.5,101.1406 M60.5,82.1406 L86.5,82.1406 M73.5,101.1406 L60.5,116.1406 M73.5,101.1406 L86.5,116.1406 " fill="none" filter="url(#f1168waelfk775)" style="stroke: #A80036; stroke-width: 2.0;"/><text fill="#000000" font-family="sans-serif" font-size="14" lengthAdjust="spacingAndGlyphs" textLength="92" x="27.5" y="137.6738">Logged_Client</text><!--MD5=[bb5216bf8fa34b35587ca9ec6c2a9986]
entity Not_Registered_User--><ellipse cx="73.5" cy="195.1406" fill="#FEFECE" filter="url(#f1168waelfk775)" rx="8" ry="8" style="stroke: #A80036; stroke-width: 2.0;"/><path d="M73.5,203.1406 L73.5,230.1406 M60.5,211.1406 L86.5,211.1406 M73.5,230.1406 L60.5,245.1406 M73.5,230.1406 L86.5,245.1406 " fill="none" filter="url(#f1168waelfk775)" style="stroke: #A80036; stroke-width: 2.0;"/><text fill="#000000" font-family="sans-serif" font-size="14" lengthAdjust="spacingAndGlyphs" textLength="135" x="6" y="266.6738">Not_Registered_User</text><!--MD5=[b2d25b56fbf280607da49e5b6e4a03cd]
link Logged_Client to Make Purchase--><path d="M119.81,98.6406 C144.637,98.6406 175.913,98.6406 203.645,98.6406 " fill="none" id="Logged_Client-Make Purchase" style="stroke: #A80036; stroke-width: 1.0;"/><!--MD5=[d13ef9bf12bf1cd66630ff4d46d88451]
link Logged_Client to Ask Notification--><path d="M119.702,80.6526 C138.095,74.2416 159.754,67.8226 180,64.6406 C251.127,53.4626 270.784,54.0436 342,64.6406 C395.67,72.6266 455.343,93.0386 491.773,106.8826 " fill="none" id="Logged_Client-Ask Notification" style="stroke: #A80036; stroke-width: 1.0;"/><!--MD5=[ee0d52dec3dcbb4adbab71dbd4e9a342]
link Logged_Client to Search Wine--><path d="M119.81,117.9116 C156.937,133.7026 208.484,155.6266 241.037,169.4716 " fill="none" id="Logged_Client-Search Wine" style="stroke: #A80036; stroke-width: 1.0;"/><!--MD5=[ee0d2536699d00bc1428186e1437b1e4]
link Not_Registered_User to Registration--><path d="M141.089,234.7206 C166.846,237.4596 195.879,240.5466 220.048,243.1166 " fill="none" id="Not_Registered_User-Registration" style="stroke: #A80036; stroke-width: 1.0;"/><!--MD5=[daa1ada7fa34f6b32214315c8296ead6]
link Not_Registered_User to Search Wine--><path d="M141.089,212.4686 C169.421,206.0126 201.719,198.6536 227.144,192.8606 " fill="none" id="Not_Registered_User-Search Wine" style="stroke: #A80036; stroke-width: 1.0;"/><!--MD5=[1eb4c8c9732c5ae437d7f45a88cc8a94]
link Admin to Refill Bottles--><path d="M93.0803,359.9367 C124.289,352.0359 187.969,335.9144 230.322,325.1916 " fill="none" id="Admin-Refill Bottles" style="stroke: #A80036; stroke-width: 1.0;"/><!--MD5=[d729adc95213b2dc0e21193f707e502c]
link Admin to Ship Order--><path d="M93.0803,366.1458 C122.464,368.5263 180.634,373.2388 222.686,376.6455 " fill="none" id="Admin-Ship Order" style="stroke: #A80036; stroke-width: 1.0;"/><!--MD5=[36d3417cb8fa4a5330d5f102a3fea50d]
link Make Purchase to Search Wine--><path d="M273,114.6556 C273,128.0076 273,147.1336 273,161.6996 " fill="none" id="Make Purchase-&gt;Search Wine" style="stroke: #A80036; stroke-width: 1.0; stroke-dasharray: 7.0,7.0;"/><polygon fill="#A80036" points="273,166.8406,277,157.8406,273,161.8406,269,157.8406,273,166.8406" style="stroke: #A80036; stroke-width: 1.0;"/><text fill="#000000" font-family="sans-serif" font-size="13" lengthAdjust="spacingAndGlyphs" textLength="55" x="233.5" y="146.3857">«include»</text><!--MD5=[82c8e1688cc793af81a43e0ede1505bc]
reverse link Search Wine to Ask Notification--><path d="M322.177,170.7876 C367.424,159.6556 434.679,143.1086 479.404,132.1046 " fill="none" id="Search Wine&lt;-Ask Notification" style="stroke: #A80036; stroke-width: 1.0; stroke-dasharray: 7.0,7.0;"/><polygon fill="#A80036" points="317.32,171.9826,327.0154,173.7146,322.175,170.7871,325.1025,165.9467,317.32,171.9826" style="stroke: #A80036; stroke-width: 1.0;"/><text fill="#000000" font-family="sans-serif" font-size="13" lengthAdjust="spacingAndGlyphs" textLength="55" x="373" y="142.1357">«include»</text><!--MD5=[fdf826b0bf90011dc8c387ee594a46ea]
@startuml
title Use Case Diagram

left to right direction

actor Admin
actor Logged_Client
actor Not_Registered_User

rectangle  Winehouse {
    Logged_Client - - (Make Purchase)
    Logged_Client - - (Ask Notification)
    Logged_Client - - (Search Wine)

    Not_Registered_User - - (Registration)
    Not_Registered_User - - (Search Wine)

    Admin - - (Refill Bottles)
    Admin - - (Ship Order)

    (Search Wine) <.left. (Make Purchase) : <<include>>
    (Search Wine) <.down. (Ask Notification) : <<include>>
}
@enduml

PlantUML version 1.2019.11(Sun Sep 22 12:02:15 CEST 2019)
(GPL source distribution)
Java Runtime: OpenJDK Runtime Environment
JVM: OpenJDK 64-Bit Server VM
Java Version: 11.0.4+10-b304.77
Operating System: Windows 10
Default Encoding: Cp1252
Language: it
Country: IT
--></g></svg>