<?xml version="1.0" encoding="UTF-8" standalone="no"?><svg xmlns="http://www.w3.org/2000/svg" xmlns:xlink="http://www.w3.org/1999/xlink" contentScriptType="application/ecmascript" contentStyleType="text/css" height="508.75px" preserveAspectRatio="none" style="width:933px;height:508px;" version="1.1" viewBox="0 0 933 508" width="933.75px" zoomAndPan="magnify"><defs><filter height="300%" id="f2cj5gtmdo3c7" width="300%" x="-1" y="-1"><feGaussianBlur result="blurOut" stdDeviation="2.5"/><feColorMatrix in="blurOut" result="blurOut2" type="matrix" values="0 0 0 0 0 0 0 0 0 0 0 0 0 0 0 0 0 0 .4 0"/><feOffset dx="5.0" dy="5.0" in="blurOut2" result="blurOut3"/><feBlend in="SourceGraphic" in2="blurOut3" mode="normal"/></filter></defs><g><text fill="#000000" font-family="sans-serif" font-size="22.5" lengthAdjust="spacingAndGlyphs" textLength="188.75" x="376.25" y="23.3569">Use Case Diagram</text><!--MD5=[fc1785b12a2b5ce90684b74333cc46cf]
cluster Winehouse--><rect fill="#FFFFFF" filter="url(#f2cj5gtmdo3c7)" height="437.5" style="stroke: #000000; stroke-width: 1.875;" width="510" x="181.25" y="58.3008"/><text fill="#000000" font-family="sans-serif" font-size="17.5" font-weight="bold" lengthAdjust="spacingAndGlyphs" textLength="98.75" x="386.875" y="78.9673">Winehouse</text><ellipse cx="287.8001" cy="290.7404" fill="#FEFECE" filter="url(#f2cj5gtmdo3c7)" rx="70.9251" ry="19.3146" style="stroke: #A80036; stroke-width: 1.875;"/><text fill="#000000" font-family="sans-serif" font-size="17.5" lengthAdjust="spacingAndGlyphs" textLength="95" x="240.3001" y="297.3713">Registration</text><ellipse cx="595.3446" cy="164.4904" fill="#FEFECE" filter="url(#f2cj5gtmdo3c7)" rx="75.3446" ry="19.3146" style="stroke: #A80036; stroke-width: 1.875;"/><text fill="#000000" font-family="sans-serif" font-size="17.5" lengthAdjust="spacingAndGlyphs" textLength="101.25" x="544.7196" y="171.1213">Search Wine</text><ellipse cx="287.6639" cy="123.3336" fill="#FEFECE" filter="url(#f2cj5gtmdo3c7)" rx="85.1639" ry="20.0328" style="stroke: #A80036; stroke-width: 1.875;"/><text fill="#000000" font-family="sans-serif" font-size="17.5" lengthAdjust="spacingAndGlyphs" textLength="120" x="227.6639" y="129.9644">Ask Notification</text><ellipse cx="287.3395" cy="207.2687" fill="#FEFECE" filter="url(#f2cj5gtmdo3c7)" rx="86.0895" ry="20.2179" style="stroke: #A80036; stroke-width: 1.875;"/><text fill="#000000" font-family="sans-serif" font-size="17.5" lengthAdjust="spacingAndGlyphs" textLength="122.5" x="226.0895" y="213.8995">Make Purchase</text><ellipse cx="287.6929" cy="455.7404" fill="#FEFECE" filter="url(#f2cj5gtmdo3c7)" rx="72.6929" ry="19.3146" style="stroke: #A80036; stroke-width: 1.875;"/><text fill="#000000" font-family="sans-serif" font-size="17.5" lengthAdjust="spacingAndGlyphs" textLength="97.5" x="238.9429" y="462.3713">Refill Bottles</text><ellipse cx="287.238" cy="373.2404" fill="#FEFECE" filter="url(#f2cj5gtmdo3c7)" rx="64.738" ry="19.3146" style="stroke: #A80036; stroke-width: 1.875;"/><text fill="#000000" font-family="sans-serif" font-size="17.5" lengthAdjust="spacingAndGlyphs" textLength="86.25" x="244.113" y="379.8713">Ship Order</text><!--MD5=[847ddcb6c2e55db44df4b9b72d386801]
entity Logged_Client--><ellipse cx="65" cy="82.6758" fill="#FEFECE" filter="url(#f2cj5gtmdo3c7)" rx="10" ry="10" style="stroke: #A80036; stroke-width: 2.5;"/><path d="M65,92.6758 L65,126.4258 M48.75,102.6758 L81.25,102.6758 M65,126.4258 L48.75,145.1758 M65,126.4258 L81.25,145.1758 " fill="none" filter="url(#f2cj5gtmdo3c7)" style="stroke: #A80036; stroke-width: 2.5;"/><text fill="#000000" font-family="sans-serif" font-size="17.5" lengthAdjust="spacingAndGlyphs" textLength="115" x="7.5" y="172.0923">Logged_Client</text><!--MD5=[bb5216bf8fa34b35587ca9ec6c2a9986]
entity Not_Registered_User--><ellipse cx="834.375" cy="202.6758" fill="#FEFECE" filter="url(#f2cj5gtmdo3c7)" rx="10" ry="10" style="stroke: #A80036; stroke-width: 2.5;"/><path d="M834.375,212.6758 L834.375,246.4258 M818.125,222.6758 L850.625,222.6758 M834.375,246.4258 L818.125,265.1758 M834.375,246.4258 L850.625,265.1758 " fill="none" filter="url(#f2cj5gtmdo3c7)" style="stroke: #A80036; stroke-width: 2.5;"/><text fill="#000000" font-family="sans-serif" font-size="17.5" lengthAdjust="spacingAndGlyphs" textLength="168.75" x="750" y="292.0923">Not_Registered_User</text><!--MD5=[97ab183161fd5d1db7fba7485cf76add]
entity Admin--><ellipse cx="65" cy="376.4258" fill="#FEFECE" filter="url(#f2cj5gtmdo3c7)" rx="10" ry="10" style="stroke: #A80036; stroke-width: 2.5;"/><path d="M65,386.4258 L65,420.1758 M48.75,396.4258 L81.25,396.4258 M65,420.1758 L48.75,438.9258 M65,420.1758 L81.25,438.9258 " fill="none" filter="url(#f2cj5gtmdo3c7)" style="stroke: #A80036; stroke-width: 2.5;"/><text fill="#000000" font-family="sans-serif" font-size="17.5" lengthAdjust="spacingAndGlyphs" textLength="48.75" x="40.625" y="465.8423">Admin</text><!--MD5=[ee0d2536699d00bc1428186e1437b1e4]
link Not_Registered_User to Registration--><path d="M749.5913,250.5895 C641.1638,260.0508 454.13,276.3708 354.9562,285.0233 " fill="none" id="Not_Registered_User-Registration" style="stroke: #A80036; stroke-width: 1.25;"/><!--MD5=[92565073000457ae29860d85d801970a]
link Search Wine to Not_Registered_User--><path d="M642.9875,179.922 C673.335,190.037 713.9375,203.572 749.83,215.5358 " fill="none" id="Search Wine-Not_Registered_User" style="stroke: #A80036; stroke-width: 1.25;"/><!--MD5=[ee0d52dec3dcbb4adbab71dbd4e9a342]
link Logged_Client to Search Wine--><path d="M122.7953,95.8008 C138.1563,89.6195 155.035,83.9583 171.25,80.8008 C259.5913,63.5995 284.4387,69.6833 373.75,80.8008 C423.2225,86.9595 435.785,90.8883 482.5,108.3008 C511.0188,118.9308 541.8038,134.757 563.8475,146.917 " fill="none" id="Logged_Client-Search Wine" style="stroke: #A80036; stroke-width: 1.25;"/><!--MD5=[d13ef9bf12bf1cd66630ff4d46d88451]
link Logged_Client to Ask Notification--><path d="M122.9055,123.3008 C147.095,123.3008 175.8263,123.3008 202.3963,123.3008 " fill="none" id="Logged_Client-Ask Notification" style="stroke: #A80036; stroke-width: 1.25;"/><!--MD5=[b2d25b56fbf280607da49e5b6e4a03cd]
link Logged_Client to Make Purchase--><path d="M122.8409,145.7758 C138.4975,151.9283 155.5113,158.552 171.25,164.5508 C193.9238,173.1933 219.2087,182.5658 240.2825,190.3058 " fill="none" id="Logged_Client-Make Purchase" style="stroke: #A80036; stroke-width: 1.25;"/><!--MD5=[1eb4c8c9732c5ae437d7f45a88cc8a94]
link Admin to Refill Bottles--><path d="M89.378,421.1245 C121.5916,426.7984 181.095,437.2793 226.2838,445.2385 " fill="none" id="Admin-Refill Bottles" style="stroke: #A80036; stroke-width: 1.25;"/><!--MD5=[d729adc95213b2dc0e21193f707e502c]
link Admin to Ship Order--><path d="M89.378,412.4514 C123.1361,405.7382 186.8638,393.065 232.68,383.9533 " fill="none" id="Admin-Ship Order" style="stroke: #A80036; stroke-width: 1.25;"/><!--MD5=[1b6d31ef617ed203066eac07590c4376]
link Ask Notification to Search Wine--><path d="M361.5662,133.1283 C410.0613,139.6745 473.525,148.2395 521.9413,154.7745 " fill="none" id="Ask Notification-&gt;Search Wine" style="stroke: #A80036; stroke-width: 1.25; stroke-dasharray: 7.0,7.0;"/><polygon fill="#A80036" points="528.3688,155.642,517.8885,149.1824,522.1749,154.8062,516.5511,159.0926,528.3688,155.642" style="stroke: #A80036; stroke-width: 1.25;"/><text fill="#000000" font-family="sans-serif" font-size="16.25" lengthAdjust="spacingAndGlyphs" textLength="68.75" x="412.5" y="136.4197">«include»</text><!--MD5=[36d3417cb8fa4a5330d5f102a3fea50d]
link Make Purchase to Search Wine--><path d="M364.2638,197.7845 C400.12,193.2633 443.5525,187.6083 482.5,182.0508 C496.17,180.0995 510.7612,177.902 524.7388,175.7395 " fill="none" id="Make Purchase-&gt;Search Wine" style="stroke: #A80036; stroke-width: 1.25; stroke-dasharray: 7.0,7.0;"/><polygon fill="#A80036" points="531.1125,174.7495,519.2285,171.5351,524.9365,175.7086,520.763,181.4167,531.1125,174.7495" style="stroke: #A80036; stroke-width: 1.25;"/><text fill="#000000" font-family="sans-serif" font-size="16.25" lengthAdjust="spacingAndGlyphs" textLength="68.75" x="412.5" y="177.6697">«include»</text><!--MD5=[62d2052f56dbcb74c70d4c1e00685a18]
@startuml
title Use Case Diagram

left to right direction

actor Logged_Client
actor Not_Registered_User
actor Admin


rectangle  Winehouse {

    Not_Registered_User -right- (Registration)
    Not_Registered_User -up- (Search Wine)
    
    Logged_Client - - (Search Wine)
    Logged_Client - - (Ask Notification)
    Logged_Client - - (Make Purchase)

    Admin - - (Refill Bottles)
    Admin - - (Ship Order)

    (Search Wine) <.up. (Ask Notification) : <<include>>
    (Search Wine) <.up. (Make Purchase) : <<include>>
}
@enduml

PlantUML version 1.2019.11(Sun Sep 22 12:02:15 CEST 2019)
(GPL source distribution)
Java Runtime: OpenJDK Runtime Environment
JVM: OpenJDK 64-Bit Server VM
Java Version: 11.0.4+10-b304.77
Operating System: Windows 10
Default Encoding: Cp1252
Language: it
Country: IT
--></g></svg>