<?xml version="1.0" encoding="UTF-8" standalone="no"?><svg xmlns="http://www.w3.org/2000/svg" xmlns:xlink="http://www.w3.org/1999/xlink" contentScriptType="application/ecmascript" contentStyleType="text/css" height="683px" preserveAspectRatio="none" style="width:717px;height:683px;" version="1.1" viewBox="0 0 717 683" width="717px" zoomAndPan="magnify"><defs><filter height="300%" id="f2ranvefrzq2j" width="300%" x="-1" y="-1"><feGaussianBlur result="blurOut" stdDeviation="2.0"/><feColorMatrix in="blurOut" result="blurOut2" type="matrix" values="0 0 0 0 0 0 0 0 0 0 0 0 0 0 0 0 0 0 .4 0"/><feOffset dx="4.0" dy="4.0" in="blurOut2" result="blurOut3"/><feBlend in="SourceGraphic" in2="blurOut3" mode="normal"/></filter></defs><g><text fill="#000000" font-family="sans-serif" font-size="18" lengthAdjust="spacingAndGlyphs" textLength="125" x="299.5" y="16.708">Class Diagram</text><!--MD5=[815249f79c2c08157ac02b3106e03757]
cluster Database--><path d="M237.5,239.9531 C237.5,229.9531 343.5,229.9531 343.5,229.9531 C343.5,229.9531 449.5,229.9531 449.5,239.9531 L449.5,512.9531 C449.5,522.9531 343.5,522.9531 343.5,522.9531 C343.5,522.9531 237.5,522.9531 237.5,512.9531 L237.5,239.9531 " fill="#FFFFFF" filter="url(#f2ranvefrzq2j)" style="stroke: #000000; stroke-width: 1.5;"/><path d="M237.5,239.9531 C237.5,249.9531 343.5,249.9531 343.5,249.9531 C343.5,249.9531 449.5,249.9531 449.5,239.9531 " fill="none" style="stroke: #000000; stroke-width: 1.5;"/><text fill="#000000" font-family="sans-serif" font-size="14" font-weight="bold" lengthAdjust="spacingAndGlyphs" textLength="73" x="307" y="264.9482">Database</text><!--MD5=[f0ada410d23793807474d2872bfcd402]
class Winehouse--><rect fill="#FEFECE" filter="url(#f2ranvefrzq2j)" height="227.2656" id="Winehouse" style="stroke: #A80036; stroke-width: 1.5;" width="179" x="254" y="279.9531"/><ellipse cx="304.75" cy="295.9531" fill="#ADD1B2" rx="11" ry="11" style="stroke: #A80036; stroke-width: 1.0;"/><path d="M307.0938,291.625 L307.2656,291.7031 C307.4844,291.3906 307.6875,291.2969 307.9844,291.2969 C308.2813,291.2969 308.5625,291.4375 308.7188,291.7031 C308.8125,291.8594 308.8281,291.9844 308.8281,292.4219 L308.8281,293.8438 C308.8281,294.2656 308.7969,294.4531 308.6875,294.6094 C308.5156,294.8281 308.25,294.9688 307.9844,294.9688 C307.7656,294.9688 307.5313,294.8594 307.3906,294.7188 C307.25,294.5938 307.2188,294.4688 307.1563,294.0625 C307.0625,293.6563 306.8906,293.4375 306.4063,293.1563 C305.9375,292.9063 305.3281,292.75 304.75,292.75 C303.0156,292.75 301.7656,294.0625 301.7656,295.8438 L301.7656,296.9375 C301.7656,298.6406 303.0625,299.7344 305.1094,299.7344 C305.875,299.7344 306.5625,299.6094 306.9844,299.3438 C307.1719,299.25 307.1719,299.25 307.625,298.7656 C307.8125,298.5781 308.0156,298.5 308.2344,298.5 C308.7031,298.5 309.0938,298.8906 309.0938,299.3438 C309.0938,299.7344 308.7656,300.1875 308.1875,300.5938 C307.4375,301.1406 306.2813,301.4375 305.0625,301.4375 C302.1719,301.4375 300.0625,299.5469 300.0625,296.9688 L300.0625,295.8438 C300.0625,293.125 302.0625,291.0469 304.6875,291.0469 C305.5625,291.0469 306.1563,291.1875 307.0938,291.625 Z "/><text fill="#000000" font-family="sans-serif" font-size="12" lengthAdjust="spacingAndGlyphs" textLength="69" x="325.25" y="300.1074">Winehouse</text><line style="stroke: #A80036; stroke-width: 1.5;" x1="255" x2="432" y1="311.9531" y2="311.9531"/><rect fill="none" height="6" style="stroke: #C82930; stroke-width: 1.0;" width="6" x="262" y="319.9531"/><text fill="#000000" font-family="sans-serif" font-size="11" lengthAdjust="spacingAndGlyphs" textLength="152" x="274" y="326.1636">bottles : ArrayList&lt;Bottle&gt;</text><rect fill="none" height="6" style="stroke: #C82930; stroke-width: 1.0;" width="6" x="262" y="332.7578"/><text fill="#000000" font-family="sans-serif" font-size="11" lengthAdjust="spacingAndGlyphs" textLength="153" x="274" y="338.9683">users : ArrayList&lt;Person&gt;</text><rect fill="none" height="6" style="stroke: #C82930; stroke-width: 1.0;" width="6" x="262" y="345.5625"/><text fill="#000000" font-family="sans-serif" font-size="11" lengthAdjust="spacingAndGlyphs" textLength="151" x="274" y="351.7729">orders : ArrayList&lt;Order&gt;</text><line style="stroke: #A80036; stroke-width: 1.5;" x1="255" x2="432" y1="358.3672" y2="358.3672"/><ellipse cx="265" cy="369.3672" fill="#84BE84" rx="3" ry="3" style="stroke: #038048; stroke-width: 1.0;"/><text fill="#000000" font-family="sans-serif" font-size="11" lengthAdjust="spacingAndGlyphs" textLength="101" x="274" y="372.5776">void registration()</text><ellipse cx="265" cy="382.1719" fill="#84BE84" rx="3" ry="3" style="stroke: #038048; stroke-width: 1.0;"/><text fill="#000000" font-family="sans-serif" font-size="11" lengthAdjust="spacingAndGlyphs" textLength="89" x="274" y="385.3823">void addBottle()</text><ellipse cx="265" cy="394.9766" fill="#84BE84" rx="3" ry="3" style="stroke: #038048; stroke-width: 1.0;"/><text fill="#000000" font-family="sans-serif" font-size="11" lengthAdjust="spacingAndGlyphs" textLength="89" x="274" y="398.187">void addOrder()</text><ellipse cx="265" cy="407.7813" fill="#84BE84" rx="3" ry="3" style="stroke: #038048; stroke-width: 1.0;"/><text fill="#000000" font-family="sans-serif" font-size="11" lengthAdjust="spacingAndGlyphs" textLength="103" x="274" y="410.9917">void deleteOrder()</text><ellipse cx="265" cy="420.5859" fill="#84BE84" rx="3" ry="3" style="stroke: #038048; stroke-width: 1.0;"/><text fill="#000000" font-family="sans-serif" font-size="11" lengthAdjust="spacingAndGlyphs" textLength="107" x="274" y="423.7964">void updateBottle()</text><ellipse cx="265" cy="433.3906" fill="#84BE84" rx="3" ry="3" style="stroke: #038048; stroke-width: 1.0;"/><text fill="#000000" font-family="sans-serif" font-size="11" lengthAdjust="spacingAndGlyphs" textLength="126" x="274" y="436.6011">void checkAvailability()</text><ellipse cx="265" cy="446.1953" fill="#84BE84" rx="3" ry="3" style="stroke: #038048; stroke-width: 1.0;"/><text fill="#000000" font-family="sans-serif" font-size="11" lengthAdjust="spacingAndGlyphs" textLength="100" x="274" y="449.4058">void searchWine()</text><ellipse cx="265" cy="459" fill="#84BE84" rx="3" ry="3" style="stroke: #038048; stroke-width: 1.0;"/><text fill="#000000" font-family="sans-serif" font-size="11" lengthAdjust="spacingAndGlyphs" textLength="81" x="274" y="462.2104">void buyWine()</text><ellipse cx="265" cy="471.8047" fill="#84BE84" rx="3" ry="3" style="stroke: #038048; stroke-width: 1.0;"/><text fill="#000000" font-family="sans-serif" font-size="11" lengthAdjust="spacingAndGlyphs" textLength="139" x="274" y="475.0151">void outofstockWarning()</text><ellipse cx="265" cy="484.6094" fill="#84BE84" rx="3" ry="3" style="stroke: #038048; stroke-width: 1.0;"/><text fill="#000000" font-family="sans-serif" font-size="11" lengthAdjust="spacingAndGlyphs" textLength="126" x="274" y="487.8198">void sendNotification()</text><ellipse cx="265" cy="497.4141" fill="#84BE84" rx="3" ry="3" style="stroke: #038048; stroke-width: 1.0;"/><text fill="#000000" font-family="sans-serif" font-size="11" lengthAdjust="spacingAndGlyphs" textLength="105" x="274" y="500.6245">void cleanOrders()</text><!--MD5=[cf4d6237fcae255cd2e1656cf84a30e2]
class Order--><rect fill="#FEFECE" filter="url(#f2ranvefrzq2j)" height="99.2188" id="Order" style="stroke: #A80036; stroke-width: 1.5;" width="145" x="271" y="48.4531"/><ellipse cx="321.75" cy="64.4531" fill="#ADD1B2" rx="11" ry="11" style="stroke: #A80036; stroke-width: 1.0;"/><path d="M324.0938,60.125 L324.2656,60.2031 C324.4844,59.8906 324.6875,59.7969 324.9844,59.7969 C325.2813,59.7969 325.5625,59.9375 325.7188,60.2031 C325.8125,60.3594 325.8281,60.4844 325.8281,60.9219 L325.8281,62.3438 C325.8281,62.7656 325.7969,62.9531 325.6875,63.1094 C325.5156,63.3281 325.25,63.4688 324.9844,63.4688 C324.7656,63.4688 324.5313,63.3594 324.3906,63.2188 C324.25,63.0938 324.2188,62.9688 324.1563,62.5625 C324.0625,62.1563 323.8906,61.9375 323.4063,61.6563 C322.9375,61.4063 322.3281,61.25 321.75,61.25 C320.0156,61.25 318.7656,62.5625 318.7656,64.3438 L318.7656,65.4375 C318.7656,67.1406 320.0625,68.2344 322.1094,68.2344 C322.875,68.2344 323.5625,68.1094 323.9844,67.8438 C324.1719,67.75 324.1719,67.75 324.625,67.2656 C324.8125,67.0781 325.0156,67 325.2344,67 C325.7031,67 326.0938,67.3906 326.0938,67.8438 C326.0938,68.2344 325.7656,68.6875 325.1875,69.0938 C324.4375,69.6406 323.2813,69.9375 322.0625,69.9375 C319.1719,69.9375 317.0625,68.0469 317.0625,65.4688 L317.0625,64.3438 C317.0625,61.625 319.0625,59.5469 321.6875,59.5469 C322.5625,59.5469 323.1563,59.6875 324.0938,60.125 Z "/><text fill="#000000" font-family="sans-serif" font-size="12" lengthAdjust="spacingAndGlyphs" textLength="35" x="342.25" y="68.6074">Order</text><line style="stroke: #A80036; stroke-width: 1.5;" x1="272" x2="415" y1="80.4531" y2="80.4531"/><rect fill="none" height="6" style="stroke: #C82930; stroke-width: 1.0;" width="6" x="279" y="88.4531"/><text fill="#000000" font-family="sans-serif" font-size="11" lengthAdjust="spacingAndGlyphs" textLength="76" x="291" y="94.6636">buyer : Client</text><rect fill="none" height="6" style="stroke: #C82930; stroke-width: 1.0;" width="6" x="279" y="101.2578"/><text fill="#000000" font-family="sans-serif" font-size="11" lengthAdjust="spacingAndGlyphs" textLength="109" x="291" y="107.4683">orderBottle : Bottle</text><rect fill="none" height="6" style="stroke: #C82930; stroke-width: 1.0;" width="6" x="279" y="114.0625"/><text fill="#000000" font-family="sans-serif" font-size="11" lengthAdjust="spacingAndGlyphs" textLength="117" x="291" y="120.2729">processed : boolean</text><rect fill="none" height="6" style="stroke: #C82930; stroke-width: 1.0;" width="6" x="279" y="126.8672"/><text fill="#000000" font-family="sans-serif" font-size="11" lengthAdjust="spacingAndGlyphs" textLength="119" x="291" y="133.0776">notification : boolean</text><line style="stroke: #A80036; stroke-width: 1.5;" x1="272" x2="415" y1="139.6719" y2="139.6719"/><!--MD5=[09ce52be0ee7de43c61b6e2d59bf108b]
class Person--><rect fill="#FEFECE" filter="url(#f2ranvefrzq2j)" height="137.6328" id="Person" style="stroke: #A80036; stroke-width: 1.5;" width="176" x="493.5" y="324.4531"/><ellipse cx="555.25" cy="340.4531" fill="#ADD1B2" rx="11" ry="11" style="stroke: #A80036; stroke-width: 1.0;"/><path d="M557.5938,336.125 L557.7656,336.2031 C557.9844,335.8906 558.1875,335.7969 558.4844,335.7969 C558.7813,335.7969 559.0625,335.9375 559.2188,336.2031 C559.3125,336.3594 559.3281,336.4844 559.3281,336.9219 L559.3281,338.3438 C559.3281,338.7656 559.2969,338.9531 559.1875,339.1094 C559.0156,339.3281 558.75,339.4688 558.4844,339.4688 C558.2656,339.4688 558.0313,339.3594 557.8906,339.2188 C557.75,339.0938 557.7188,338.9688 557.6563,338.5625 C557.5625,338.1563 557.3906,337.9375 556.9063,337.6563 C556.4375,337.4063 555.8281,337.25 555.25,337.25 C553.5156,337.25 552.2656,338.5625 552.2656,340.3438 L552.2656,341.4375 C552.2656,343.1406 553.5625,344.2344 555.6094,344.2344 C556.375,344.2344 557.0625,344.1094 557.4844,343.8438 C557.6719,343.75 557.6719,343.75 558.125,343.2656 C558.3125,343.0781 558.5156,343 558.7344,343 C559.2031,343 559.5938,343.3906 559.5938,343.8438 C559.5938,344.2344 559.2656,344.6875 558.6875,345.0938 C557.9375,345.6406 556.7813,345.9375 555.5625,345.9375 C552.6719,345.9375 550.5625,344.0469 550.5625,341.4688 L550.5625,340.3438 C550.5625,337.625 552.5625,335.5469 555.1875,335.5469 C556.0625,335.5469 556.6563,335.6875 557.5938,336.125 Z "/><text fill="#000000" font-family="sans-serif" font-size="12" lengthAdjust="spacingAndGlyphs" textLength="44" x="575.75" y="344.6074">Person</text><line style="stroke: #A80036; stroke-width: 1.5;" x1="494.5" x2="668.5" y1="356.4531" y2="356.4531"/><rect fill="none" height="6" style="stroke: #C82930; stroke-width: 1.0;" width="6" x="501.5" y="381.2578"/><text fill="#000000" font-family="sans-serif" font-size="11" lengthAdjust="spacingAndGlyphs" textLength="78" x="513.5" y="387.4683">name : String</text><rect fill="none" height="6" style="stroke: #C82930; stroke-width: 1.0;" width="6" x="501.5" y="394.0625"/><text fill="#000000" font-family="sans-serif" font-size="11" lengthAdjust="spacingAndGlyphs" textLength="97" x="513.5" y="400.2729">surname : String</text><rect fill="none" height="6" style="stroke: #C82930; stroke-width: 1.0;" width="6" x="501.5" y="406.8672"/><text fill="#000000" font-family="sans-serif" font-size="11" lengthAdjust="spacingAndGlyphs" textLength="104" x="513.5" y="413.0776">username : String</text><rect fill="none" height="6" style="stroke: #C82930; stroke-width: 1.0;" width="6" x="501.5" y="419.6719"/><text fill="#000000" font-family="sans-serif" font-size="11" lengthAdjust="spacingAndGlyphs" textLength="102" x="513.5" y="425.8823">password : String</text><line style="stroke: #A80036; stroke-width: 1.5;" x1="494.5" x2="547.5" y1="370.8555" y2="370.8555"/><text fill="#000000" font-family="sans-serif" font-size="11" lengthAdjust="spacingAndGlyphs" textLength="68" x="547.5" y="374.1636">private data</text><line style="stroke: #A80036; stroke-width: 1.5;" x1="615.5" x2="668.5" y1="370.8555" y2="370.8555"/><rect fill="none" height="6" style="stroke: #C82930; stroke-width: 1.0;" width="6" x="501.5" y="449.2813"/><text fill="#000000" font-family="sans-serif" font-size="11" lengthAdjust="spacingAndGlyphs" textLength="150" x="513.5" y="455.4917">hashed_password : String</text><line style="stroke: #A80036; stroke-width: 1.0;" x1="494.5" x2="560.5" y1="438.8789" y2="438.8789"/><text fill="#000000" font-family="sans-serif" font-size="11" lengthAdjust="spacingAndGlyphs" textLength="42" x="560.5" y="442.187">crypted</text><line style="stroke: #A80036; stroke-width: 1.0;" x1="602.5" x2="668.5" y1="438.8789" y2="438.8789"/><!--MD5=[3465e106eb582bee24e509c05a0d587a]
class Bottle--><rect fill="#FEFECE" filter="url(#f2ranvefrzq2j)" height="73.6094" id="Bottle" style="stroke: #A80036; stroke-width: 1.5;" width="153" x="27" y="60.9531"/><ellipse cx="80.75" cy="76.9531" fill="#ADD1B2" rx="11" ry="11" style="stroke: #A80036; stroke-width: 1.0;"/><path d="M83.0938,72.625 L83.2656,72.7031 C83.4844,72.3906 83.6875,72.2969 83.9844,72.2969 C84.2813,72.2969 84.5625,72.4375 84.7188,72.7031 C84.8125,72.8594 84.8281,72.9844 84.8281,73.4219 L84.8281,74.8438 C84.8281,75.2656 84.7969,75.4531 84.6875,75.6094 C84.5156,75.8281 84.25,75.9688 83.9844,75.9688 C83.7656,75.9688 83.5313,75.8594 83.3906,75.7188 C83.25,75.5938 83.2188,75.4688 83.1563,75.0625 C83.0625,74.6563 82.8906,74.4375 82.4063,74.1563 C81.9375,73.9063 81.3281,73.75 80.75,73.75 C79.0156,73.75 77.7656,75.0625 77.7656,76.8438 L77.7656,77.9375 C77.7656,79.6406 79.0625,80.7344 81.1094,80.7344 C81.875,80.7344 82.5625,80.6094 82.9844,80.3438 C83.1719,80.25 83.1719,80.25 83.625,79.7656 C83.8125,79.5781 84.0156,79.5 84.2344,79.5 C84.7031,79.5 85.0938,79.8906 85.0938,80.3438 C85.0938,80.7344 84.7656,81.1875 84.1875,81.5938 C83.4375,82.1406 82.2813,82.4375 81.0625,82.4375 C78.1719,82.4375 76.0625,80.5469 76.0625,77.9688 L76.0625,76.8438 C76.0625,74.125 78.0625,72.0469 80.6875,72.0469 C81.5625,72.0469 82.1563,72.1875 83.0938,72.625 Z "/><text fill="#000000" font-family="sans-serif" font-size="12" lengthAdjust="spacingAndGlyphs" textLength="37" x="101.25" y="81.1074">Bottle</text><line style="stroke: #A80036; stroke-width: 1.5;" x1="28" x2="179" y1="92.9531" y2="92.9531"/><rect fill="none" height="6" style="stroke: #C82930; stroke-width: 1.0;" width="6" x="35" y="100.9531"/><text fill="#000000" font-family="sans-serif" font-size="11" lengthAdjust="spacingAndGlyphs" textLength="64" x="47" y="107.1636">wine : Wine</text><rect fill="none" height="6" style="stroke: #C82930; stroke-width: 1.0;" width="6" x="35" y="113.7578"/><text fill="#000000" font-family="sans-serif" font-size="11" lengthAdjust="spacingAndGlyphs" textLength="127" x="47" y="119.9683">bottleAmount : Integer</text><line style="stroke: #A80036; stroke-width: 1.5;" x1="28" x2="179" y1="126.5625" y2="126.5625"/><!--MD5=[ed6624c6556d5e7b1bd23032162d20b7]
class Client--><rect fill="#FEFECE" filter="url(#f2ranvefrzq2j)" height="137.6328" id="Client" style="stroke: #A80036; stroke-width: 1.5;" width="199" x="507" y="28.9531"/><ellipse cx="584.75" cy="44.9531" fill="#ADD1B2" rx="11" ry="11" style="stroke: #A80036; stroke-width: 1.0;"/><path d="M587.0938,40.625 L587.2656,40.7031 C587.4844,40.3906 587.6875,40.2969 587.9844,40.2969 C588.2813,40.2969 588.5625,40.4375 588.7188,40.7031 C588.8125,40.8594 588.8281,40.9844 588.8281,41.4219 L588.8281,42.8438 C588.8281,43.2656 588.7969,43.4531 588.6875,43.6094 C588.5156,43.8281 588.25,43.9688 587.9844,43.9688 C587.7656,43.9688 587.5313,43.8594 587.3906,43.7188 C587.25,43.5938 587.2188,43.4688 587.1563,43.0625 C587.0625,42.6563 586.8906,42.4375 586.4063,42.1563 C585.9375,41.9063 585.3281,41.75 584.75,41.75 C583.0156,41.75 581.7656,43.0625 581.7656,44.8438 L581.7656,45.9375 C581.7656,47.6406 583.0625,48.7344 585.1094,48.7344 C585.875,48.7344 586.5625,48.6094 586.9844,48.3438 C587.1719,48.25 587.1719,48.25 587.625,47.7656 C587.8125,47.5781 588.0156,47.5 588.2344,47.5 C588.7031,47.5 589.0938,47.8906 589.0938,48.3438 C589.0938,48.7344 588.7656,49.1875 588.1875,49.5938 C587.4375,50.1406 586.2813,50.4375 585.0625,50.4375 C582.1719,50.4375 580.0625,48.5469 580.0625,45.9688 L580.0625,44.8438 C580.0625,42.125 582.0625,40.0469 584.6875,40.0469 C585.5625,40.0469 586.1563,40.1875 587.0938,40.625 Z "/><text fill="#000000" font-family="sans-serif" font-size="12" lengthAdjust="spacingAndGlyphs" textLength="35" x="605.25" y="49.1074">Client</text><line style="stroke: #A80036; stroke-width: 1.5;" x1="508" x2="705" y1="60.9531" y2="60.9531"/><rect fill="none" height="6" style="stroke: #C82930; stroke-width: 1.0;" width="6" x="515" y="68.9531"/><text fill="#000000" font-family="sans-serif" font-size="11" lengthAdjust="spacingAndGlyphs" textLength="95" x="527" y="75.1636">logged : boolean</text><rect fill="none" height="6" style="stroke: #C82930; stroke-width: 1.0;" width="6" x="515" y="81.7578"/><text fill="#000000" font-family="sans-serif" font-size="11" lengthAdjust="spacingAndGlyphs" textLength="173" x="527" y="87.9683">purchases : ArrayList&lt;Bottle&gt;</text><line style="stroke: #A80036; stroke-width: 1.5;" x1="508" x2="705" y1="94.5625" y2="94.5625"/><ellipse cx="518" cy="105.5625" fill="#84BE84" rx="3" ry="3" style="stroke: #038048; stroke-width: 1.0;"/><text fill="#000000" font-family="sans-serif" font-size="11" lengthAdjust="spacingAndGlyphs" textLength="101" x="527" y="108.7729">void registration()</text><ellipse cx="518" cy="118.3672" fill="#84BE84" rx="3" ry="3" style="stroke: #038048; stroke-width: 1.0;"/><text fill="#000000" font-family="sans-serif" font-size="11" lengthAdjust="spacingAndGlyphs" textLength="62" x="527" y="121.5776">void login()</text><ellipse cx="518" cy="131.1719" fill="#84BE84" rx="3" ry="3" style="stroke: #038048; stroke-width: 1.0;"/><text fill="#000000" font-family="sans-serif" font-size="11" lengthAdjust="spacingAndGlyphs" textLength="100" x="527" y="134.3823">void searchWine()</text><ellipse cx="518" cy="143.9766" fill="#84BE84" rx="3" ry="3" style="stroke: #038048; stroke-width: 1.0;"/><text fill="#000000" font-family="sans-serif" font-size="11" lengthAdjust="spacingAndGlyphs" textLength="81" x="527" y="147.187">void buyWine()</text><ellipse cx="518" cy="156.7813" fill="#84BE84" rx="3" ry="3" style="stroke: #038048; stroke-width: 1.0;"/><text fill="#000000" font-family="sans-serif" font-size="11" lengthAdjust="spacingAndGlyphs" textLength="118" x="527" y="159.9917">void askNotification()</text><!--MD5=[db6d18d8099558415abc41d00477ab92]
class Admin--><rect fill="#FEFECE" filter="url(#f2ranvefrzq2j)" height="86.4141" id="Admin" style="stroke: #A80036; stroke-width: 1.5;" width="129" x="517" y="585.9531"/><ellipse cx="558.55" cy="601.9531" fill="#ADD1B2" rx="11" ry="11" style="stroke: #A80036; stroke-width: 1.0;"/><path d="M560.8938,597.625 L561.0656,597.7031 C561.2844,597.3906 561.4875,597.2969 561.7844,597.2969 C562.0813,597.2969 562.3625,597.4375 562.5188,597.7031 C562.6125,597.8594 562.6281,597.9844 562.6281,598.4219 L562.6281,599.8438 C562.6281,600.2656 562.5969,600.4531 562.4875,600.6094 C562.3156,600.8281 562.05,600.9688 561.7844,600.9688 C561.5656,600.9688 561.3313,600.8594 561.1906,600.7188 C561.05,600.5938 561.0188,600.4688 560.9563,600.0625 C560.8625,599.6563 560.6906,599.4375 560.2063,599.1563 C559.7375,598.9063 559.1281,598.75 558.55,598.75 C556.8156,598.75 555.5656,600.0625 555.5656,601.8438 L555.5656,602.9375 C555.5656,604.6406 556.8625,605.7344 558.9094,605.7344 C559.675,605.7344 560.3625,605.6094 560.7844,605.3438 C560.9719,605.25 560.9719,605.25 561.425,604.7656 C561.6125,604.5781 561.8156,604.5 562.0344,604.5 C562.5031,604.5 562.8938,604.8906 562.8938,605.3438 C562.8938,605.7344 562.5656,606.1875 561.9875,606.5938 C561.2375,607.1406 560.0813,607.4375 558.8625,607.4375 C555.9719,607.4375 553.8625,605.5469 553.8625,602.9688 L553.8625,601.8438 C553.8625,599.125 555.8625,597.0469 558.4875,597.0469 C559.3625,597.0469 559.9563,597.1875 560.8938,597.625 Z "/><text fill="#000000" font-family="sans-serif" font-size="12" lengthAdjust="spacingAndGlyphs" textLength="38" x="578.45" y="606.1074">Admin</text><line style="stroke: #A80036; stroke-width: 1.5;" x1="518" x2="645" y1="617.9531" y2="617.9531"/><line style="stroke: #A80036; stroke-width: 1.5;" x1="518" x2="645" y1="625.9531" y2="625.9531"/><ellipse cx="528" cy="636.9531" fill="#84BE84" rx="3" ry="3" style="stroke: #038048; stroke-width: 1.0;"/><text fill="#000000" font-family="sans-serif" font-size="11" lengthAdjust="spacingAndGlyphs" textLength="103" x="537" y="640.1636">void deleteOrder()</text><ellipse cx="528" cy="649.7578" fill="#84BE84" rx="3" ry="3" style="stroke: #038048; stroke-width: 1.0;"/><text fill="#000000" font-family="sans-serif" font-size="11" lengthAdjust="spacingAndGlyphs" textLength="93" x="537" y="652.9683">void refillOrder()</text><ellipse cx="528" cy="662.5625" fill="#84BE84" rx="3" ry="3" style="stroke: #038048; stroke-width: 1.0;"/><text fill="#000000" font-family="sans-serif" font-size="11" lengthAdjust="spacingAndGlyphs" textLength="92" x="537" y="665.7729">void shipOrder()</text><!--MD5=[bf142c93e294de64ba0f3f4232bfc935]
class Wine--><rect fill="#FEFECE" filter="url(#f2ranvefrzq2j)" height="99.2188" id="Wine" style="stroke: #A80036; stroke-width: 1.5;" width="195" x="6" y="343.9531"/><ellipse cx="84.25" cy="359.9531" fill="#ADD1B2" rx="11" ry="11" style="stroke: #A80036; stroke-width: 1.0;"/><path d="M86.5938,355.625 L86.7656,355.7031 C86.9844,355.3906 87.1875,355.2969 87.4844,355.2969 C87.7813,355.2969 88.0625,355.4375 88.2188,355.7031 C88.3125,355.8594 88.3281,355.9844 88.3281,356.4219 L88.3281,357.8438 C88.3281,358.2656 88.2969,358.4531 88.1875,358.6094 C88.0156,358.8281 87.75,358.9688 87.4844,358.9688 C87.2656,358.9688 87.0313,358.8594 86.8906,358.7188 C86.75,358.5938 86.7188,358.4688 86.6563,358.0625 C86.5625,357.6563 86.3906,357.4375 85.9063,357.1563 C85.4375,356.9063 84.8281,356.75 84.25,356.75 C82.5156,356.75 81.2656,358.0625 81.2656,359.8438 L81.2656,360.9375 C81.2656,362.6406 82.5625,363.7344 84.6094,363.7344 C85.375,363.7344 86.0625,363.6094 86.4844,363.3438 C86.6719,363.25 86.6719,363.25 87.125,362.7656 C87.3125,362.5781 87.5156,362.5 87.7344,362.5 C88.2031,362.5 88.5938,362.8906 88.5938,363.3438 C88.5938,363.7344 88.2656,364.1875 87.6875,364.5938 C86.9375,365.1406 85.7813,365.4375 84.5625,365.4375 C81.6719,365.4375 79.5625,363.5469 79.5625,360.9688 L79.5625,359.8438 C79.5625,357.125 81.5625,355.0469 84.1875,355.0469 C85.0625,355.0469 85.6563,355.1875 86.5938,355.625 Z "/><text fill="#000000" font-family="sans-serif" font-size="12" lengthAdjust="spacingAndGlyphs" textLength="30" x="104.75" y="364.1074">Wine</text><line style="stroke: #A80036; stroke-width: 1.5;" x1="7" x2="200" y1="375.9531" y2="375.9531"/><rect fill="none" height="6" style="stroke: #C82930; stroke-width: 1.0;" width="6" x="14" y="383.9531"/><text fill="#000000" font-family="sans-serif" font-size="11" lengthAdjust="spacingAndGlyphs" textLength="78" x="26" y="390.1636">name : String</text><rect fill="none" height="6" style="stroke: #C82930; stroke-width: 1.0;" width="6" x="14" y="396.7578"/><text fill="#000000" font-family="sans-serif" font-size="11" lengthAdjust="spacingAndGlyphs" textLength="77" x="26" y="402.9683">year : Integer</text><rect fill="none" height="6" style="stroke: #C82930; stroke-width: 1.0;" width="6" x="14" y="409.5625"/><text fill="#000000" font-family="sans-serif" font-size="11" lengthAdjust="spacingAndGlyphs" textLength="78" x="26" y="415.7729">notes : String</text><rect fill="none" height="6" style="stroke: #C82930; stroke-width: 1.0;" width="6" x="14" y="422.3672"/><text fill="#000000" font-family="sans-serif" font-size="11" lengthAdjust="spacingAndGlyphs" textLength="169" x="26" y="428.5776">vineyards : ArrayList&lt;String&gt;</text><line style="stroke: #A80036; stroke-width: 1.5;" x1="7" x2="200" y1="435.1719" y2="435.1719"/><!--MD5=[261fa170a644434392af2404ccd7c55b]
link Order to Winehouse--><path d="M343.5,147.7481 C343.5,180.2511 343.5,224.5511 343.5,266.5311 " fill="none" id="Order-&gt;Winehouse" style="stroke: #A80036; stroke-width: 1.0;"/><polygon fill="#A80036" points="343.5,279.7651,347.5,273.7651,343.5,267.7651,339.5,273.7651,343.5,279.7651" style="stroke: #A80036; stroke-width: 1.0;"/><!--MD5=[1095edcc97b63d3f27ab6957ed78b770]
reverse link Winehouse to Person--><path d="M446.393,393.4531 C462.08,393.4531 477.768,393.4531 493.456,393.4531 " fill="none" id="Winehouse&lt;-Person" style="stroke: #A80036; stroke-width: 1.0;"/><polygon fill="#A80036" points="433.215,393.4531,439.215,397.4531,445.215,393.4531,439.215,389.4531,433.215,393.4531" style="stroke: #A80036; stroke-width: 1.0;"/><!--MD5=[ac48b6257ece15b403882cdb0cc9d5b4]
link Bottle to Winehouse--><path d="M139.406,135.0511 C162.708,159.0271 193.312,191.5711 218.5,221.9531 C230.895,236.9031 243.505,252.9571 255.713,269.0191 " fill="none" id="Bottle-&gt;Winehouse" style="stroke: #A80036; stroke-width: 1.0;"/><polygon fill="#A80036" points="263.671,279.5641,263.2495,272.3654,256.4423,269.9857,256.8639,277.1845,263.671,279.5641" style="stroke: #A80036; stroke-width: 1.0;"/><!--MD5=[4ccb4dd1e27eeb27eea0a8d68b3aa190]
link Client to Person--><path d="M600.702,167.0261 C597.227,207.8121 592.773,260.1111 589.029,304.0651 " fill="none" id="Client-&gt;Person" style="stroke: #A80036; stroke-width: 1.0;"/><polygon fill="none" points="595.982,304.9081,587.31,324.2421,582.033,303.7201,595.982,304.9081" style="stroke: #A80036; stroke-width: 1.0;"/><text fill="#000000" font-family="sans-serif" font-size="13" lengthAdjust="spacingAndGlyphs" textLength="87" x="598.5" y="210.02">«Inheritance»</text><!--MD5=[e4eb34366b549f316bd55ff4416cda69]
reverse link Person to Admin--><path d="M581.5,482.8661 C581.5,518.1551 581.5,557.1211 581.5,585.7779 " fill="none" id="Person&lt;-Admin" style="stroke: #A80036; stroke-width: 1.0;"/><polygon fill="none" points="574.5,482.6191,581.5,462.6191,588.5,482.6191,574.5,482.6191" style="stroke: #A80036; stroke-width: 1.0;"/><text fill="#000000" font-family="sans-serif" font-size="13" lengthAdjust="spacingAndGlyphs" textLength="87" x="582.5" y="552.02">«Inheritance»</text><!--MD5=[adbadaefd1992573ae39528a8ae081e1]
reverse link Bottle to Wine--><path d="M103.5,148.3291 C103.5,202.7411 103.5,289.7041 103.5,343.8191 " fill="none" id="Bottle&lt;-Wine" style="stroke: #A80036; stroke-width: 1.0;"/><polygon fill="#FFFFFF" points="103.5,135.2361,99.5,141.2361,103.5,147.2361,107.5,141.2361,103.5,135.2361" style="stroke: #A80036; stroke-width: 1.0;"/><text fill="#000000" font-family="sans-serif" font-size="13" lengthAdjust="spacingAndGlyphs" textLength="54" x="104.5" y="210.02">contains</text><text fill="#000000" font-family="sans-serif" font-size="13" lengthAdjust="spacingAndGlyphs" textLength="7" x="95.9203" y="154.7636">*</text><text fill="#000000" font-family="sans-serif" font-size="13" lengthAdjust="spacingAndGlyphs" textLength="8" x="94.9375" y="332.8455">1</text><!--MD5=[b9821078e3fa7d3e006f0034d2699bbc]
link Bottle to Order--><path d="M180.097,97.9531 C204.863,97.9531 232.479,97.9531 257.857,97.9531 " fill="none" id="Bottle-&gt;Order" style="stroke: #A80036; stroke-width: 1.0;"/><polygon fill="#FFFFFF" points="270.897,97.9531,264.897,93.9531,258.897,97.9531,264.897,101.9531,270.897,97.9531" style="stroke: #A80036; stroke-width: 1.0;"/><text fill="#000000" font-family="sans-serif" font-size="13" lengthAdjust="spacingAndGlyphs" textLength="54" x="198.5" y="91.02">contains</text><text fill="#000000" font-family="sans-serif" font-size="13" lengthAdjust="spacingAndGlyphs" textLength="8" x="188.0308" y="94.3075">1</text><text fill="#000000" font-family="sans-serif" font-size="13" lengthAdjust="spacingAndGlyphs" textLength="7" x="256.0489" y="94.2422">*</text><!--MD5=[1bef3bc5a00a28934e9de88f1e28975b]
reverse link Order to Client--><path d="M429.136,97.9531 C453.875,97.9531 481.089,97.9531 506.614,97.9531 " fill="none" id="Order&lt;-Client" style="stroke: #A80036; stroke-width: 1.0;"/><polygon fill="#FFFFFF" points="416.062,97.9531,422.062,101.9531,428.062,97.9531,422.062,93.9531,416.062,97.9531" style="stroke: #A80036; stroke-width: 1.0;"/><text fill="#000000" font-family="sans-serif" font-size="13" lengthAdjust="spacingAndGlyphs" textLength="54" x="434.5" y="91.02">contains</text><text fill="#000000" font-family="sans-serif" font-size="13" lengthAdjust="spacingAndGlyphs" textLength="7" x="423.9059" y="94.2422">*</text><text fill="#000000" font-family="sans-serif" font-size="13" lengthAdjust="spacingAndGlyphs" textLength="8" x="490.9849" y="94.4876">1</text><!--MD5=[fe1eabaa772ea0f6a62018b21b5c1319]
@startuml
title Class Diagram

package Database <<Database>> {
  class Winehouse{
    -bottles : ArrayList<Bottle>
    -users : ArrayList<Person>
    -orders : ArrayList<Order>
    +void registration()
    +void addBottle()
    +void addOrder()
    +void deleteOrder()
    +void updateBottle()
    +void checkAvailability()
    +void searchWine()
    +void buyWine()
    +void outofstockWarning()
    +void sendNotification()
    +void cleanOrders()
  }
}
Winehouse *-up- Order
Winehouse *-right- Person
Winehouse *-left- Bottle

class Person {
    __ private data __
    -name : String
    -surname : String
    -username : String
    -password : String
    - - crypted - -
    -hashed_password : String
}

class Client {
    -logged : boolean
    -purchases : ArrayList<Bottle>
    +void registration()
    +void login()
    +void searchWine()
    +void buyWine()
    +void askNotification()
}

class Admin {
    +void deleteOrder()
    +void refillOrder()
    +void shipOrder()
}

Person <|-up- Client : <<Inheritance>>
Person <|-down- Admin : <<Inheritance>>

class Wine {
    -name : String
    -year : Integer
    -notes : String
    -vineyards : ArrayList<String>
}

class Bottle {
    -wine : Wine
    -bottleAmount : Integer
}

Bottle "*" o-down- "1" Wine : contains

class Order {
    -buyer : Client
    -orderBottle : Bottle
    -processed : boolean
    -notification : boolean
}

Order "*" o-left- "1" Bottle : contains
Order "*" o-right- "1" Client : contains
@enduml

PlantUML version 1.2019.11(Sun Sep 22 10:02:15 UTC 2019)
(GPL source distribution)
Java Runtime: Java(TM) SE Runtime Environment
JVM: Java HotSpot(TM) 64-Bit Server VM
Java Version: 1.7.0_25-b15
Operating System: Linux
Default Encoding: UTF-8
Language: en
Country: US
--></g></svg>