<?xml version="1.0" encoding="UTF-8" standalone="no"?><svg xmlns="http://www.w3.org/2000/svg" xmlns:xlink="http://www.w3.org/1999/xlink" contentScriptType="application/ecmascript" contentStyleType="text/css" height="748px" preserveAspectRatio="none" style="width:775px;height:748px;" version="1.1" viewBox="0 0 775 748" width="775px" zoomAndPan="magnify"><defs><filter height="300%" id="ffnxy8t7os559" width="300%" x="-1" y="-1"><feGaussianBlur result="blurOut" stdDeviation="2.0"/><feColorMatrix in="blurOut" result="blurOut2" type="matrix" values="0 0 0 0 0 0 0 0 0 0 0 0 0 0 0 0 0 0 .4 0"/><feOffset dx="4.0" dy="4.0" in="blurOut2" result="blurOut3"/><feBlend in="SourceGraphic" in2="blurOut3" mode="normal"/></filter></defs><g><text fill="#000000" font-family="sans-serif" font-size="18" lengthAdjust="spacingAndGlyphs" textLength="125" x="319" y="16.708">Class Diagram</text><!--MD5=[815249f79c2c08157ac02b3106e03757]
cluster Database--><path d="M224.5,54.9531 C224.5,44.9531 330.5,44.9531 330.5,44.9531 C330.5,44.9531 436.5,44.9531 436.5,54.9531 L436.5,327.9531 C436.5,337.9531 330.5,337.9531 330.5,337.9531 C330.5,337.9531 224.5,337.9531 224.5,327.9531 L224.5,54.9531 " fill="#FFFFFF" filter="url(#ffnxy8t7os559)" style="stroke: #000000; stroke-width: 1.5;"/><path d="M224.5,54.9531 C224.5,64.9531 330.5,64.9531 330.5,64.9531 C330.5,64.9531 436.5,64.9531 436.5,54.9531 " fill="none" style="stroke: #000000; stroke-width: 1.5;"/><text fill="#000000" font-family="sans-serif" font-size="14" font-weight="bold" lengthAdjust="spacingAndGlyphs" textLength="73" x="294" y="79.9482">Database</text><!--MD5=[f0ada410d23793807474d2872bfcd402]
class Winehouse--><rect fill="#FEFECE" filter="url(#ffnxy8t7os559)" height="227.2656" id="Winehouse" style="stroke: #A80036; stroke-width: 1.5;" width="179" x="241" y="94.9531"/><ellipse cx="291.75" cy="110.9531" fill="#ADD1B2" rx="11" ry="11" style="stroke: #A80036; stroke-width: 1.0;"/><path d="M294.0938,106.625 L294.2656,106.7031 C294.4844,106.3906 294.6875,106.2969 294.9844,106.2969 C295.2813,106.2969 295.5625,106.4375 295.7188,106.7031 C295.8125,106.8594 295.8281,106.9844 295.8281,107.4219 L295.8281,108.8438 C295.8281,109.2656 295.7969,109.4531 295.6875,109.6094 C295.5156,109.8281 295.25,109.9688 294.9844,109.9688 C294.7656,109.9688 294.5313,109.8594 294.3906,109.7188 C294.25,109.5938 294.2188,109.4688 294.1563,109.0625 C294.0625,108.6563 293.8906,108.4375 293.4063,108.1563 C292.9375,107.9063 292.3281,107.75 291.75,107.75 C290.0156,107.75 288.7656,109.0625 288.7656,110.8438 L288.7656,111.9375 C288.7656,113.6406 290.0625,114.7344 292.1094,114.7344 C292.875,114.7344 293.5625,114.6094 293.9844,114.3438 C294.1719,114.25 294.1719,114.25 294.625,113.7656 C294.8125,113.5781 295.0156,113.5 295.2344,113.5 C295.7031,113.5 296.0938,113.8906 296.0938,114.3438 C296.0938,114.7344 295.7656,115.1875 295.1875,115.5938 C294.4375,116.1406 293.2813,116.4375 292.0625,116.4375 C289.1719,116.4375 287.0625,114.5469 287.0625,111.9688 L287.0625,110.8438 C287.0625,108.125 289.0625,106.0469 291.6875,106.0469 C292.5625,106.0469 293.1563,106.1875 294.0938,106.625 Z "/><text fill="#000000" font-family="sans-serif" font-size="12" lengthAdjust="spacingAndGlyphs" textLength="69" x="312.25" y="115.1074">Winehouse</text><line style="stroke: #A80036; stroke-width: 1.5;" x1="242" x2="419" y1="126.9531" y2="126.9531"/><rect fill="none" height="6" style="stroke: #C82930; stroke-width: 1.0;" width="6" x="249" y="134.9531"/><text fill="#000000" font-family="sans-serif" font-size="11" lengthAdjust="spacingAndGlyphs" textLength="152" x="261" y="141.1636">bottles : ArrayList&lt;Bottle&gt;</text><rect fill="none" height="6" style="stroke: #C82930; stroke-width: 1.0;" width="6" x="249" y="147.7578"/><text fill="#000000" font-family="sans-serif" font-size="11" lengthAdjust="spacingAndGlyphs" textLength="153" x="261" y="153.9683">users : ArrayList&lt;Person&gt;</text><rect fill="none" height="6" style="stroke: #C82930; stroke-width: 1.0;" width="6" x="249" y="160.5625"/><text fill="#000000" font-family="sans-serif" font-size="11" lengthAdjust="spacingAndGlyphs" textLength="151" x="261" y="166.7729">orders : ArrayList&lt;Order&gt;</text><line style="stroke: #A80036; stroke-width: 1.5;" x1="242" x2="419" y1="173.3672" y2="173.3672"/><ellipse cx="252" cy="184.3672" fill="#84BE84" rx="3" ry="3" style="stroke: #038048; stroke-width: 1.0;"/><text fill="#000000" font-family="sans-serif" font-size="11" lengthAdjust="spacingAndGlyphs" textLength="101" x="261" y="187.5776">void registration()</text><ellipse cx="252" cy="197.1719" fill="#84BE84" rx="3" ry="3" style="stroke: #038048; stroke-width: 1.0;"/><text fill="#000000" font-family="sans-serif" font-size="11" lengthAdjust="spacingAndGlyphs" textLength="89" x="261" y="200.3823">void addBottle()</text><ellipse cx="252" cy="209.9766" fill="#84BE84" rx="3" ry="3" style="stroke: #038048; stroke-width: 1.0;"/><text fill="#000000" font-family="sans-serif" font-size="11" lengthAdjust="spacingAndGlyphs" textLength="89" x="261" y="213.187">void addOrder()</text><ellipse cx="252" cy="222.7813" fill="#84BE84" rx="3" ry="3" style="stroke: #038048; stroke-width: 1.0;"/><text fill="#000000" font-family="sans-serif" font-size="11" lengthAdjust="spacingAndGlyphs" textLength="103" x="261" y="225.9917">void deleteOrder()</text><ellipse cx="252" cy="235.5859" fill="#84BE84" rx="3" ry="3" style="stroke: #038048; stroke-width: 1.0;"/><text fill="#000000" font-family="sans-serif" font-size="11" lengthAdjust="spacingAndGlyphs" textLength="107" x="261" y="238.7964">void updateBottle()</text><ellipse cx="252" cy="248.3906" fill="#84BE84" rx="3" ry="3" style="stroke: #038048; stroke-width: 1.0;"/><text fill="#000000" font-family="sans-serif" font-size="11" lengthAdjust="spacingAndGlyphs" textLength="126" x="261" y="251.6011">void checkAvailability()</text><ellipse cx="252" cy="261.1953" fill="#84BE84" rx="3" ry="3" style="stroke: #038048; stroke-width: 1.0;"/><text fill="#000000" font-family="sans-serif" font-size="11" lengthAdjust="spacingAndGlyphs" textLength="100" x="261" y="264.4058">void searchWine()</text><ellipse cx="252" cy="274" fill="#84BE84" rx="3" ry="3" style="stroke: #038048; stroke-width: 1.0;"/><text fill="#000000" font-family="sans-serif" font-size="11" lengthAdjust="spacingAndGlyphs" textLength="81" x="261" y="277.2104">void buyWine()</text><ellipse cx="252" cy="286.8047" fill="#84BE84" rx="3" ry="3" style="stroke: #038048; stroke-width: 1.0;"/><text fill="#000000" font-family="sans-serif" font-size="11" lengthAdjust="spacingAndGlyphs" textLength="139" x="261" y="290.0151">void outofstockWarning()</text><ellipse cx="252" cy="299.6094" fill="#84BE84" rx="3" ry="3" style="stroke: #038048; stroke-width: 1.0;"/><text fill="#000000" font-family="sans-serif" font-size="11" lengthAdjust="spacingAndGlyphs" textLength="126" x="261" y="302.8198">void sendNotification()</text><ellipse cx="252" cy="312.4141" fill="#84BE84" rx="3" ry="3" style="stroke: #038048; stroke-width: 1.0;"/><text fill="#000000" font-family="sans-serif" font-size="11" lengthAdjust="spacingAndGlyphs" textLength="105" x="261" y="315.6245">void cleanOrders()</text><!--MD5=[cf4d6237fcae255cd2e1656cf84a30e2]
class Order--><rect fill="#FEFECE" filter="url(#ffnxy8t7os559)" height="124.8281" id="Order" style="stroke: #A80036; stroke-width: 1.5;" width="162" x="249.5" y="391.4531"/><ellipse cx="308.75" cy="407.4531" fill="#ADD1B2" rx="11" ry="11" style="stroke: #A80036; stroke-width: 1.0;"/><path d="M311.0938,403.125 L311.2656,403.2031 C311.4844,402.8906 311.6875,402.7969 311.9844,402.7969 C312.2813,402.7969 312.5625,402.9375 312.7188,403.2031 C312.8125,403.3594 312.8281,403.4844 312.8281,403.9219 L312.8281,405.3438 C312.8281,405.7656 312.7969,405.9531 312.6875,406.1094 C312.5156,406.3281 312.25,406.4688 311.9844,406.4688 C311.7656,406.4688 311.5313,406.3594 311.3906,406.2188 C311.25,406.0938 311.2188,405.9688 311.1563,405.5625 C311.0625,405.1563 310.8906,404.9375 310.4063,404.6563 C309.9375,404.4063 309.3281,404.25 308.75,404.25 C307.0156,404.25 305.7656,405.5625 305.7656,407.3438 L305.7656,408.4375 C305.7656,410.1406 307.0625,411.2344 309.1094,411.2344 C309.875,411.2344 310.5625,411.1094 310.9844,410.8438 C311.1719,410.75 311.1719,410.75 311.625,410.2656 C311.8125,410.0781 312.0156,410 312.2344,410 C312.7031,410 313.0938,410.3906 313.0938,410.8438 C313.0938,411.2344 312.7656,411.6875 312.1875,412.0938 C311.4375,412.6406 310.2813,412.9375 309.0625,412.9375 C306.1719,412.9375 304.0625,411.0469 304.0625,408.4688 L304.0625,407.3438 C304.0625,404.625 306.0625,402.5469 308.6875,402.5469 C309.5625,402.5469 310.1563,402.6875 311.0938,403.125 Z "/><text fill="#000000" font-family="sans-serif" font-size="12" lengthAdjust="spacingAndGlyphs" textLength="35" x="329.25" y="411.6074">Order</text><line style="stroke: #A80036; stroke-width: 1.5;" x1="250.5" x2="410.5" y1="423.4531" y2="423.4531"/><rect fill="none" height="6" style="stroke: #C82930; stroke-width: 1.0;" width="6" x="257.5" y="431.4531"/><text fill="#000000" font-family="sans-serif" font-size="11" lengthAdjust="spacingAndGlyphs" textLength="76" x="269.5" y="437.6636">buyer : Client</text><rect fill="none" height="6" style="stroke: #C82930; stroke-width: 1.0;" width="6" x="257.5" y="444.2578"/><text fill="#000000" font-family="sans-serif" font-size="11" lengthAdjust="spacingAndGlyphs" textLength="109" x="269.5" y="450.4683">orderBottle : Bottle</text><rect fill="none" height="6" style="stroke: #C82930; stroke-width: 1.0;" width="6" x="257.5" y="457.0625"/><text fill="#000000" font-family="sans-serif" font-size="11" lengthAdjust="spacingAndGlyphs" textLength="136" x="269.5" y="463.2729">trackingNumber : String</text><rect fill="none" height="6" style="stroke: #C82930; stroke-width: 1.0;" width="6" x="257.5" y="469.8672"/><text fill="#000000" font-family="sans-serif" font-size="11" lengthAdjust="spacingAndGlyphs" textLength="117" x="269.5" y="476.0776">processed : boolean</text><rect fill="none" height="6" style="stroke: #C82930; stroke-width: 1.0;" width="6" x="257.5" y="482.6719"/><text fill="#000000" font-family="sans-serif" font-size="11" lengthAdjust="spacingAndGlyphs" textLength="119" x="269.5" y="488.8823">notification : boolean</text><rect fill="none" height="6" style="stroke: #C82930; stroke-width: 1.0;" width="6" x="257.5" y="495.4766"/><text fill="#000000" font-family="sans-serif" font-size="11" lengthAdjust="spacingAndGlyphs" textLength="102" x="269.5" y="501.687">shipped : boolean</text><line style="stroke: #A80036; stroke-width: 1.5;" x1="250.5" x2="410.5" y1="508.2813" y2="508.2813"/><!--MD5=[09ce52be0ee7de43c61b6e2d59bf108b]
class Person--><rect fill="#FEFECE" filter="url(#ffnxy8t7os559)" height="137.6328" id="Person" style="stroke: #A80036; stroke-width: 1.5;" width="176" x="518.5" y="599.9531"/><ellipse cx="580.25" cy="615.9531" fill="#ADD1B2" rx="11" ry="11" style="stroke: #A80036; stroke-width: 1.0;"/><path d="M582.5938,611.625 L582.7656,611.7031 C582.9844,611.3906 583.1875,611.2969 583.4844,611.2969 C583.7813,611.2969 584.0625,611.4375 584.2188,611.7031 C584.3125,611.8594 584.3281,611.9844 584.3281,612.4219 L584.3281,613.8438 C584.3281,614.2656 584.2969,614.4531 584.1875,614.6094 C584.0156,614.8281 583.75,614.9688 583.4844,614.9688 C583.2656,614.9688 583.0313,614.8594 582.8906,614.7188 C582.75,614.5938 582.7188,614.4688 582.6563,614.0625 C582.5625,613.6563 582.3906,613.4375 581.9063,613.1563 C581.4375,612.9063 580.8281,612.75 580.25,612.75 C578.5156,612.75 577.2656,614.0625 577.2656,615.8438 L577.2656,616.9375 C577.2656,618.6406 578.5625,619.7344 580.6094,619.7344 C581.375,619.7344 582.0625,619.6094 582.4844,619.3438 C582.6719,619.25 582.6719,619.25 583.125,618.7656 C583.3125,618.5781 583.5156,618.5 583.7344,618.5 C584.2031,618.5 584.5938,618.8906 584.5938,619.3438 C584.5938,619.7344 584.2656,620.1875 583.6875,620.5938 C582.9375,621.1406 581.7813,621.4375 580.5625,621.4375 C577.6719,621.4375 575.5625,619.5469 575.5625,616.9688 L575.5625,615.8438 C575.5625,613.125 577.5625,611.0469 580.1875,611.0469 C581.0625,611.0469 581.6563,611.1875 582.5938,611.625 Z "/><text fill="#000000" font-family="sans-serif" font-size="12" lengthAdjust="spacingAndGlyphs" textLength="44" x="600.75" y="620.1074">Person</text><line style="stroke: #A80036; stroke-width: 1.5;" x1="519.5" x2="693.5" y1="631.9531" y2="631.9531"/><rect fill="none" height="6" style="stroke: #C82930; stroke-width: 1.0;" width="6" x="526.5" y="656.7578"/><text fill="#000000" font-family="sans-serif" font-size="11" lengthAdjust="spacingAndGlyphs" textLength="78" x="538.5" y="662.9683">name : String</text><rect fill="none" height="6" style="stroke: #C82930; stroke-width: 1.0;" width="6" x="526.5" y="669.5625"/><text fill="#000000" font-family="sans-serif" font-size="11" lengthAdjust="spacingAndGlyphs" textLength="97" x="538.5" y="675.7729">surname : String</text><rect fill="none" height="6" style="stroke: #C82930; stroke-width: 1.0;" width="6" x="526.5" y="682.3672"/><text fill="#000000" font-family="sans-serif" font-size="11" lengthAdjust="spacingAndGlyphs" textLength="104" x="538.5" y="688.5776">username : String</text><rect fill="none" height="6" style="stroke: #C82930; stroke-width: 1.0;" width="6" x="526.5" y="695.1719"/><text fill="#000000" font-family="sans-serif" font-size="11" lengthAdjust="spacingAndGlyphs" textLength="102" x="538.5" y="701.3823">password : String</text><line style="stroke: #A80036; stroke-width: 1.5;" x1="519.5" x2="572.5" y1="646.3555" y2="646.3555"/><text fill="#000000" font-family="sans-serif" font-size="11" lengthAdjust="spacingAndGlyphs" textLength="68" x="572.5" y="649.6636">private data</text><line style="stroke: #A80036; stroke-width: 1.5;" x1="640.5" x2="693.5" y1="646.3555" y2="646.3555"/><rect fill="none" height="6" style="stroke: #C82930; stroke-width: 1.0;" width="6" x="526.5" y="724.7813"/><text fill="#000000" font-family="sans-serif" font-size="11" lengthAdjust="spacingAndGlyphs" textLength="150" x="538.5" y="730.9917">hashed_password : String</text><line style="stroke: #A80036; stroke-width: 1.0;" x1="519.5" x2="585.5" y1="714.3789" y2="714.3789"/><text fill="#000000" font-family="sans-serif" font-size="11" lengthAdjust="spacingAndGlyphs" textLength="42" x="585.5" y="717.687">crypted</text><line style="stroke: #A80036; stroke-width: 1.0;" x1="627.5" x2="693.5" y1="714.3789" y2="714.3789"/><!--MD5=[3465e106eb582bee24e509c05a0d587a]
class Bottle--><rect fill="#FEFECE" filter="url(#ffnxy8t7os559)" height="73.6094" id="Bottle" style="stroke: #A80036; stroke-width: 1.5;" width="153" x="6" y="416.9531"/><ellipse cx="59.75" cy="432.9531" fill="#ADD1B2" rx="11" ry="11" style="stroke: #A80036; stroke-width: 1.0;"/><path d="M62.0938,428.625 L62.2656,428.7031 C62.4844,428.3906 62.6875,428.2969 62.9844,428.2969 C63.2813,428.2969 63.5625,428.4375 63.7188,428.7031 C63.8125,428.8594 63.8281,428.9844 63.8281,429.4219 L63.8281,430.8438 C63.8281,431.2656 63.7969,431.4531 63.6875,431.6094 C63.5156,431.8281 63.25,431.9688 62.9844,431.9688 C62.7656,431.9688 62.5313,431.8594 62.3906,431.7188 C62.25,431.5938 62.2188,431.4688 62.1563,431.0625 C62.0625,430.6563 61.8906,430.4375 61.4063,430.1563 C60.9375,429.9063 60.3281,429.75 59.75,429.75 C58.0156,429.75 56.7656,431.0625 56.7656,432.8438 L56.7656,433.9375 C56.7656,435.6406 58.0625,436.7344 60.1094,436.7344 C60.875,436.7344 61.5625,436.6094 61.9844,436.3438 C62.1719,436.25 62.1719,436.25 62.625,435.7656 C62.8125,435.5781 63.0156,435.5 63.2344,435.5 C63.7031,435.5 64.0938,435.8906 64.0938,436.3438 C64.0938,436.7344 63.7656,437.1875 63.1875,437.5938 C62.4375,438.1406 61.2813,438.4375 60.0625,438.4375 C57.1719,438.4375 55.0625,436.5469 55.0625,433.9688 L55.0625,432.8438 C55.0625,430.125 57.0625,428.0469 59.6875,428.0469 C60.5625,428.0469 61.1563,428.1875 62.0938,428.625 Z "/><text fill="#000000" font-family="sans-serif" font-size="12" lengthAdjust="spacingAndGlyphs" textLength="37" x="80.25" y="437.1074">Bottle</text><line style="stroke: #A80036; stroke-width: 1.5;" x1="7" x2="158" y1="448.9531" y2="448.9531"/><rect fill="none" height="6" style="stroke: #C82930; stroke-width: 1.0;" width="6" x="14" y="456.9531"/><text fill="#000000" font-family="sans-serif" font-size="11" lengthAdjust="spacingAndGlyphs" textLength="64" x="26" y="463.1636">wine : Wine</text><rect fill="none" height="6" style="stroke: #C82930; stroke-width: 1.0;" width="6" x="14" y="469.7578"/><text fill="#000000" font-family="sans-serif" font-size="11" lengthAdjust="spacingAndGlyphs" textLength="127" x="26" y="475.9683">bottleAmount : Integer</text><line style="stroke: #A80036; stroke-width: 1.5;" x1="7" x2="158" y1="482.5625" y2="482.5625"/><!--MD5=[ed6624c6556d5e7b1bd23032162d20b7]
class Client--><rect fill="#FEFECE" filter="url(#ffnxy8t7os559)" height="137.6328" id="Client" style="stroke: #A80036; stroke-width: 1.5;" width="199" x="502" y="384.9531"/><ellipse cx="579.75" cy="400.9531" fill="#ADD1B2" rx="11" ry="11" style="stroke: #A80036; stroke-width: 1.0;"/><path d="M582.0938,396.625 L582.2656,396.7031 C582.4844,396.3906 582.6875,396.2969 582.9844,396.2969 C583.2813,396.2969 583.5625,396.4375 583.7188,396.7031 C583.8125,396.8594 583.8281,396.9844 583.8281,397.4219 L583.8281,398.8438 C583.8281,399.2656 583.7969,399.4531 583.6875,399.6094 C583.5156,399.8281 583.25,399.9688 582.9844,399.9688 C582.7656,399.9688 582.5313,399.8594 582.3906,399.7188 C582.25,399.5938 582.2188,399.4688 582.1563,399.0625 C582.0625,398.6563 581.8906,398.4375 581.4063,398.1563 C580.9375,397.9063 580.3281,397.75 579.75,397.75 C578.0156,397.75 576.7656,399.0625 576.7656,400.8438 L576.7656,401.9375 C576.7656,403.6406 578.0625,404.7344 580.1094,404.7344 C580.875,404.7344 581.5625,404.6094 581.9844,404.3438 C582.1719,404.25 582.1719,404.25 582.625,403.7656 C582.8125,403.5781 583.0156,403.5 583.2344,403.5 C583.7031,403.5 584.0938,403.8906 584.0938,404.3438 C584.0938,404.7344 583.7656,405.1875 583.1875,405.5938 C582.4375,406.1406 581.2813,406.4375 580.0625,406.4375 C577.1719,406.4375 575.0625,404.5469 575.0625,401.9688 L575.0625,400.8438 C575.0625,398.125 577.0625,396.0469 579.6875,396.0469 C580.5625,396.0469 581.1563,396.1875 582.0938,396.625 Z "/><text fill="#000000" font-family="sans-serif" font-size="12" lengthAdjust="spacingAndGlyphs" textLength="35" x="600.25" y="405.1074">Client</text><line style="stroke: #A80036; stroke-width: 1.5;" x1="503" x2="700" y1="416.9531" y2="416.9531"/><rect fill="none" height="6" style="stroke: #C82930; stroke-width: 1.0;" width="6" x="510" y="424.9531"/><text fill="#000000" font-family="sans-serif" font-size="11" lengthAdjust="spacingAndGlyphs" textLength="95" x="522" y="431.1636">logged : boolean</text><rect fill="none" height="6" style="stroke: #C82930; stroke-width: 1.0;" width="6" x="510" y="437.7578"/><text fill="#000000" font-family="sans-serif" font-size="11" lengthAdjust="spacingAndGlyphs" textLength="173" x="522" y="443.9683">purchases : ArrayList&lt;Bottle&gt;</text><line style="stroke: #A80036; stroke-width: 1.5;" x1="503" x2="700" y1="450.5625" y2="450.5625"/><ellipse cx="513" cy="461.5625" fill="#84BE84" rx="3" ry="3" style="stroke: #038048; stroke-width: 1.0;"/><text fill="#000000" font-family="sans-serif" font-size="11" lengthAdjust="spacingAndGlyphs" textLength="101" x="522" y="464.7729">void registration()</text><ellipse cx="513" cy="474.3672" fill="#84BE84" rx="3" ry="3" style="stroke: #038048; stroke-width: 1.0;"/><text fill="#000000" font-family="sans-serif" font-size="11" lengthAdjust="spacingAndGlyphs" textLength="62" x="522" y="477.5776">void login()</text><ellipse cx="513" cy="487.1719" fill="#84BE84" rx="3" ry="3" style="stroke: #038048; stroke-width: 1.0;"/><text fill="#000000" font-family="sans-serif" font-size="11" lengthAdjust="spacingAndGlyphs" textLength="100" x="522" y="490.3823">void searchWine()</text><ellipse cx="513" cy="499.9766" fill="#84BE84" rx="3" ry="3" style="stroke: #038048; stroke-width: 1.0;"/><text fill="#000000" font-family="sans-serif" font-size="11" lengthAdjust="spacingAndGlyphs" textLength="81" x="522" y="503.187">void buyWine()</text><ellipse cx="513" cy="512.7813" fill="#84BE84" rx="3" ry="3" style="stroke: #038048; stroke-width: 1.0;"/><text fill="#000000" font-family="sans-serif" font-size="11" lengthAdjust="spacingAndGlyphs" textLength="118" x="522" y="515.9917">void askNotification()</text><!--MD5=[bf142c93e294de64ba0f3f4232bfc935]
class Wine--><rect fill="#FEFECE" filter="url(#ffnxy8t7os559)" height="99.2188" id="Wine" style="stroke: #A80036; stroke-width: 1.5;" width="195" x="23" y="619.4531"/><ellipse cx="101.25" cy="635.4531" fill="#ADD1B2" rx="11" ry="11" style="stroke: #A80036; stroke-width: 1.0;"/><path d="M103.5938,631.125 L103.7656,631.2031 C103.9844,630.8906 104.1875,630.7969 104.4844,630.7969 C104.7813,630.7969 105.0625,630.9375 105.2188,631.2031 C105.3125,631.3594 105.3281,631.4844 105.3281,631.9219 L105.3281,633.3438 C105.3281,633.7656 105.2969,633.9531 105.1875,634.1094 C105.0156,634.3281 104.75,634.4688 104.4844,634.4688 C104.2656,634.4688 104.0313,634.3594 103.8906,634.2188 C103.75,634.0938 103.7188,633.9688 103.6563,633.5625 C103.5625,633.1563 103.3906,632.9375 102.9063,632.6563 C102.4375,632.4063 101.8281,632.25 101.25,632.25 C99.5156,632.25 98.2656,633.5625 98.2656,635.3438 L98.2656,636.4375 C98.2656,638.1406 99.5625,639.2344 101.6094,639.2344 C102.375,639.2344 103.0625,639.1094 103.4844,638.8438 C103.6719,638.75 103.6719,638.75 104.125,638.2656 C104.3125,638.0781 104.5156,638 104.7344,638 C105.2031,638 105.5938,638.3906 105.5938,638.8438 C105.5938,639.2344 105.2656,639.6875 104.6875,640.0938 C103.9375,640.6406 102.7813,640.9375 101.5625,640.9375 C98.6719,640.9375 96.5625,639.0469 96.5625,636.4688 L96.5625,635.3438 C96.5625,632.625 98.5625,630.5469 101.1875,630.5469 C102.0625,630.5469 102.6563,630.6875 103.5938,631.125 Z "/><text fill="#000000" font-family="sans-serif" font-size="12" lengthAdjust="spacingAndGlyphs" textLength="30" x="121.75" y="639.6074">Wine</text><line style="stroke: #A80036; stroke-width: 1.5;" x1="24" x2="217" y1="651.4531" y2="651.4531"/><rect fill="none" height="6" style="stroke: #C82930; stroke-width: 1.0;" width="6" x="31" y="659.4531"/><text fill="#000000" font-family="sans-serif" font-size="11" lengthAdjust="spacingAndGlyphs" textLength="78" x="43" y="665.6636">name : String</text><rect fill="none" height="6" style="stroke: #C82930; stroke-width: 1.0;" width="6" x="31" y="672.2578"/><text fill="#000000" font-family="sans-serif" font-size="11" lengthAdjust="spacingAndGlyphs" textLength="77" x="43" y="678.4683">year : Integer</text><rect fill="none" height="6" style="stroke: #C82930; stroke-width: 1.0;" width="6" x="31" y="685.0625"/><text fill="#000000" font-family="sans-serif" font-size="11" lengthAdjust="spacingAndGlyphs" textLength="78" x="43" y="691.2729">notes : String</text><rect fill="none" height="6" style="stroke: #C82930; stroke-width: 1.0;" width="6" x="31" y="697.8672"/><text fill="#000000" font-family="sans-serif" font-size="11" lengthAdjust="spacingAndGlyphs" textLength="169" x="43" y="704.0776">vineyards : ArrayList&lt;String&gt;</text><line style="stroke: #A80036; stroke-width: 1.5;" x1="24" x2="217" y1="710.6719" y2="710.6719"/><!--MD5=[db6d18d8099558415abc41d00477ab92]
class Admin--><rect fill="#FEFECE" filter="url(#ffnxy8t7os559)" height="86.4141" id="Admin" style="stroke: #A80036; stroke-width: 1.5;" width="129" x="266" y="625.9531"/><ellipse cx="307.55" cy="641.9531" fill="#ADD1B2" rx="11" ry="11" style="stroke: #A80036; stroke-width: 1.0;"/><path d="M309.8938,637.625 L310.0656,637.7031 C310.2844,637.3906 310.4875,637.2969 310.7844,637.2969 C311.0813,637.2969 311.3625,637.4375 311.5188,637.7031 C311.6125,637.8594 311.6281,637.9844 311.6281,638.4219 L311.6281,639.8438 C311.6281,640.2656 311.5969,640.4531 311.4875,640.6094 C311.3156,640.8281 311.05,640.9688 310.7844,640.9688 C310.5656,640.9688 310.3313,640.8594 310.1906,640.7188 C310.05,640.5938 310.0188,640.4688 309.9563,640.0625 C309.8625,639.6563 309.6906,639.4375 309.2063,639.1563 C308.7375,638.9063 308.1281,638.75 307.55,638.75 C305.8156,638.75 304.5656,640.0625 304.5656,641.8438 L304.5656,642.9375 C304.5656,644.6406 305.8625,645.7344 307.9094,645.7344 C308.675,645.7344 309.3625,645.6094 309.7844,645.3438 C309.9719,645.25 309.9719,645.25 310.425,644.7656 C310.6125,644.5781 310.8156,644.5 311.0344,644.5 C311.5031,644.5 311.8938,644.8906 311.8938,645.3438 C311.8938,645.7344 311.5656,646.1875 310.9875,646.5938 C310.2375,647.1406 309.0813,647.4375 307.8625,647.4375 C304.9719,647.4375 302.8625,645.5469 302.8625,642.9688 L302.8625,641.8438 C302.8625,639.125 304.8625,637.0469 307.4875,637.0469 C308.3625,637.0469 308.9563,637.1875 309.8938,637.625 Z "/><text fill="#000000" font-family="sans-serif" font-size="12" lengthAdjust="spacingAndGlyphs" textLength="38" x="327.45" y="646.1074">Admin</text><line style="stroke: #A80036; stroke-width: 1.5;" x1="267" x2="394" y1="657.9531" y2="657.9531"/><line style="stroke: #A80036; stroke-width: 1.5;" x1="267" x2="394" y1="665.9531" y2="665.9531"/><ellipse cx="277" cy="676.9531" fill="#84BE84" rx="3" ry="3" style="stroke: #038048; stroke-width: 1.0;"/><text fill="#000000" font-family="sans-serif" font-size="11" lengthAdjust="spacingAndGlyphs" textLength="103" x="286" y="680.1636">void deleteOrder()</text><ellipse cx="277" cy="689.7578" fill="#84BE84" rx="3" ry="3" style="stroke: #038048; stroke-width: 1.0;"/><text fill="#000000" font-family="sans-serif" font-size="11" lengthAdjust="spacingAndGlyphs" textLength="93" x="286" y="692.9683">void refillOrder()</text><ellipse cx="277" cy="702.5625" fill="#84BE84" rx="3" ry="3" style="stroke: #038048; stroke-width: 1.0;"/><text fill="#000000" font-family="sans-serif" font-size="11" lengthAdjust="spacingAndGlyphs" textLength="92" x="286" y="705.7729">void shipOrder()</text><!--MD5=[673910a9f773ff914485e8446e66c926]
reverse link Winehouse to Order--><path d="M330.5,335.4041 C330.5,354.8391 330.5,374.1311 330.5,391.2961 " fill="none" id="Winehouse&lt;-Order" style="stroke: #A80036; stroke-width: 1.0;"/><polygon fill="#FFFFFF" points="330.5,322.2931,326.5,328.2931,330.5,334.2931,334.5,328.2931,330.5,322.2931" style="stroke: #A80036; stroke-width: 1.0;"/><!--MD5=[1095edcc97b63d3f27ab6957ed78b770]
reverse link Winehouse to Person--><path d="M432.96,224.4481 C525.31,243.9841 655.909,287.9451 718.5,384.9531 C763.266,454.3331 745.251,499.9291 701.5,569.9531 C695.096,580.2021 687.474,590.2571 679.372,599.7881 " fill="none" id="Winehouse&lt;-Person" style="stroke: #A80036; stroke-width: 1.0;"/><polygon fill="#FFFFFF" points="420.194,221.8511,425.2763,226.9668,431.9532,224.243,426.8709,219.1274,420.194,221.8511" style="stroke: #A80036; stroke-width: 1.0;"/><!--MD5=[7705f786992c1d3f465b38cfd8662418]
reverse link Winehouse to Bottle--><path d="M231.551,306.6061 C192.086,345.3561 149.087,387.5741 119.461,416.6631 " fill="none" id="Winehouse&lt;-Bottle" style="stroke: #A80036; stroke-width: 1.0;"/><polygon fill="#FFFFFF" points="240.966,297.3621,233.8823,298.7114,232.4033,305.7693,239.487,304.4199,240.966,297.3621" style="stroke: #A80036; stroke-width: 1.0;"/><!--MD5=[10549633b7e5298b7d50190a80c841ed]
link Client to Wine--><path d="M501.72,494.6621 C414.58,529.5751 294.977,578.1271 248.5,599.9531 C235.631,605.9961 222.208,612.6841 209.101,619.4381 " fill="none" id="Client-Wine" style="stroke: #A80036; stroke-width: 1.0;"/><!--MD5=[d539e0a27b53237e100ebbf9164540b5]
link Order to Admin--><path d="M330.5,516.5611 C330.5,551.5781 330.5,594.5201 330.5,625.7141 " fill="none" id="Order-Admin" style="stroke: #A80036; stroke-width: 1.0;"/><!--MD5=[4ccb4dd1e27eeb27eea0a8d68b3aa190]
link Client to Person--><path d="M603.103,523.2261 C603.524,541.1881 603.985,560.8221 604.428,579.6711 " fill="none" id="Client-&gt;Person" style="stroke: #A80036; stroke-width: 1.0;"/><polygon fill="none" points="611.426,579.5421,604.898,599.7011,597.43,579.8711,611.426,579.5421" style="stroke: #A80036; stroke-width: 1.0;"/><text fill="#000000" font-family="sans-serif" font-size="13" lengthAdjust="spacingAndGlyphs" textLength="87" x="605.5" y="566.02">«Inheritance»</text><!--MD5=[33f8ed7b79d8f56217be50046b27eea3]
link Admin to Person--><path d="M395.21,668.9531 C425.91,668.9531 463.428,668.9531 498.284,668.9531 " fill="none" id="Admin-&gt;Person" style="stroke: #A80036; stroke-width: 1.0;"/><polygon fill="none" points="498.427,661.953,518.427,668.9531,498.427,675.953,498.427,661.953" style="stroke: #A80036; stroke-width: 1.0;"/><text fill="#000000" font-family="sans-serif" font-size="13" lengthAdjust="spacingAndGlyphs" textLength="87" x="413.25" y="662.02">«Inheritance»</text><!--MD5=[5a8cb97690d92b5b29a90d6e34ecffd1]
link Wine to Bottle--><path d="M111.808,619.2301 C105.6614,584.7791 97.4512,538.7581 91.2844,504.1921 " fill="none" id="Wine-&gt;Bottle" style="stroke: #A80036; stroke-width: 1.0;"/><polygon fill="#A80036" points="88.9462,491.0861,86.0627,497.6956,91.0548,502.8994,93.9382,496.2899,88.9462,491.0861" style="stroke: #A80036; stroke-width: 1.0;"/><text fill="#000000" font-family="sans-serif" font-size="13" lengthAdjust="spacingAndGlyphs" textLength="54" x="104.5" y="566.02">contains</text><text fill="#000000" font-family="sans-serif" font-size="13" lengthAdjust="spacingAndGlyphs" textLength="8" x="102.0228" y="608.244">1</text><text fill="#000000" font-family="sans-serif" font-size="13" lengthAdjust="spacingAndGlyphs" textLength="7" x="82.4342" y="510.5887">*</text><!--MD5=[b9821078e3fa7d3e006f0034d2699bbc]
link Bottle to Order--><path d="M159.27,453.9531 C183.619,453.9531 210.825,453.9531 236.256,453.9531 " fill="none" id="Bottle-&gt;Order" style="stroke: #A80036; stroke-width: 1.0;"/><polygon fill="#A80036" points="249.369,453.9531,243.369,449.9531,237.369,453.9531,243.369,457.9531,249.369,453.9531" style="stroke: #A80036; stroke-width: 1.0;"/><text fill="#000000" font-family="sans-serif" font-size="13" lengthAdjust="spacingAndGlyphs" textLength="54" x="177.25" y="447.02">contains</text><text fill="#000000" font-family="sans-serif" font-size="13" lengthAdjust="spacingAndGlyphs" textLength="8" x="166.9684" y="450.3301">1</text><text fill="#000000" font-family="sans-serif" font-size="13" lengthAdjust="spacingAndGlyphs" textLength="7" x="234.5671" y="450.3427">*</text><!--MD5=[1bef3bc5a00a28934e9de88f1e28975b]
reverse link Order to Client--><path d="M424.946,453.9531 C449.714,453.9531 476.503,453.9531 501.549,453.9531 " fill="none" id="Order&lt;-Client" style="stroke: #A80036; stroke-width: 1.0;"/><polygon fill="#A80036" points="411.809,453.9531,417.809,457.9531,423.809,453.9531,417.809,449.9531,411.809,453.9531" style="stroke: #A80036; stroke-width: 1.0;"/><text fill="#000000" font-family="sans-serif" font-size="13" lengthAdjust="spacingAndGlyphs" textLength="54" x="429.75" y="447.02">contains</text><text fill="#000000" font-family="sans-serif" font-size="13" lengthAdjust="spacingAndGlyphs" textLength="7" x="419.6273" y="450.3427">*</text><text fill="#000000" font-family="sans-serif" font-size="13" lengthAdjust="spacingAndGlyphs" textLength="8" x="485.9151" y="450.4876">1</text><!--MD5=[a6bbc207579565c6704249feee61764d]
@startuml
title Class Diagram

package Database <<Database>> {
  class Winehouse{
    -bottles : ArrayList<Bottle>
    -users : ArrayList<Person>
    -orders : ArrayList<Order>
    +void registration()
    +void addBottle()
    +void addOrder()
    +void deleteOrder()
    +void updateBottle()
    +void checkAvailability()
    +void searchWine()
    +void buyWine()
    +void outofstockWarning()
    +void sendNotification()
    +void cleanOrders()
  }
}
Winehouse o- - Order
Winehouse o- - Person
Winehouse o- - Bottle

class Person {
    __ private data __
    -name : String
    -surname : String
    -username : String
    -password : String
    - - crypted - -
    -hashed_password : String
}

class Client {
    -logged : boolean
    -purchases : ArrayList<Bottle>
    +void registration()
    +void login()
    +void searchWine()
    +void buyWine()
    +void askNotification()
}

Client - - Wine

class Admin {
    +void deleteOrder()
    +void refillOrder()
    +void shipOrder()
}

Admin -up- Order

Person <|-up- Client : <<Inheritance>>
Person <|-left- Admin : <<Inheritance>>

class Wine {
    -name : String
    -year : Integer
    -notes : String
    -vineyards : ArrayList<String>
}

class Bottle {
    -wine : Wine
    -bottleAmount : Integer
}

Bottle "*" *-up- "1" Wine : contains

class Order {
    -buyer : Client
    -orderBottle : Bottle
    -trackingNumber : String
    -processed : boolean
    -notification : boolean
    -shipped : boolean
}

Order "*" *-left- "1" Bottle : contains
Order "*" *-right- "1" Client : contains
@enduml

PlantUML version 1.2019.11(Sun Sep 22 10:02:15 UTC 2019)
(GPL source distribution)
Java Runtime: Java(TM) SE Runtime Environment
JVM: Java HotSpot(TM) 64-Bit Server VM
Java Version: 1.7.0_25-b15
Operating System: Linux
Default Encoding: UTF-8
Language: en
Country: US
--></g></svg>