<?xml version="1.0" encoding="UTF-8" standalone="no"?><svg xmlns="http://www.w3.org/2000/svg" xmlns:xlink="http://www.w3.org/1999/xlink" contentScriptType="application/ecmascript" contentStyleType="text/css" height="480px" preserveAspectRatio="none" style="width:401px;height:480px;" version="1.1" viewBox="0 0 401 480" width="401px" zoomAndPan="magnify"><defs><filter height="300%" id="f13vv192jnooyj" width="300%" x="-1" y="-1"><feGaussianBlur result="blurOut" stdDeviation="2.0"/><feColorMatrix in="blurOut" result="blurOut2" type="matrix" values="0 0 0 0 0 0 0 0 0 0 0 0 0 0 0 0 0 0 .4 0"/><feOffset dx="4.0" dy="4.0" in="blurOut2" result="blurOut3"/><feBlend in="SourceGraphic" in2="blurOut3" mode="normal"/></filter></defs><g><text fill="#000000" font-family="sans-serif" font-size="18" lengthAdjust="spacingAndGlyphs" textLength="162" x="127.5" y="16.708">Use Case Diagram</text><!--MD5=[05be698b82ac75edede35a5bad6d43fb]
cluster Winehouse_Database--><rect fill="#FFFFFF" filter="url(#f13vv192jnooyj)" height="425" style="stroke: #000000; stroke-width: 1.5;" width="184" x="206" y="44.9531"/><text fill="#000000" font-family="sans-serif" font-size="14" font-weight="bold" lengthAdjust="spacingAndGlyphs" textLength="168" x="214" y="59.9482">Winehouse_Database</text><ellipse cx="297.6565" cy="305.0844" fill="#FEFECE" filter="url(#f13vv192jnooyj)" rx="61.1565" ry="14.6313" style="stroke: #A80036; stroke-width: 1.5;"/><text fill="#000000" font-family="sans-serif" font-size="14" lengthAdjust="spacingAndGlyphs" textLength="83" x="256.1565" y="309.7329">Registration</text><ellipse cx="297.663" cy="240.9768" fill="#FEFECE" filter="url(#f13vv192jnooyj)" rx="29.163" ry="14.5236" style="stroke: #A80036; stroke-width: 1.5;"/><text fill="#000000" font-family="sans-serif" font-size="14" lengthAdjust="spacingAndGlyphs" textLength="37" x="279.163" y="245.6252">Login</text><ellipse cx="297.7362" cy="369.8004" fill="#FEFECE" filter="url(#f13vv192jnooyj)" rx="62.2362" ry="14.8472" style="stroke: #A80036; stroke-width: 1.5;"/><text fill="#000000" font-family="sans-serif" font-size="14" lengthAdjust="spacingAndGlyphs" textLength="86" x="254.7362" y="374.4488">Search Wine</text><ellipse cx="297.4543" cy="436.744" fill="#FEFECE" filter="url(#f13vv192jnooyj)" rx="69.4543" ry="16.2909" style="stroke: #A80036; stroke-width: 1.5;"/><text fill="#000000" font-family="sans-serif" font-size="14" lengthAdjust="spacingAndGlyphs" textLength="105" x="244.9543" y="441.3924">Ask Notification</text><ellipse cx="297.3742" cy="94.728" fill="#FEFECE" filter="url(#f13vv192jnooyj)" rx="61.8742" ry="14.7748" style="stroke: #A80036; stroke-width: 1.5;"/><text fill="#000000" font-family="sans-serif" font-size="14" lengthAdjust="spacingAndGlyphs" textLength="85" x="254.8742" y="99.3764">Refill Bottles</text><ellipse cx="297.2548" cy="159.9768" fill="#FEFECE" filter="url(#f13vv192jnooyj)" rx="48.2548" ry="14.5236" style="stroke: #A80036; stroke-width: 1.5;"/><text fill="#000000" font-family="sans-serif" font-size="14" lengthAdjust="spacingAndGlyphs" textLength="64" x="265.2548" y="164.6252">Buy Wine</text><!--MD5=[97ab183161fd5d1db7fba7485cf76add]
entity Admin--><ellipse cx="137.5" cy="109.4531" fill="#FEFECE" filter="url(#f13vv192jnooyj)" rx="8" ry="8" style="stroke: #A80036; stroke-width: 2.0;"/><path d="M137.5,117.4531 L137.5,144.4531 M124.5,125.4531 L150.5,125.4531 M137.5,144.4531 L124.5,159.4531 M137.5,144.4531 L150.5,159.4531 " fill="none" filter="url(#f13vv192jnooyj)" style="stroke: #A80036; stroke-width: 2.0;"/><text fill="#000000" font-family="sans-serif" font-size="14" lengthAdjust="spacingAndGlyphs" textLength="43" x="116" y="179.4482">Admin</text><!--MD5=[0ba5ee7700168656dc1b457c6fe9fdac]
entity Client--><ellipse cx="137.5" cy="273.4531" fill="#FEFECE" filter="url(#f13vv192jnooyj)" rx="8" ry="8" style="stroke: #A80036; stroke-width: 2.0;"/><path d="M137.5,281.4531 L137.5,308.4531 M124.5,289.4531 L150.5,289.4531 M137.5,308.4531 L124.5,323.4531 M137.5,308.4531 L150.5,323.4531 " fill="none" filter="url(#f13vv192jnooyj)" style="stroke: #A80036; stroke-width: 2.0;"/><text fill="#000000" font-family="sans-serif" font-size="14" lengthAdjust="spacingAndGlyphs" textLength="39" x="118" y="343.4482">Client</text><!--MD5=[aa9590aded7922f1f97871b066948052]
entity Person--><ellipse cx="30.5" cy="176.4531" fill="#FEFECE" filter="url(#f13vv192jnooyj)" rx="8" ry="8" style="stroke: #A80036; stroke-width: 2.0;"/><path d="M30.5,184.4531 L30.5,211.4531 M17.5,192.4531 L43.5,192.4531 M30.5,211.4531 L17.5,226.4531 M30.5,211.4531 L43.5,226.4531 " fill="none" filter="url(#f13vv192jnooyj)" style="stroke: #A80036; stroke-width: 2.0;"/><text fill="#000000" font-family="sans-serif" font-size="14" lengthAdjust="spacingAndGlyphs" textLength="49" x="6" y="246.4482">Person</text><!--MD5=[4101c5c763dd1cd15387df186fdf712a]
link Person to Admin--><path d="M55.064,192.9171 C67.9032,184.7241 84.1,174.3891 98.661,165.0981 " fill="none" id="Person-&gt;Admin" style="stroke: #A80036; stroke-width: 1.0;"/><polygon fill="none" points="95.2288,158.9841,115.854,154.1271,102.7597,170.7861,95.2288,158.9841" style="stroke: #A80036; stroke-width: 1.0;"/><!--MD5=[360914aa33458592fa5b52b45d72aa28]
link Person to Client--><path d="M55.064,229.7221 C69.155,242.7391 87.2902,259.4931 102.8687,273.8841 " fill="none" id="Person-&gt;Client" style="stroke: #A80036; stroke-width: 1.0;"/><polygon fill="none" points="107.96,269.0581,117.901,287.7711,98.4603,279.3411,107.96,269.0581" style="stroke: #A80036; stroke-width: 1.0;"/><!--MD5=[380e91a6e4653f9e687ad78123481a4f]
link Client to Registration--><path d="M157.245,304.9531 C176.7,304.9531 208.158,304.9531 236.256,304.9531 " fill="none" id="Client-Registration" style="stroke: #A80036; stroke-width: 1.0;"/><!--MD5=[db16fc3f983be5e6c64e6c6081602ec1]
link Client to Login--><path d="M157.098,293.8331 C168.621,287.2281 183.871,278.9901 198,272.9531 C222.471,262.4981 251.569,253.4361 271.765,247.6511 " fill="none" id="Client-Login" style="stroke: #A80036; stroke-width: 1.0;"/><!--MD5=[61309db07a1b9f4d026a5045789bac0e]
link Client to Search Wine--><path d="M157.118,316.0261 C168.648,322.6151 183.898,330.8521 198,336.9531 C217.035,345.1891 238.845,352.6851 257.096,358.4431 " fill="none" id="Client-Search Wine" style="stroke: #A80036; stroke-width: 1.0;"/><!--MD5=[2e7a85b826638ea2e48fd9a074b8392e]
link Client to Ask Notification--><path d="M155.792,346.8291 C165.649,366.2341 179.719,388.2074 198,402.9531 C211.307,413.6863 228.211,421.1284 244.244,426.2465 " fill="none" id="Client-Ask Notification" style="stroke: #A80036; stroke-width: 1.0;"/><!--MD5=[1eb4c8c9732c5ae437d7f45a88cc8a94]
link Admin to Refill Bottles--><path d="M159.156,134.9391 C183.916,127.7311 225.951,115.4931 257.012,106.4491 " fill="none" id="Admin-Refill Bottles" style="stroke: #A80036; stroke-width: 1.0;"/><!--MD5=[54bce9d64e4a7c48cbad9c98a0eefe5a]
link Login to Buy Wine--><path d="M297.5,226.0961 C297.5,213.0801 297.5,194.0601 297.5,179.7531 " fill="none" id="Login-&gt;Buy Wine" style="stroke: #A80036; stroke-width: 1.0; stroke-dasharray: 7.0,7.0;"/><polygon fill="#A80036" points="297.5,174.7151,293.5,183.7151,297.5,179.7151,301.5,183.7151,297.5,174.7151" style="stroke: #A80036; stroke-width: 1.0;"/><text fill="#000000" font-family="sans-serif" font-size="13" lengthAdjust="spacingAndGlyphs" textLength="61" x="255.5" y="205.02">«include»</text><!--MD5=[f8b6e21a4f9d57db37c9909bb5de7584]
@startuml
title Use Case Diagram

left to right direction

actor Admin
actor Client
actor Person

Person -down-|> (Admin)
Person -down-|> (Client)

rectangle  Winehouse_Database {
    Client - - (Registration)
    Client - - (Login)
    Client - - (Search Wine)
    Client - - (Ask Notification)
    Admin - - (Refill Bottles)
    (Login) .> (Buy Wine) : <<include>>
    
}
@enduml

PlantUML version 1.2019.11(Sun Sep 22 10:02:15 UTC 2019)
(GPL source distribution)
Java Runtime: Java(TM) SE Runtime Environment
JVM: Java HotSpot(TM) 64-Bit Server VM
Java Version: 1.7.0_25-b15
Operating System: Linux
Default Encoding: UTF-8
Language: en
Country: US
--></g></svg>